<?xml version="1.0"?>
<svg width="808" height="1626" xmlns="http://www.w3.org/2000/svg">
<g stroke-width="7" stroke="black" font-family="Verdana" font-style="italic" font-size="15">
<line x1="307" y1="795" x2="287" y2="795" />
<line x1="427" y1="975" x2="407" y2="975" />
<line x1="367" y1="880" x2="347" y2="880" />
<line x1="387" y1="895" x2="367" y2="895" />
<line x1="127" y1="375" x2="107" y2="375" />
<line x1="407" y1="997" x2="387" y2="997" />
<line x1="427" y1="1020" x2="407" y2="1020" />
<line x1="447" y1="1035" x2="427" y2="1035" />
<line x1="347" y1="862" x2="327" y2="862" />
<line x1="67" y1="35" x2="47" y2="35" />
<line x1="247" y1="535" x2="227" y2="535" />
<line x1="487" y1="1135" x2="467" y2="1135" />
<line x1="47" y1="155" x2="27" y2="155" />
<line x1="67" y1="205" x2="47" y2="205" />
<line x1="27" y1="105" x2="7" y2="105" />
<line x1="47" y1="55" x2="27" y2="55" />
<line x1="67" y1="75" x2="47" y2="75" />
<line x1="187" y1="508" x2="167" y2="508" />
<line x1="207" y1="532" x2="187" y2="532" />
<line x1="227" y1="560" x2="207" y2="560" />
<line x1="247" y1="585" x2="227" y2="585" />
<line x1="227" y1="662" x2="207" y2="662" />
<line x1="247" y1="680" x2="227" y2="680" />
<line x1="267" y1="695" x2="247" y2="695" />
<line x1="627" y1="1445" x2="607" y2="1445" />
<line x1="607" y1="1420" x2="587" y2="1420" />
<line x1="627" y1="1395" x2="607" y2="1395" />
<line x1="147" y1="525" x2="127" y2="525" />
<line x1="167" y1="586" x2="147" y2="586" />
<line x1="187" y1="665" x2="167" y2="665" />
<line x1="207" y1="705" x2="187" y2="705" />
<line x1="227" y1="748" x2="207" y2="748" />
<line x1="247" y1="771" x2="227" y2="771" />
<line x1="267" y1="798" x2="247" y2="798" />
<line x1="287" y1="831" x2="267" y2="831" />
<line x1="307" y1="867" x2="287" y2="867" />
<line x1="327" y1="910" x2="307" y2="910" />
<line x1="347" y1="959" x2="327" y2="959" />
<line x1="367" y1="993" x2="347" y2="993" />
<line x1="387" y1="1042" x2="367" y2="1042" />
<line x1="407" y1="1087" x2="387" y2="1087" />
<line x1="427" y1="1110" x2="407" y2="1110" />
<line x1="447" y1="1135" x2="427" y2="1135" />
<line x1="467" y1="1165" x2="447" y2="1165" />
<line x1="487" y1="1196" x2="467" y2="1196" />
<line x1="507" y1="1227" x2="487" y2="1227" />
<line x1="527" y1="1270" x2="507" y2="1270" />
<line x1="547" y1="1296" x2="527" y2="1296" />
<line x1="567" y1="1328" x2="547" y2="1328" />
<line x1="587" y1="1372" x2="567" y2="1372" />
<line x1="607" y1="1325" x2="587" y2="1325" />
<line x1="627" y1="1345" x2="607" y2="1345" />
<line x1="27" y1="307" x2="7" y2="307" />
<line x1="47" y1="329" x2="27" y2="329" />
<line x1="67" y1="354" x2="47" y2="354" />
<line x1="87" y1="384" x2="67" y2="384" />
<line x1="107" y1="423" x2="87" y2="423" />
<line x1="127" y1="472" x2="107" y2="472" />
<line x1="147" y1="420" x2="127" y2="420" />
<line x1="167" y1="435" x2="147" y2="435" />
<line x1="7" y1="206" x2="5" y2="206" />
<line x1="507" y1="1125" x2="487" y2="1125" />
<line x1="447" y1="1085" x2="427" y2="1085" />
<line x1="467" y1="1105" x2="447" y2="1105" />
<line x1="427" y1="1065" x2="407" y2="1065" />
<line x1="547" y1="1245" x2="527" y2="1245" />
<line x1="327" y1="785" x2="307" y2="785" />
<line x1="647" y1="1425" x2="627" y2="1425" />
<line x1="327" y1="805" x2="307" y2="805" />
<line x1="87" y1="145" x2="67" y2="145" />
<line x1="287" y1="765" x2="267" y2="765" />
<line x1="247" y1="725" x2="227" y2="725" />
<line x1="207" y1="485" x2="187" y2="485" />
<line x1="147" y1="365" x2="127" y2="365" />
<line x1="647" y1="1385" x2="627" y2="1385" />
<line x1="387" y1="945" x2="367" y2="945" />
<line x1="447" y1="965" x2="427" y2="965" />
<line x1="467" y1="1025" x2="447" y2="1025" />
<line x1="447" y1="985" x2="427" y2="985" />
<line x1="447" y1="1005" x2="427" y2="1005" />
<line x1="67" y1="105" x2="47" y2="105" />
<line x1="87" y1="165" x2="67" y2="165" />
<line x1="387" y1="865" x2="367" y2="865" />
<line x1="327" y1="825" x2="307" y2="825" />
<line x1="367" y1="925" x2="347" y2="925" />
<line x1="267" y1="565" x2="247" y2="565" />
<line x1="267" y1="585" x2="247" y2="585" />
<line x1="407" y1="885" x2="387" y2="885" />
<line x1="407" y1="905" x2="387" y2="905" />
<line x1="147" y1="385" x2="127" y2="385" />
<line x1="267" y1="525" x2="247" y2="525" />
<line x1="67" y1="125" x2="47" y2="125" />
<line x1="467" y1="1045" x2="447" y2="1045" />
<line x1="247" y1="645" x2="227" y2="645" />
<line x1="527" y1="1185" x2="507" y2="1185" />
<line x1="367" y1="845" x2="347" y2="845" />
<line x1="167" y1="465" x2="147" y2="465" />
<line x1="87" y1="185" x2="67" y2="185" />
<line x1="227" y1="505" x2="207" y2="505" />
<line x1="527" y1="1205" x2="507" y2="1205" />
<line x1="167" y1="405" x2="147" y2="405" />
<line x1="267" y1="665" x2="247" y2="665" />
<line x1="87" y1="205" x2="67" y2="205" />
<line x1="187" y1="425" x2="167" y2="425" />
<line x1="87" y1="25" x2="67" y2="25" />
<line x1="47" y1="285" x2="27" y2="285" />
<line x1="87" y1="225" x2="67" y2="225" />
<line x1="107" y1="345" x2="87" y2="345" />
<line x1="67" y1="305" x2="47" y2="305" />
<line x1="87" y1="45" x2="67" y2="45" />
<line x1="267" y1="545" x2="247" y2="545" />
<line x1="507" y1="1145" x2="487" y2="1145" />
<line x1="87" y1="245" x2="67" y2="245" />
<line x1="87" y1="65" x2="67" y2="65" />
<line x1="207" y1="625" x2="187" y2="625" />
<line x1="87" y1="265" x2="67" y2="265" />
<line x1="87" y1="85" x2="67" y2="85" />
<line x1="287" y1="685" x2="267" y2="685" />
<line x1="87" y1="325" x2="67" y2="325" />
<line x1="527" y1="1225" x2="507" y2="1225" />
<line x1="267" y1="745" x2="247" y2="745" />
<line x1="267" y1="605" x2="247" y2="605" />
<line x1="287" y1="705" x2="267" y2="705" />
<line x1="647" y1="1445" x2="627" y2="1445" />
<line x1="647" y1="1465" x2="627" y2="1465" />
<line x1="507" y1="1165" x2="487" y2="1165" />
<line x1="567" y1="1265" x2="547" y2="1265" />
<line x1="587" y1="1285" x2="567" y2="1285" />
<line x1="647" y1="1405" x2="627" y2="1405" />
<line x1="647" y1="1325" x2="627" y2="1325" />
<line x1="627" y1="1305" x2="607" y2="1305" />
<line x1="647" y1="1345" x2="627" y2="1345" />
<line x1="647" y1="1365" x2="627" y2="1365" />
<line x1="187" y1="445" x2="167" y2="445" />
<line x1="310" y1="785" x2="310" y2="805" />
<line x1="430" y1="965" x2="430" y2="985" />
<line x1="370" y1="865" x2="370" y2="895" />
<line x1="390" y1="885" x2="390" y2="905" />
<line x1="130" y1="365" x2="130" y2="385" />
<line x1="410" y1="975" x2="410" y2="1020" />
<line x1="430" y1="1005" x2="430" y2="1035" />
<line x1="450" y1="1025" x2="450" y2="1045" />
<line x1="350" y1="845" x2="350" y2="880" />
<line x1="70" y1="25" x2="70" y2="45" />
<line x1="250" y1="525" x2="250" y2="545" />
<line x1="490" y1="1125" x2="490" y2="1145" />
<line x1="50" y1="105" x2="50" y2="205" />
<line x1="70" y1="145" x2="70" y2="265" />
<line x1="30" y1="55" x2="30" y2="155" />
<line x1="50" y1="35" x2="50" y2="75" />
<line x1="70" y1="65" x2="70" y2="85" />
<line x1="190" y1="485" x2="190" y2="532" />
<line x1="210" y1="505" x2="210" y2="560" />
<line x1="230" y1="535" x2="230" y2="585" />
<line x1="250" y1="565" x2="250" y2="605" />
<line x1="230" y1="645" x2="230" y2="680" />
<line x1="250" y1="665" x2="250" y2="695" />
<line x1="270" y1="685" x2="270" y2="705" />
<line x1="630" y1="1425" x2="630" y2="1465" />
<line x1="610" y1="1395" x2="610" y2="1445" />
<line x1="630" y1="1385" x2="630" y2="1405" />
<line x1="150" y1="465" x2="150" y2="586" />
<line x1="170" y1="508" x2="170" y2="665" />
<line x1="190" y1="625" x2="190" y2="705" />
<line x1="210" y1="662" x2="210" y2="748" />
<line x1="230" y1="725" x2="230" y2="771" />
<line x1="250" y1="745" x2="250" y2="798" />
<line x1="270" y1="765" x2="270" y2="831" />
<line x1="290" y1="795" x2="290" y2="867" />
<line x1="310" y1="825" x2="310" y2="910" />
<line x1="330" y1="862" x2="330" y2="959" />
<line x1="350" y1="925" x2="350" y2="993" />
<line x1="370" y1="945" x2="370" y2="1042" />
<line x1="390" y1="997" x2="390" y2="1087" />
<line x1="410" y1="1065" x2="410" y2="1110" />
<line x1="430" y1="1085" x2="430" y2="1135" />
<line x1="450" y1="1105" x2="450" y2="1165" />
<line x1="470" y1="1135" x2="470" y2="1196" />
<line x1="490" y1="1165" x2="490" y2="1227" />
<line x1="510" y1="1185" x2="510" y2="1270" />
<line x1="530" y1="1245" x2="530" y2="1296" />
<line x1="550" y1="1265" x2="550" y2="1328" />
<line x1="570" y1="1285" x2="570" y2="1372" />
<line x1="590" y1="1325" x2="590" y2="1420" />
<line x1="610" y1="1305" x2="610" y2="1345" />
<line x1="630" y1="1325" x2="630" y2="1365" />
<line x1="30" y1="285" x2="30" y2="329" />
<line x1="50" y1="305" x2="50" y2="354" />
<line x1="70" y1="325" x2="70" y2="384" />
<line x1="90" y1="345" x2="90" y2="423" />
<line x1="110" y1="375" x2="110" y2="472" />
<line x1="130" y1="420" x2="130" y2="525" />
<line x1="150" y1="405" x2="150" y2="435" />
<line x1="170" y1="425" x2="170" y2="445" />
<line x1="10" y1="105" x2="10" y2="307" />
<defs>
    <filter x="0" y="0.0" width="1" height="1.0" id="solid">
      <feFlood flood-color="white"/>
      <feComposite in="SourceGraphic"/>
    </filter>
  </defs>
<text x="517" y="1128" stroke-width="1">4886_rich</text>
<text x="457" y="1088" stroke-width="1">4884_nova</text>
<text x="477" y="1108" stroke-width="1">4881_nova</text>
<text x="437" y="1068" stroke-width="1">4880_nova</text>
<text x="557" y="1248" stroke-width="1">4876_rich</text>
<text x="337" y="788" stroke-width="1">4874_darl</text>
<text x="657" y="1428" stroke-width="1">4873_darl</text>
<text x="337" y="808" stroke-width="1">4872_darl</text>
<text x="97" y="148" stroke-width="1">4868_sp_MtKaputar</text>
<text x="297" y="768" stroke-width="1">4864_nova</text>
<text x="257" y="728" stroke-width="1">4863_nova</text>
<text x="217" y="488" stroke-width="1">4862_nova</text>
<text x="157" y="368" stroke-width="1">4861_nova</text>
<text x="657" y="1388" stroke-width="1">4860_nova</text>
<text x="397" y="948" stroke-width="1">4859_nova</text>
<text x="457" y="968" stroke-width="1">4858_nova</text>
<text x="477" y="1028" stroke-width="1">4857_nova</text>
<text x="457" y="988" stroke-width="1">4856_nova</text>
<text x="457" y="1008" stroke-width="1">4855_nova</text>
<text x="77" y="108" stroke-width="1">4854_sp_MtKaputar</text>
<text x="97" y="168" stroke-width="1">4853_sp_MtKaputar</text>
<text x="397" y="868" stroke-width="1">4829_nova</text>
<text x="337" y="828" stroke-width="1">4828_nova</text>
<text x="377" y="928" stroke-width="1">4827_nova</text>
<text x="277" y="568" stroke-width="1">4756_nova</text>
<text x="277" y="588" stroke-width="1">4755_nova</text>
<text x="417" y="888" stroke-width="1">4754_nova</text>
<text x="417" y="908" stroke-width="1">4753_nova</text>
<text x="157" y="388" stroke-width="1">4752_nova</text>
<text x="277" y="528" stroke-width="1">4751_nova</text>
<text x="77" y="128" stroke-width="1">4750_nova</text>
<text x="477" y="1048" stroke-width="1">4749_nova</text>
<text x="257" y="648" stroke-width="1">4401_nova</text>
<text x="537" y="1188" stroke-width="1">4400_nova</text>
<text x="377" y="848" stroke-width="1">4399_nova</text>
<text x="177" y="468" stroke-width="1">4398_nova</text>
<text x="97" y="188" stroke-width="1">4397_nova</text>
<text x="237" y="508" stroke-width="1">4395_nova</text>
<text x="537" y="1208" stroke-width="1">4394_nova</text>
<text x="177" y="408" stroke-width="1">4393_nova</text>
<text x="277" y="668" stroke-width="1">4392_nova</text>
<text x="97" y="208" stroke-width="1">4391_nova</text>
<text x="197" y="428" stroke-width="1">4390_nova</text>
<text x="97" y="28" stroke-width="1">4389_nova</text>
<text x="57" y="288" stroke-width="1">4388_nova</text>
<text x="97" y="228" stroke-width="1">4387_nova</text>
<text x="117" y="348" stroke-width="1">4385_nova</text>
<text x="77" y="308" stroke-width="1">4384_nova</text>
<text x="97" y="48" stroke-width="1">4383_nova</text>
<text x="277" y="548" stroke-width="1">4382_nova</text>
<text x="517" y="1148" stroke-width="1">4381_rich</text>
<text x="97" y="248" stroke-width="1">4380_sp_MtKaputar</text>
<text x="97" y="68" stroke-width="1">4379_sp_Coola</text>
<text x="217" y="628" stroke-width="1">4378_nova</text>
<text x="97" y="268" stroke-width="1">4377_sp_MtKaputar</text>
<text x="97" y="88" stroke-width="1">4376_sp_Coola</text>
<text x="297" y="688" stroke-width="1">4375_nova</text>
<text x="97" y="328" stroke-width="1">4374_nova</text>
<text x="537" y="1228" stroke-width="1">4373_nova</text>
<text x="277" y="748" stroke-width="1">4372_nova</text>
<text x="277" y="608" stroke-width="1">4371_nova</text>
<text x="297" y="708" stroke-width="1">4370_nova</text>
<text x="657" y="1448" stroke-width="1">4369_mitc</text>
<text x="657" y="1468" stroke-width="1">4368_mitc</text>
<text x="517" y="1168" stroke-width="1">4367_mitc</text>
<text x="577" y="1268" stroke-width="1">4366_mitc</text>
<text x="597" y="1288" stroke-width="1">4365_mitc</text>
<text x="657" y="1408" stroke-width="1">4364_mitc</text>
<text x="657" y="1328" stroke-width="1">4363_mitc</text>
<text x="637" y="1308" stroke-width="1">4362_mitc</text>
<text x="657" y="1348" stroke-width="1">4361_mitc</text>
<text x="657" y="1368" stroke-width="1">4360_mitc</text>
<text x="197" y="448" stroke-width="1">3902_nova</text>
</g>
<g stroke-width="7" stroke="black" font-family="Verdana" font-style="regular" font-size="15">
</g>
</svg>
