<?xml version="1.0" encoding="UTF-8" standalone="no"?>
<svg
   width="1355"
   height="1626"
   version="1.1"
   id="svg365"
   sodipodi:docname="reroot.svg"
   inkscape:version="1.4 (e7c3feb100, 2024-10-09)"
   xmlns:inkscape="http://www.inkscape.org/namespaces/inkscape"
   xmlns:sodipodi="http://sodipodi.sourceforge.net/DTD/sodipodi-0.dtd"
   xmlns="http://www.w3.org/2000/svg"
   xmlns:svg="http://www.w3.org/2000/svg">
  <defs
     id="defs365" />
  <sodipodi:namedview
     id="namedview365"
     pagecolor="#ffffff"
     bordercolor="#000000"
     borderopacity="0.25"
     inkscape:showpageshadow="2"
     inkscape:pageopacity="0.0"
     inkscape:pagecheckerboard="0"
     inkscape:deskcolor="#d1d1d1"
     inkscape:zoom="1"
     inkscape:cx="421"
     inkscape:cy="354.5"
     inkscape:window-width="1920"
     inkscape:window-height="1012"
     inkscape:window-x="0"
     inkscape:window-y="0"
     inkscape:window-maximized="1"
     inkscape:current-layer="layer1" />
  <g
     inkscape:groupmode="layer"
     id="layer1"
     inkscape:label="Layer 1">
    <g
       stroke-width="7"
       stroke="black"
       font-family="Verdana"
       font-style="italic"
       font-size="15"
       id="g243">
      <line
         x1="402"
         y1="255"
         x2="319"
         y2="255"
         id="line1" />
      <line
         x1="355"
         y1="295"
         x2="254"
         y2="295"
         id="line2" />
      <line
         x1="920"
         y1="755"
         x2="837"
         y2="755"
         id="line3" />
      <line
         x1="319"
         y1="220"
         x2="236"
         y2="220"
         id="line4" />
      <line
         x1="920"
         y1="1060"
         x2="837"
         y2="1060"
         id="line5" />
      <line
         x1="1003"
         y1="1075"
         x2="920"
         y2="1075"
         id="line6" />
      <line
         x1="588"
         y1="684"
         x2="505"
         y2="684"
         id="line7" />
      <line
         x1="671"
         y1="703"
         x2="588"
         y2="703"
         id="line8" />
      <line
         x1="754"
         y1="722"
         x2="671"
         y2="722"
         id="line9" />
      <line
         x1="837"
         y1="740"
         x2="754"
         y2="740"
         id="line10" />
      <line
         x1="858"
         y1="635"
         x2="775"
         y2="635"
         id="line11" />
      <line
         x1="837"
         y1="995"
         x2="754"
         y2="995"
         id="line12" />
      <line
         x1="634"
         y1="455"
         x2="584"
         y2="455"
         id="line13"
         style="stroke-width:7;stroke-dasharray:none" />
      <line
         x1="837"
         y1="1155"
         x2="754"
         y2="1155"
         id="line14" />
      <line
         x1="1104"
         y1="1335"
         x2="1021"
         y2="1335"
         id="line15" />
      <line
         x1="236"
         y1="192"
         x2="135"
         y2="192"
         id="line16" />
      <line
         x1="754"
         y1="900"
         x2="671"
         y2="900"
         id="line17" />
      <line
         x1="837"
         y1="915"
         x2="754"
         y2="915"
         id="line18" />
      <line
         x1="671"
         y1="805"
         x2="588"
         y2="805"
         id="line19" />
      <line
         x1="754"
         y1="825"
         x2="671"
         y2="825"
         id="line20" />
      <line
         x1="837"
         y1="845"
         x2="754"
         y2="845"
         id="line21" />
      <line
         x1="920"
         y1="1240"
         x2="837"
         y2="1240"
         id="line22" />
      <line
         x1="1003"
         y1="1255"
         x2="920"
         y2="1255"
         id="line23" />
      <line
         x1="837"
         y1="1042"
         x2="754"
         y2="1042"
         id="line24" />
      <line
         x1="218"
         y1="100"
         x2="117"
         y2="100"
         id="line25" />
      <line
         x1="301"
         y1="135"
         x2="218"
         y2="135"
         id="line26" />
      <line
         x1="456"
         y1="345"
         x2="373"
         y2="345"
         id="line27" />
      <line
         x1="736"
         y1="590"
         x2="653"
         y2="590"
         id="line28" />
      <line
         x1="776"
         y1="615"
         x2="736"
         y2="615"
         id="line29"
         style="stroke-width:7;stroke-dasharray:none" />
      <line
         x1="858"
         y1="595"
         x2="775"
         y2="595"
         id="line30" />
      <line
         x1="117"
         y1="67"
         x2="16"
         y2="67"
         id="line31" />
      <line
         x1="218"
         y1="35"
         x2="117"
         y2="35"
         id="line32" />
      <line
         x1="505"
         y1="795"
         x2="422"
         y2="795"
         id="line33" />
      <line
         x1="588"
         y1="906"
         x2="505"
         y2="906"
         id="line34" />
      <line
         x1="671"
         y1="1007"
         x2="588"
         y2="1007"
         id="line35" />
      <line
         x1="754"
         y1="1115"
         x2="671"
         y2="1115"
         id="line36" />
      <line
         x1="837"
         y1="1286"
         x2="754"
         y2="1286"
         id="line37" />
      <line
         x1="938"
         y1="1332"
         x2="837"
         y2="1332"
         id="line38" />
      <line
         x1="1021"
         y1="1380"
         x2="938"
         y2="1380"
         id="line39" />
      <line
         x1="1104"
         y1="1425"
         x2="1021"
         y2="1425"
         id="line40" />
      <line
         x1="135"
         y1="290"
         x2="16"
         y2="290"
         id="line41" />
      <line
         x1="254"
         y1="388"
         x2="135"
         y2="388"
         id="line42" />
      <line
         x1="373"
         y1="482"
         x2="254"
         y2="482"
         id="line43" />
      <line
         x1="423"
         y1="620"
         x2="373"
         y2="620"
         id="line44"
         style="stroke-width:7;stroke-dasharray:none" />
      <line
         x1="541"
         y1="446"
         x2="422"
         y2="446"
         id="line45" />
      <line
         x1="591"
         y1="508"
         x2="541"
         y2="508"
         id="line46"
         style="stroke-width:7;stroke-dasharray:none" />
      <line
         x1="654"
         y1="562"
         x2="584"
         y2="562"
         id="line47"
         style="stroke-width:7;stroke-dasharray:none" />
      <line
         x1="772"
         y1="535"
         x2="653"
         y2="535"
         id="line48" />
      <line
         x1="16"
         y1="178"
         x2="5"
         y2="178"
         id="line49" />
      <line
         x1="608"
         y1="665"
         x2="588"
         y2="665"
         id="line50" />
      <line
         x1="653"
         y1="405"
         x2="633"
         y2="405"
         id="line51" />
      <line
         x1="1023"
         y1="1065"
         x2="1003"
         y2="1065"
         id="line52" />
      <line
         x1="774"
         y1="805"
         x2="754"
         y2="805"
         id="line53" />
      <line
         x1="1124"
         y1="1385"
         x2="1104"
         y2="1385"
         id="line54" />
      <line
         x1="653"
         y1="425"
         x2="633"
         y2="425"
         id="line55" />
      <line
         x1="774"
         y1="945"
         x2="754"
         y2="945"
         id="line56" />
      <line
         x1="476"
         y1="325"
         x2="456"
         y2="325"
         id="line57" />
      <line
         x1="1124"
         y1="1405"
         x2="1104"
         y2="1405"
         id="line58" />
      <line
         x1="1124"
         y1="1425"
         x2="1104"
         y2="1425"
         id="line59" />
      <line
         x1="238"
         y1="65"
         x2="218"
         y2="65"
         id="line60" />
      <line
         x1="375"
         y1="285"
         x2="355"
         y2="285"
         id="line61" />
      <line
         x1="940"
         y1="745"
         x2="920"
         y2="745"
         id="line62" />
      <line
         x1="857"
         y1="825"
         x2="837"
         y2="825"
         id="line63" />
      <line
         x1="756"
         y1="565"
         x2="736"
         y2="565"
         id="line64" />
      <line
         x1="1023"
         y1="1245"
         x2="1003"
         y2="1245"
         id="line65" />
      <line
         x1="878"
         y1="585"
         x2="858"
         y2="585"
         id="line66" />
      <line
         x1="857"
         y1="845"
         x2="837"
         y2="845"
         id="line67" />
      <line
         x1="1124"
         y1="1305"
         x2="1104"
         y2="1305"
         id="line68" />
      <line
         x1="238"
         y1="25"
         x2="218"
         y2="25"
         id="line69" />
      <line
         x1="792"
         y1="525"
         x2="772"
         y2="525"
         id="line70" />
      <line
         x1="774"
         y1="885"
         x2="754"
         y2="885"
         id="line71" />
      <line
         x1="653"
         y1="445"
         x2="633"
         y2="445"
         id="line72" />
      <line
         x1="339"
         y1="185"
         x2="319"
         y2="185"
         id="line73" />
      <line
         x1="422"
         y1="245"
         x2="402"
         y2="245"
         id="line74" />
      <line
         x1="561"
         y1="385"
         x2="541"
         y2="385"
         id="line75" />
      <line
         x1="422"
         y1="265"
         x2="402"
         y2="265"
         id="line76" />
      <line
         x1="878"
         y1="625"
         x2="858"
         y2="625"
         id="line77" />
      <line
         x1="857"
         y1="1105"
         x2="837"
         y2="1105"
         id="line78" />
      <line
         x1="375"
         y1="305"
         x2="355"
         y2="305"
         id="line79" />
      <line
         x1="238"
         y1="85"
         x2="218"
         y2="85"
         id="line80" />
      <line
         x1="653"
         y1="465"
         x2="633"
         y2="465"
         id="line81" />
      <line
         x1="774"
         y1="965"
         x2="754"
         y2="965"
         id="line82" />
      <line
         x1="476"
         y1="345"
         x2="456"
         y2="345"
         id="line83" />
      <line
         x1="691"
         y1="685"
         x2="671"
         y2="685"
         id="line84" />
      <line
         x1="774"
         y1="705"
         x2="754"
         y2="705"
         id="line85" />
      <line
         x1="857"
         y1="905"
         x2="837"
         y2="905"
         id="line86" />
      <line
         x1="339"
         y1="205"
         x2="319"
         y2="205"
         id="line87" />
      <line
         x1="857"
         y1="985"
         x2="837"
         y2="985"
         id="line88" />
      <line
         x1="857"
         y1="1125"
         x2="837"
         y2="1125"
         id="line89" />
      <line
         x1="857"
         y1="1145"
         x2="837"
         y2="1145"
         id="line90" />
      <line
         x1="940"
         y1="765"
         x2="920"
         y2="765"
         id="line91" />
      <line
         x1="958"
         y1="1285"
         x2="938"
         y2="1285"
         id="line92" />
      <line
         x1="321"
         y1="125"
         x2="301"
         y2="125"
         id="line93" />
      <line
         x1="653"
         y1="485"
         x2="633"
         y2="485"
         id="line94" />
      <line
         x1="339"
         y1="225"
         x2="319"
         y2="225"
         id="line95" />
      <line
         x1="940"
         y1="1045"
         x2="920"
         y2="1045"
         id="line96" />
      <line
         x1="857"
         y1="1165"
         x2="837"
         y2="1165"
         id="line97" />
      <line
         x1="1124"
         y1="1325"
         x2="1104"
         y2="1325"
         id="line98" />
      <line
         x1="1023"
         y1="1085"
         x2="1003"
         y2="1085"
         id="line99" />
      <line
         x1="857"
         y1="725"
         x2="837"
         y2="725"
         id="line100" />
      <line
         x1="1124"
         y1="1345"
         x2="1104"
         y2="1345"
         id="line101" />
      <line
         x1="691"
         y1="785"
         x2="671"
         y2="785"
         id="line102" />
      <line
         x1="878"
         y1="645"
         x2="858"
         y2="645"
         id="line103" />
      <line
         x1="940"
         y1="1225"
         x2="920"
         y2="1225"
         id="line104" />
      <line
         x1="857"
         y1="1005"
         x2="837"
         y2="1005"
         id="line105" />
      <line
         x1="857"
         y1="1185"
         x2="837"
         y2="1185"
         id="line106" />
      <line
         x1="653"
         y1="505"
         x2="633"
         y2="505"
         id="line107" />
      <line
         x1="857"
         y1="1205"
         x2="837"
         y2="1205"
         id="line108" />
      <line
         x1="1124"
         y1="1365"
         x2="1104"
         y2="1365"
         id="line109" />
      <line
         x1="256"
         y1="165"
         x2="236"
         y2="165"
         id="line110" />
      <line
         x1="857"
         y1="925"
         x2="837"
         y2="925"
         id="line111" />
      <line
         x1="857"
         y1="865"
         x2="837"
         y2="865"
         id="line112" />
      <line
         x1="1023"
         y1="1265"
         x2="1003"
         y2="1265"
         id="line113" />
      <line
         x1="857"
         y1="1025"
         x2="837"
         y2="1025"
         id="line114" />
      <line
         x1="238"
         y1="105"
         x2="218"
         y2="105"
         id="line115" />
      <line
         x1="321"
         y1="145"
         x2="301"
         y2="145"
         id="line116" />
      <line
         x1="476"
         y1="365"
         x2="456"
         y2="365"
         id="line117" />
      <line
         x1="878"
         y1="605"
         x2="858"
         y2="605"
         id="line118" />
      <line
         x1="1124"
         y1="1445"
         x2="1104"
         y2="1445"
         id="line119" />
      <line
         x1="238"
         y1="45"
         x2="218"
         y2="45"
         id="line120" />
      <line
         x1="1124"
         y1="1465"
         x2="1104"
         y2="1465"
         id="line121" />
      <line
         x1="792"
         y1="545"
         x2="772"
         y2="545"
         id="line122" />
      <line
         x1="405"
         y1="245"
         x2="405"
         y2="265"
         id="line123" />
      <line
         x1="358"
         y1="285"
         x2="358"
         y2="305"
         id="line124" />
      <line
         x1="923"
         y1="745"
         x2="923"
         y2="765"
         id="line125" />
      <line
         x1="322"
         y1="185"
         x2="322"
         y2="255"
         id="line126" />
      <line
         x1="923"
         y1="1045"
         x2="923"
         y2="1075"
         id="line127" />
      <line
         x1="1006"
         y1="1065"
         x2="1006"
         y2="1085"
         id="line128" />
      <line
         x1="591"
         y1="665"
         x2="591"
         y2="703"
         id="line129" />
      <line
         x1="674"
         y1="685"
         x2="674"
         y2="722"
         id="line130" />
      <line
         x1="757"
         y1="705"
         x2="757"
         y2="740"
         id="line131" />
      <line
         x1="840"
         y1="725"
         x2="840"
         y2="755"
         id="line132" />
      <line
         x1="861"
         y1="625"
         x2="861"
         y2="645"
         id="line133" />
      <line
         x1="840"
         y1="985"
         x2="840"
         y2="1005"
         id="line134" />
      <line
         x1="636"
         y1="405"
         x2="636"
         y2="505"
         id="line135" />
      <line
         x1="840"
         y1="1105"
         x2="840"
         y2="1205"
         id="line136" />
      <line
         x1="1107"
         y1="1305"
         x2="1107"
         y2="1365"
         id="line137" />
      <line
         x1="239"
         y1="165"
         x2="239"
         y2="220"
         id="line138" />
      <line
         x1="757"
         y1="885"
         x2="757"
         y2="915"
         id="line139" />
      <line
         x1="840"
         y1="905"
         x2="840"
         y2="925"
         id="line140" />
      <line
         x1="674"
         y1="785"
         x2="674"
         y2="825"
         id="line141" />
      <line
         x1="757"
         y1="805"
         x2="757"
         y2="845"
         id="line142" />
      <line
         x1="840"
         y1="825"
         x2="840"
         y2="865"
         id="line143" />
      <line
         x1="923"
         y1="1225"
         x2="923"
         y2="1255"
         id="line144" />
      <line
         x1="1006"
         y1="1245"
         x2="1006"
         y2="1265"
         id="line145" />
      <line
         x1="840"
         y1="1025"
         x2="840"
         y2="1060"
         id="line146" />
      <line
         x1="221"
         y1="65"
         x2="221"
         y2="135"
         id="line147" />
      <line
         x1="304"
         y1="125"
         x2="304"
         y2="145"
         id="line148" />
      <line
         x1="459"
         y1="325"
         x2="459"
         y2="365"
         id="line149" />
      <line
         x1="739"
         y1="565"
         x2="739"
         y2="615"
         id="line150" />
      <line
         x1="778"
         y1="595"
         x2="778"
         y2="635"
         id="line151" />
      <line
         x1="861"
         y1="585"
         x2="861"
         y2="605"
         id="line152" />
      <line
         x1="120"
         y1="35"
         x2="120"
         y2="100"
         id="line153" />
      <line
         x1="221"
         y1="25"
         x2="221"
         y2="45"
         id="line154" />
      <line
         x1="508"
         y1="684"
         x2="508"
         y2="906"
         id="line155" />
      <line
         x1="591"
         y1="805"
         x2="591"
         y2="1007"
         id="line156" />
      <line
         x1="674"
         y1="900"
         x2="674"
         y2="1115"
         id="line157" />
      <line
         x1="757"
         y1="945"
         x2="757"
         y2="1286"
         id="line158" />
      <line
         x1="840"
         y1="1240"
         x2="840"
         y2="1332"
         id="line159" />
      <line
         x1="941"
         y1="1285"
         x2="941"
         y2="1380"
         id="line160" />
      <line
         x1="1024"
         y1="1335"
         x2="1024"
         y2="1425"
         id="line161" />
      <line
         x1="1107"
         y1="1385"
         x2="1107"
         y2="1465"
         id="line162" />
      <line
         x1="138"
         y1="192"
         x2="138"
         y2="388"
         id="line163" />
      <line
         x1="257"
         y1="295"
         x2="257"
         y2="482"
         id="line164" />
      <line
         x1="376"
         y1="345"
         x2="376"
         y2="620"
         id="line165" />
      <line
         x1="425"
         y1="446"
         x2="425"
         y2="795"
         id="line166" />
      <line
         x1="544"
         y1="385"
         x2="544"
         y2="508"
         id="line167" />
      <line
         x1="587"
         y1="455"
         x2="587"
         y2="562"
         id="line168" />
      <line
         x1="656"
         y1="535"
         x2="656"
         y2="590"
         id="line169" />
      <line
         x1="775"
         y1="525"
         x2="775"
         y2="545"
         id="line170" />
      <line
         x1="19"
         y1="67"
         x2="19"
         y2="290"
         id="line171" />
      <defs
         id="defs171">
        <filter
           x="-0.011907669"
           y="-0.036702509"
           width="1.0238153"
           height="1.073405"
           id="solid">
          <feFlood
             flood-color="white"
             id="feFlood171" />
          <feComposite
             in="SourceGraphic"
             id="feComposite171" />
        </filter>
      </defs>
      <text
         x="618"
         y="668"
         stroke-width="1"
         id="text171">4864_nova</text>
      <text
         x="663"
         y="408"
         stroke-width="1"
         id="text172">4752_nova</text>
      <text
         x="1033"
         y="1068"
         stroke-width="1"
         id="text173">3902_nova</text>
      <text
         x="784"
         y="808"
         stroke-width="1"
         id="text174">4394_nova</text>
      <text
         x="1134"
         y="1388"
         stroke-width="1"
         id="text175">4365_mitc</text>
      <text
         x="663"
         y="428"
         stroke-width="1"
         id="text176">4383_nova</text>
      <text
         x="784"
         y="948"
         stroke-width="1"
         id="text177">4375_nova</text>
      <text
         x="486"
         y="328"
         stroke-width="1"
         id="text178">4756_nova</text>
      <text
         x="1134"
         y="1408"
         stroke-width="1"
         id="text179">4368_mitc</text>
      <text
         x="1134"
         y="1428"
         stroke-width="1"
         id="text180">4369_mitc</text>
      <text
         x="248"
         y="68"
         stroke-width="1"
         id="text181">4377_sp_MtKap</text>
      <text
         x="385"
         y="288"
         stroke-width="1"
         id="text182">4863_nova</text>
      <text
         x="950"
         y="748"
         stroke-width="1"
         id="text183">4372_nova</text>
      <text
         x="867"
         y="828"
         stroke-width="1"
         id="text184">4860_nova</text>
      <text
         x="766"
         y="568"
         stroke-width="1"
         id="text185">4384_nova</text>
      <text
         x="1033"
         y="1248"
         stroke-width="1"
         id="text186">4884_sp_Gibr</text>
      <text
         x="888"
         y="588"
         stroke-width="1"
         id="text187">4828_nova</text>
      <text
         x="867"
         y="848"
         stroke-width="1"
         id="text188">4751_nova</text>
      <text
         x="1134"
         y="1308"
         stroke-width="1"
         id="text189">4362_mitc</text>
      <text
         x="248"
         y="28"
         stroke-width="1"
         id="text190">4376_sp_Coola</text>
      <text
         x="802"
         y="528"
         stroke-width="1"
         id="text191">4754_nova</text>
      <text
         x="784"
         y="888"
         stroke-width="1"
         id="text192">4397_nova</text>
      <text
         x="663"
         y="448"
         stroke-width="1"
         id="text193">4374_nova</text>
      <text
         x="349"
         y="188"
         stroke-width="1"
         id="text194">4873_darl</text>
      <text
         x="432"
         y="248"
         stroke-width="1"
         id="text195">4886_rich</text>
      <text
         x="575"
         y="388"
         stroke-width="1"
         id="text196">4400_nova</text>
      <text
         x="432"
         y="268"
         stroke-width="1"
         id="text197">4876_rich</text>
      <text
         x="888"
         y="628"
         stroke-width="1"
         id="text198">4827_nova</text>
      <text
         x="867"
         y="1108"
         stroke-width="1"
         id="text199">4749_nova</text>
      <text
         x="385"
         y="308"
         stroke-width="1"
         id="text200">4378_nova</text>
      <text
         x="248"
         y="88"
         stroke-width="1"
         id="text201">4854_sp_MtKap</text>
      <text
         x="663"
         y="468"
         stroke-width="1"
         id="text202">4395_nova</text>
      <text
         x="784"
         y="968"
         stroke-width="1"
         id="text203">4370_nova</text>
      <text
         x="486"
         y="348"
         stroke-width="1"
         id="text204">4371_nova</text>
      <text
         x="701"
         y="688"
         stroke-width="1"
         id="text205">4861_sp_MtBoss</text>
      <text
         x="784"
         y="708"
         stroke-width="1"
         id="text206">4862_sp_MtBoss</text>
      <text
         x="867"
         y="908"
         stroke-width="1"
         id="text207">4387_nova</text>
      <text
         x="349"
         y="208"
         stroke-width="1"
         id="text208">4874_darl</text>
      <text
         x="867"
         y="988"
         stroke-width="1"
         id="text209">4750_nova</text>
      <text
         x="867"
         y="1128"
         stroke-width="1"
         id="text210">4856_nova</text>
      <text
         x="867"
         y="1148"
         stroke-width="1"
         id="text211">4858_nova</text>
      <text
         x="950"
         y="768"
         stroke-width="1"
         id="text212">4401_nova</text>
      <text
         x="968"
         y="1288"
         stroke-width="1"
         id="text213">4367_mitc</text>
      <text
         x="331"
         y="128"
         stroke-width="1"
         id="text214">4380_sp_MtKap</text>
      <text
         x="663"
         y="488"
         stroke-width="1"
         id="text215">4389_nova</text>
      <text
         x="349"
         y="228"
         stroke-width="1"
         id="text216">4872_darl</text>
      <text
         x="950"
         y="1048"
         stroke-width="1"
         id="text217">4393_nova</text>
      <text
         x="867"
         y="1168"
         stroke-width="1"
         id="text218">4857_nova</text>
      <text
         x="1134"
         y="1328"
         stroke-width="1"
         id="text219">4361_mitc</text>
      <text
         x="1033"
         y="1088"
         stroke-width="1"
         id="text220">4390_nova</text>
      <text
         x="867"
         y="728"
         stroke-width="1"
         id="text221">4399_nova</text>
      <text
         x="1134"
         y="1348"
         stroke-width="1"
         id="text222">4360_mitc</text>
      <text
         x="701"
         y="788"
         stroke-width="1"
         id="text223">4398_nova</text>
      <text
         x="888"
         y="648"
         stroke-width="1"
         id="text224">4859_nova</text>
      <text
         x="950"
         y="1228"
         stroke-width="1"
         id="text225">4880_sp_Gibr</text>
      <text
         x="867"
         y="1008"
         stroke-width="1"
         id="text226">4385_nova</text>
      <text
         x="867"
         y="1188"
         stroke-width="1"
         id="text227">4855_nova</text>
      <text
         x="663"
         y="508"
         stroke-width="1"
         id="text228">4753_nova</text>
      <text
         x="867"
         y="1208"
         stroke-width="1"
         id="text229">4392_nova</text>
      <text
         x="1134"
         y="1368"
         stroke-width="1"
         id="text230">4363_mitc</text>
      <text
         x="266"
         y="168"
         stroke-width="1"
         id="text231">4381_rich</text>
      <text
         x="867"
         y="928"
         stroke-width="1"
         id="text232">4391_nova</text>
      <text
         x="867"
         y="868"
         stroke-width="1"
         id="text233">4382_nova</text>
      <text
         x="1033"
         y="1268"
         stroke-width="1"
         id="text234">4881_sp_Gibr</text>
      <text
         x="867"
         y="1028"
         stroke-width="1"
         id="text235">4373_nova</text>
      <text
         x="248"
         y="108"
         stroke-width="1"
         id="text236">4868_sp_MtKap</text>
      <text
         x="331"
         y="148"
         stroke-width="1"
         id="text237">4853_sp_MtKap</text>
      <text
         x="486"
         y="368"
         stroke-width="1"
         id="text238">4755_nova</text>
      <text
         x="888"
         y="608"
         stroke-width="1"
         id="text239">4829_nova</text>
      <text
         x="1134"
         y="1448"
         stroke-width="1"
         id="text240">4364_mitc</text>
      <text
         x="248"
         y="48"
         stroke-width="1"
         id="text241">4379_nova</text>
      <text
         x="1134"
         y="1468"
         stroke-width="1"
         id="text242">4366_mitc</text>
      <text
         x="802"
         y="548"
         stroke-width="1"
         id="text243">4388_nova</text>
    </g>
    <g
       stroke-width="7"
       stroke="#000000"
       font-family="Verdana"
       font-style="regular"
       font-size="15px"
       id="g365"
       style="display:inline">
      <text
         filter="url(#solid)"
         x="329"
         y="247"
         stroke-width="1"
         id="text244">54/52</text>
      <text
         filter="url(#solid)"
         x="264"
         y="287"
         stroke-width="1"
         id="text245">100/100</text>
      <text
         filter="url(#solid)"
         x="246"
         y="212"
         stroke-width="1"
         id="text247">58/51</text>
      <text
         filter="url(#solid)"
         x="869"
         y="1052"
         stroke-width="1"
         id="text248">86/89</text>
      <text
         filter="url(#solid)"
         x="952"
         y="1067"
         stroke-width="1"
         id="text249">63/68</text>
      <text
         filter="url(#solid)"
         x="610"
         y="695"
         stroke-width="1"
         id="text251">51/44</text>
      <text
         filter="url(#solid)"
         x="699"
         y="714"
         stroke-width="1"
         id="text252">52/53</text>
      <text
         filter="url(#solid)"
         x="776"
         y="732"
         stroke-width="1"
         id="text253">83/80</text>
      <text
         filter="url(#solid)"
         x="807"
         y="627"
         stroke-width="1"
         id="text254">96/97</text>
      <text
         filter="url(#solid)"
         x="786"
         y="987"
         stroke-width="1"
         id="text255">74/74</text>
      <text
         filter="url(#solid)"
         x="786"
         y="1147"
         stroke-width="1"
         id="text257">96/96</text>
      <text
         filter="url(#solid)"
         x="145"
         y="184"
         stroke-width="1"
         id="text259">100/100</text>
      <text
         filter="url(#solid)"
         x="695"
         y="892"
         stroke-width="1"
         id="text260">91/89</text>
      <text
         filter="url(#solid)"
         x="782"
         y="907"
         stroke-width="1"
         id="text261">81/75</text>
      <text
         filter="url(#solid)"
         x="616"
         y="797"
         stroke-width="1"
         id="text262">51/52</text>
      <text
         filter="url(#solid)"
         x="778"
         y="837"
         stroke-width="1"
         id="text264">68/73</text>
      <text
         filter="url(#solid)"
         x="861"
         y="1232"
         stroke-width="1"
         id="text265">99/99</text>
      <text
         filter="url(#solid)"
         x="952"
         y="1247"
         stroke-width="1"
         id="text266">49/52</text>
      <text
         filter="url(#solid)"
         x="782"
         y="1034"
         stroke-width="1"
         id="text267">71/74</text>
      <text
         filter="url(#solid)"
         x="127"
         y="92"
         stroke-width="1"
         id="text268">100/100</text>
      <text
         filter="url(#solid)"
         x="228"
         y="127"
         stroke-width="1"
         id="text269">62/65</text>
      <text
         filter="url(#solid)"
         x="383"
         y="337"
         stroke-width="1"
         id="text270">99/99</text>
      <text
         filter="url(#solid)"
         x="675"
         y="582"
         stroke-width="1"
         id="text271">63/60</text>
      <text
         filter="url(#solid)"
         x="809"
         y="587"
         stroke-width="1"
         id="text273">83/85</text>
      <text
         filter="url(#solid)"
         x="26"
         y="59"
         stroke-width="1"
         id="text274">100/100</text>
      <text
         filter="url(#solid)"
         x="127"
         y="27"
         stroke-width="1"
         id="text275">100/100</text>
      <text
         filter="url(#solid)"
         x="452"
         y="787"
         stroke-width="1"
         id="text276">56/55</text>
      <text
         filter="url(#solid)"
         x="865"
         y="1324"
         stroke-width="1"
         id="text281">100/100</text>
      <text
         filter="url(#solid)"
         x="956"
         y="1372"
         stroke-width="1"
         id="text282">58/57</text>
      <text
         filter="url(#solid)"
         x="1045"
         y="1417"
         stroke-width="1"
         id="text283">66/72</text>
      <text
         filter="url(#solid)"
         x="26"
         y="282"
         stroke-width="1"
         id="text284">100/100</text>
      <text
         filter="url(#solid)"
         x="145"
         y="380"
         stroke-width="1"
         id="text285">82/87</text>
      <text
         filter="url(#solid)"
         x="264"
         y="474"
         stroke-width="1"
         id="text286">100/99</text>
      <text
         filter="url(#solid)"
         x="490"
         y="438"
         stroke-width="1"
         id="text288">64/65</text>
      <text
         filter="url(#solid)"
         x="596"
         y="554"
         stroke-width="1"
         id="text290">97/96</text>
      <text
         filter="url(#solid)"
         x="717"
         y="527"
         stroke-width="1"
         id="text291">99/99</text>
    </g>
  </g>
</svg>
