<?xml version="1.0" encoding="UTF-8" standalone="no"?>
<svg
   width="1449"
   height="1626"
   version="1.1"
   id="svg330"
   sodipodi:docname="reroot.svg"
   inkscape:version="1.4 (e7c3feb100, 2024-10-09)"
   xmlns:inkscape="http://www.inkscape.org/namespaces/inkscape"
   xmlns:sodipodi="http://sodipodi.sourceforge.net/DTD/sodipodi-0.dtd"
   xmlns="http://www.w3.org/2000/svg"
   xmlns:svg="http://www.w3.org/2000/svg">
  <defs
     id="defs330" />
  <sodipodi:namedview
     id="namedview330"
     pagecolor="#ffffff"
     bordercolor="#000000"
     borderopacity="0.25"
     inkscape:showpageshadow="2"
     inkscape:pageopacity="0.0"
     inkscape:pagecheckerboard="0"
     inkscape:deskcolor="#d1d1d1"
     inkscape:zoom="1"
     inkscape:cx="860"
     inkscape:cy="1135.5"
     inkscape:window-width="1920"
     inkscape:window-height="1012"
     inkscape:window-x="0"
     inkscape:window-y="0"
     inkscape:window-maximized="1"
     inkscape:current-layer="g330" />
  <g
     stroke-width="7"
     stroke="black"
     font-family="Verdana"
     font-style="italic"
     font-size="15"
     id="g269">
    <line
       x1="402"
       y1="255"
       x2="319"
       y2="255"
       id="line1" />
    <line
       x1="355"
       y1="295"
       x2="254"
       y2="295"
       id="line2" />
    <line
       x1="878"
       y1="420"
       x2="813"
       y2="420"
       id="line3" />
    <line
       x1="961"
       y1="435"
       x2="878"
       y2="435"
       id="line4" />
    <line
       x1="1120"
       y1="1135"
       x2="1037"
       y2="1135"
       id="line5" />
    <line
       x1="990"
       y1="755"
       x2="907"
       y2="755"
       id="line6" />
    <line
       x1="319"
       y1="220"
       x2="236"
       y2="220"
       id="line7" />
    <line
       x1="1203"
       y1="1195"
       x2="1120"
       y2="1195"
       id="line8" />
    <line
       x1="1185"
       y1="1060"
       x2="1102"
       y2="1060"
       id="line9" />
    <line
       x1="1268"
       y1="1075"
       x2="1185"
       y2="1075"
       id="line10" />
    <line
       x1="658"
       y1="684"
       x2="575"
       y2="684"
       id="line11" />
    <line
       x1="741"
       y1="703"
       x2="658"
       y2="703"
       id="line12" />
    <line
       x1="824"
       y1="722"
       x2="741"
       y2="722"
       id="line13" />
    <line
       x1="907"
       y1="740"
       x2="824"
       y2="740"
       id="line14" />
    <line
       x1="1098"
       y1="635"
       x2="1015"
       y2="635"
       id="line15" />
    <line
       x1="954"
       y1="955"
       x2="871"
       y2="955"
       id="line16" />
    <line
       x1="1037"
       y1="1157"
       x2="954"
       y2="1157"
       id="line17" />
    <line
       x1="1120"
       y1="1180"
       x2="1037"
       y2="1180"
       id="line18" />
    <line
       x1="813"
       y1="450"
       x2="730"
       y2="450"
       id="line19" />
    <line
       x1="887"
       y1="480"
       x2="813"
       y2="480"
       id="line20" />
    <line
       x1="970"
       y1="495"
       x2="887"
       y2="495"
       id="line21" />
    <line
       x1="954"
       y1="1131"
       x2="871"
       y2="1131"
       id="line22" />
    <line
       x1="1221"
       y1="1335"
       x2="1138"
       y2="1335"
       id="line23" />
    <line
       x1="236"
       y1="192"
       x2="135"
       y2="192"
       id="line24" />
    <line
       x1="824"
       y1="900"
       x2="741"
       y2="900"
       id="line25" />
    <line
       x1="907"
       y1="915"
       x2="824"
       y2="915"
       id="line26" />
    <line
       x1="741"
       y1="805"
       x2="658"
       y2="805"
       id="line27" />
    <line
       x1="824"
       y1="825"
       x2="741"
       y2="825"
       id="line28" />
    <line
       x1="907"
       y1="845"
       x2="824"
       y2="845"
       id="line29" />
    <line
       x1="1037"
       y1="1240"
       x2="954"
       y2="1240"
       id="line30" />
    <line
       x1="1120"
       y1="1255"
       x2="1037"
       y2="1255"
       id="line31" />
    <line
       x1="871"
       y1="979"
       x2="824"
       y2="979"
       id="line32" />
    <line
       x1="963"
       y1="1004"
       x2="871"
       y2="1004"
       id="line33" />
    <line
       x1="1019"
       y1="1023"
       x2="963"
       y2="1023"
       id="line34" />
    <line
       x1="1102"
       y1="1042"
       x2="1019"
       y2="1042"
       id="line35" />
    <line
       x1="218"
       y1="100"
       x2="117"
       y2="100"
       id="line36" />
    <line
       x1="301"
       y1="135"
       x2="218"
       y2="135"
       id="line37" />
    <line
       x1="465"
       y1="340"
       x2="373"
       y2="340"
       id="line38" />
    <line
       x1="548"
       y1="355"
       x2="465"
       y2="355"
       id="line39" />
    <line
       x1="932"
       y1="590"
       x2="849"
       y2="590"
       id="line40" />
    <line
       x1="1015"
       y1="615"
       x2="932"
       y2="615"
       id="line41" />
    <line
       x1="1098"
       y1="595"
       x2="1015"
       y2="595"
       id="line42" />
    <line
       x1="117"
       y1="67"
       x2="16"
       y2="67"
       id="line43" />
    <line
       x1="218"
       y1="35"
       x2="117"
       y2="35"
       id="line44" />
    <line
       x1="575"
       y1="792"
       x2="492"
       y2="792"
       id="line45" />
    <line
       x1="658"
       y1="900"
       x2="575"
       y2="900"
       id="line46" />
    <line
       x1="741"
       y1="996"
       x2="658"
       y2="996"
       id="line47" />
    <line
       x1="824"
       y1="1093"
       x2="741"
       y2="1093"
       id="line48" />
    <line
       x1="871"
       y1="1208"
       x2="824"
       y2="1208"
       id="line49" />
    <line
       x1="954"
       y1="1286"
       x2="871"
       y2="1286"
       id="line50" />
    <line
       x1="1055"
       y1="1332"
       x2="954"
       y2="1332"
       id="line51" />
    <line
       x1="1138"
       y1="1380"
       x2="1055"
       y2="1380"
       id="line52" />
    <line
       x1="1221"
       y1="1425"
       x2="1138"
       y2="1425"
       id="line53" />
    <line
       x1="135"
       y1="289"
       x2="16"
       y2="289"
       id="line54" />
    <line
       x1="254"
       y1="387"
       x2="135"
       y2="387"
       id="line55" />
    <line
       x1="373"
       y1="479"
       x2="254"
       y2="479"
       id="line56" />
    <line
       x1="492"
       y1="618"
       x2="373"
       y2="618"
       id="line57" />
    <line
       x1="611"
       y1="445"
       x2="492"
       y2="445"
       id="line58" />
    <line
       x1="730"
       y1="506"
       x2="611"
       y2="506"
       id="line59" />
    <line
       x1="849"
       y1="562"
       x2="730"
       y2="562"
       id="line60" />
    <line
       x1="968"
       y1="535"
       x2="849"
       y2="535"
       id="line61" />
    <line
       x1="16"
       y1="178"
       x2="5"
       y2="178"
       id="line62" />
    <line
       x1="678"
       y1="665"
       x2="658"
       y2="665"
       id="line63" />
    <line
       x1="898"
       y1="405"
       x2="878"
       y2="405"
       id="line64" />
    <line
       x1="1288"
       y1="1065"
       x2="1268"
       y2="1065"
       id="line65" />
    <line
       x1="844"
       y1="805"
       x2="824"
       y2="805"
       id="line66" />
    <line
       x1="1241"
       y1="1385"
       x2="1221"
       y2="1385"
       id="line67" />
    <line
       x1="981"
       y1="425"
       x2="961"
       y2="425"
       id="line68" />
    <line
       x1="1039"
       y1="1005"
       x2="1019"
       y2="1005"
       id="line69" />
    <line
       x1="568"
       y1="345"
       x2="548"
       y2="345"
       id="line70" />
    <line
       x1="1241"
       y1="1405"
       x2="1221"
       y2="1405"
       id="line71" />
    <line
       x1="1241"
       y1="1425"
       x2="1221"
       y2="1425"
       id="line72" />
    <line
       x1="238"
       y1="65"
       x2="218"
       y2="65"
       id="line73" />
    <line
       x1="375"
       y1="285"
       x2="355"
       y2="285"
       id="line74" />
    <line
       x1="1010"
       y1="745"
       x2="990"
       y2="745"
       id="line75" />
    <line
       x1="927"
       y1="825"
       x2="907"
       y2="825"
       id="line76" />
    <line
       x1="952"
       y1="565"
       x2="932"
       y2="565"
       id="line77" />
    <line
       x1="1140"
       y1="1245"
       x2="1120"
       y2="1245"
       id="line78" />
    <line
       x1="1118"
       y1="585"
       x2="1098"
       y2="585"
       id="line79" />
    <line
       x1="927"
       y1="845"
       x2="907"
       y2="845"
       id="line80" />
    <line
       x1="1241"
       y1="1305"
       x2="1221"
       y2="1305"
       id="line81" />
    <line
       x1="238"
       y1="25"
       x2="218"
       y2="25"
       id="line82" />
    <line
       x1="988"
       y1="525"
       x2="968"
       y2="525"
       id="line83" />
    <line
       x1="844"
       y1="885"
       x2="824"
       y2="885"
       id="line84" />
    <line
       x1="907"
       y1="465"
       x2="887"
       y2="465"
       id="line85" />
    <line
       x1="339"
       y1="185"
       x2="319"
       y2="185"
       id="line86" />
    <line
       x1="422"
       y1="245"
       x2="402"
       y2="245"
       id="line87" />
    <line
       x1="631"
       y1="385"
       x2="611"
       y2="385"
       id="line88" />
    <line
       x1="422"
       y1="265"
       x2="402"
       y2="265"
       id="line89" />
    <line
       x1="1118"
       y1="625"
       x2="1098"
       y2="625"
       id="line90" />
    <line
       x1="1223"
       y1="1185"
       x2="1203"
       y2="1185"
       id="line91" />
    <line
       x1="375"
       y1="305"
       x2="355"
       y2="305"
       id="line92" />
    <line
       x1="238"
       y1="85"
       x2="218"
       y2="85"
       id="line93" />
    <line
       x1="981"
       y1="445"
       x2="961"
       y2="445"
       id="line94" />
    <line
       x1="983"
       y1="985"
       x2="963"
       y2="985"
       id="line95" />
    <line
       x1="485"
       y1="325"
       x2="465"
       y2="325"
       id="line96" />
    <line
       x1="761"
       y1="685"
       x2="741"
       y2="685"
       id="line97" />
    <line
       x1="844"
       y1="705"
       x2="824"
       y2="705"
       id="line98" />
    <line
       x1="927"
       y1="905"
       x2="907"
       y2="905"
       id="line99" />
    <line
       x1="339"
       y1="205"
       x2="319"
       y2="205"
       id="line100" />
    <line
       x1="974"
       y1="945"
       x2="954"
       y2="945"
       id="line101" />
    <line
       x1="1140"
       y1="1125"
       x2="1120"
       y2="1125"
       id="line102" />
    <line
       x1="1140"
       y1="1145"
       x2="1120"
       y2="1145"
       id="line103" />
    <line
       x1="1010"
       y1="765"
       x2="990"
       y2="765"
       id="line104" />
    <line
       x1="1075"
       y1="1285"
       x2="1055"
       y2="1285"
       id="line105" />
    <line
       x1="321"
       y1="125"
       x2="301"
       y2="125"
       id="line106" />
    <line
       x1="990"
       y1="485"
       x2="970"
       y2="485"
       id="line107" />
    <line
       x1="339"
       y1="225"
       x2="319"
       y2="225"
       id="line108" />
    <line
       x1="1205"
       y1="1045"
       x2="1185"
       y2="1045"
       id="line109" />
    <line
       x1="1223"
       y1="1205"
       x2="1203"
       y2="1205"
       id="line110" />
    <line
       x1="1241"
       y1="1325"
       x2="1221"
       y2="1325"
       id="line111" />
    <line
       x1="1288"
       y1="1085"
       x2="1268"
       y2="1085"
       id="line112" />
    <line
       x1="927"
       y1="725"
       x2="907"
       y2="725"
       id="line113" />
    <line
       x1="1241"
       y1="1345"
       x2="1221"
       y2="1345"
       id="line114" />
    <line
       x1="761"
       y1="785"
       x2="741"
       y2="785"
       id="line115" />
    <line
       x1="1118"
       y1="645"
       x2="1098"
       y2="645"
       id="line116" />
    <line
       x1="1057"
       y1="1225"
       x2="1037"
       y2="1225"
       id="line117" />
    <line
       x1="974"
       y1="965"
       x2="954"
       y2="965"
       id="line118" />
    <line
       x1="1140"
       y1="1165"
       x2="1120"
       y2="1165"
       id="line119" />
    <line
       x1="990"
       y1="505"
       x2="970"
       y2="505"
       id="line120" />
    <line
       x1="974"
       y1="1105"
       x2="954"
       y2="1105"
       id="line121" />
    <line
       x1="1241"
       y1="1365"
       x2="1221"
       y2="1365"
       id="line122" />
    <line
       x1="256"
       y1="165"
       x2="236"
       y2="165"
       id="line123" />
    <line
       x1="927"
       y1="925"
       x2="907"
       y2="925"
       id="line124" />
    <line
       x1="927"
       y1="865"
       x2="907"
       y2="865"
       id="line125" />
    <line
       x1="1140"
       y1="1265"
       x2="1120"
       y2="1265"
       id="line126" />
    <line
       x1="1122"
       y1="1025"
       x2="1102"
       y2="1025"
       id="line127" />
    <line
       x1="238"
       y1="105"
       x2="218"
       y2="105"
       id="line128" />
    <line
       x1="321"
       y1="145"
       x2="301"
       y2="145"
       id="line129" />
    <line
       x1="568"
       y1="365"
       x2="548"
       y2="365"
       id="line130" />
    <line
       x1="1118"
       y1="605"
       x2="1098"
       y2="605"
       id="line131" />
    <line
       x1="1241"
       y1="1445"
       x2="1221"
       y2="1445"
       id="line132" />
    <line
       x1="238"
       y1="45"
       x2="218"
       y2="45"
       id="line133" />
    <line
       x1="1241"
       y1="1465"
       x2="1221"
       y2="1465"
       id="line134" />
    <line
       x1="988"
       y1="545"
       x2="968"
       y2="545"
       id="line135" />
    <line
       x1="405"
       y1="245"
       x2="405"
       y2="265"
       id="line136" />
    <line
       x1="358"
       y1="285"
       x2="358"
       y2="305"
       id="line137" />
    <line
       x1="881"
       y1="405"
       x2="881"
       y2="435"
       id="line138" />
    <line
       x1="964"
       y1="425"
       x2="964"
       y2="445"
       id="line139" />
    <line
       x1="1123"
       y1="1125"
       x2="1123"
       y2="1145"
       id="line140" />
    <line
       x1="993"
       y1="745"
       x2="993"
       y2="765"
       id="line141" />
    <line
       x1="322"
       y1="185"
       x2="322"
       y2="255"
       id="line142" />
    <line
       x1="1206"
       y1="1185"
       x2="1206"
       y2="1205"
       id="line143" />
    <line
       x1="1188"
       y1="1045"
       x2="1188"
       y2="1075"
       id="line144" />
    <line
       x1="1271"
       y1="1065"
       x2="1271"
       y2="1085"
       id="line145" />
    <line
       x1="661"
       y1="665"
       x2="661"
       y2="703"
       id="line146" />
    <line
       x1="744"
       y1="685"
       x2="744"
       y2="722"
       id="line147" />
    <line
       x1="827"
       y1="705"
       x2="827"
       y2="740"
       id="line148" />
    <line
       x1="910"
       y1="725"
       x2="910"
       y2="755"
       id="line149" />
    <line
       x1="1101"
       y1="625"
       x2="1101"
       y2="645"
       id="line150" />
    <line
       x1="957"
       y1="945"
       x2="957"
       y2="965"
       id="line151" />
    <line
       x1="1040"
       y1="1135"
       x2="1040"
       y2="1180"
       id="line152" />
    <line
       x1="1123"
       y1="1165"
       x2="1123"
       y2="1195"
       id="line153" />
    <line
       x1="816"
       y1="420"
       x2="816"
       y2="480"
       id="line154" />
    <line
       x1="890"
       y1="465"
       x2="890"
       y2="495"
       id="line155" />
    <line
       x1="973"
       y1="485"
       x2="973"
       y2="505"
       id="line156" />
    <line
       x1="957"
       y1="1105"
       x2="957"
       y2="1157"
       id="line157" />
    <line
       x1="1224"
       y1="1305"
       x2="1224"
       y2="1365"
       id="line158" />
    <line
       x1="239"
       y1="165"
       x2="239"
       y2="220"
       id="line159" />
    <line
       x1="827"
       y1="885"
       x2="827"
       y2="915"
       id="line160" />
    <line
       x1="910"
       y1="905"
       x2="910"
       y2="925"
       id="line161" />
    <line
       x1="744"
       y1="785"
       x2="744"
       y2="825"
       id="line162" />
    <line
       x1="827"
       y1="805"
       x2="827"
       y2="845"
       id="line163" />
    <line
       x1="910"
       y1="825"
       x2="910"
       y2="865"
       id="line164" />
    <line
       x1="1040"
       y1="1225"
       x2="1040"
       y2="1255"
       id="line165" />
    <line
       x1="1123"
       y1="1245"
       x2="1123"
       y2="1265"
       id="line166" />
    <line
       x1="874"
       y1="955"
       x2="874"
       y2="1004"
       id="line167" />
    <line
       x1="966"
       y1="985"
       x2="966"
       y2="1023"
       id="line168" />
    <line
       x1="1022"
       y1="1005"
       x2="1022"
       y2="1042"
       id="line169" />
    <line
       x1="1105"
       y1="1025"
       x2="1105"
       y2="1060"
       id="line170" />
    <line
       x1="221"
       y1="65"
       x2="221"
       y2="135"
       id="line171" />
    <line
       x1="304"
       y1="125"
       x2="304"
       y2="145"
       id="line172" />
    <line
       x1="468"
       y1="325"
       x2="468"
       y2="355"
       id="line173" />
    <line
       x1="551"
       y1="345"
       x2="551"
       y2="365"
       id="line174" />
    <line
       x1="935"
       y1="565"
       x2="935"
       y2="615"
       id="line175" />
    <line
       x1="1018"
       y1="595"
       x2="1018"
       y2="635"
       id="line176" />
    <line
       x1="1101"
       y1="585"
       x2="1101"
       y2="605"
       id="line177" />
    <line
       x1="120"
       y1="35"
       x2="120"
       y2="100"
       id="line178" />
    <line
       x1="221"
       y1="25"
       x2="221"
       y2="45"
       id="line179" />
    <line
       x1="578"
       y1="684"
       x2="578"
       y2="900"
       id="line180" />
    <line
       x1="661"
       y1="805"
       x2="661"
       y2="996"
       id="line181" />
    <line
       x1="744"
       y1="900"
       x2="744"
       y2="1093"
       id="line182" />
    <line
       x1="827"
       y1="979"
       x2="827"
       y2="1208"
       id="line183" />
    <line
       x1="874"
       y1="1131"
       x2="874"
       y2="1286"
       id="line184" />
    <line
       x1="957"
       y1="1240"
       x2="957"
       y2="1332"
       id="line185" />
    <line
       x1="1058"
       y1="1285"
       x2="1058"
       y2="1380"
       id="line186" />
    <line
       x1="1141"
       y1="1335"
       x2="1141"
       y2="1425"
       id="line187" />
    <line
       x1="1224"
       y1="1385"
       x2="1224"
       y2="1465"
       id="line188" />
    <line
       x1="138"
       y1="192"
       x2="138"
       y2="387"
       id="line189" />
    <line
       x1="257"
       y1="295"
       x2="257"
       y2="479"
       id="line190" />
    <line
       x1="376"
       y1="340"
       x2="376"
       y2="618"
       id="line191" />
    <line
       x1="495"
       y1="445"
       x2="495"
       y2="792"
       id="line192" />
    <line
       x1="614"
       y1="385"
       x2="614"
       y2="506"
       id="line193" />
    <line
       x1="733"
       y1="450"
       x2="733"
       y2="562"
       id="line194" />
    <line
       x1="852"
       y1="535"
       x2="852"
       y2="590"
       id="line195" />
    <line
       x1="971"
       y1="525"
       x2="971"
       y2="545"
       id="line196" />
    <line
       x1="19"
       y1="67"
       x2="19"
       y2="289"
       id="line197" />
    <defs
       id="defs197">
      <filter
         x="-0.011839519"
         y="-0.036702509"
         width="1.023679"
         height="1.073405"
         id="solid">
        <feFlood
           flood-color="white"
           id="feFlood197" />
        <feComposite
           in="SourceGraphic"
           id="feComposite197" />
      </filter>
    </defs>
    <text
       x="688"
       y="668"
       stroke-width="1"
       id="text197">4864_nova</text>
    <text
       x="908"
       y="408"
       stroke-width="1"
       id="text198">4752_nova</text>
    <text
       x="1298"
       y="1068"
       stroke-width="1"
       id="text199">3902_nova</text>
    <text
       x="854"
       y="808"
       stroke-width="1"
       id="text200">4394_nova</text>
    <text
       x="1251"
       y="1388"
       stroke-width="1"
       id="text201">4365_mitc</text>
    <text
       x="991"
       y="428"
       stroke-width="1"
       id="text202">4383_nova</text>
    <text
       x="1049"
       y="1008"
       stroke-width="1"
       id="text203">4375_nova</text>
    <text
       x="578"
       y="348"
       stroke-width="1"
       id="text204">4756_nova</text>
    <text
       x="1251"
       y="1408"
       stroke-width="1"
       id="text205">4368_mitc</text>
    <text
       x="1251"
       y="1428"
       stroke-width="1"
       id="text206">4369_mitc</text>
    <text
       x="248"
       y="68"
       stroke-width="1"
       id="text207">4377_sp_MtKap</text>
    <text
       x="385"
       y="288"
       stroke-width="1"
       id="text208">4863_nova</text>
    <text
       x="1020"
       y="748"
       stroke-width="1"
       id="text209">4372_nova</text>
    <text
       x="937"
       y="828"
       stroke-width="1"
       id="text210">4860_nova</text>
    <text
       x="962"
       y="568"
       stroke-width="1"
       id="text211">4384_nova</text>
    <text
       x="1150"
       y="1248"
       stroke-width="1"
       id="text212">4884_sp_Gibr</text>
    <text
       x="1128"
       y="588"
       stroke-width="1"
       id="text213">4828_nova</text>
    <text
       x="937"
       y="848"
       stroke-width="1"
       id="text214">4751_nova</text>
    <text
       x="1251"
       y="1308"
       stroke-width="1"
       id="text215">4362_mitc</text>
    <text
       x="248"
       y="28"
       stroke-width="1"
       id="text216">4376_sp_Coola</text>
    <text
       x="998"
       y="528"
       stroke-width="1"
       id="text217">4754_nova</text>
    <text
       x="854"
       y="888"
       stroke-width="1"
       id="text218">4397_nova</text>
    <text
       x="917"
       y="468"
       stroke-width="1"
       id="text219">4374_nova</text>
    <text
       x="349"
       y="188"
       stroke-width="1"
       id="text220">4873_darl</text>
    <text
       x="432"
       y="248"
       stroke-width="1"
       id="text221">4886_rich</text>
    <text
       x="641"
       y="388"
       stroke-width="1"
       id="text222">4400_nova</text>
    <text
       x="432"
       y="268"
       stroke-width="1"
       id="text223">4876_rich</text>
    <text
       x="1128"
       y="628"
       stroke-width="1"
       id="text224">4827_nova</text>
    <text
       x="1233"
       y="1188"
       stroke-width="1"
       id="text225">4749_nova</text>
    <text
       x="385"
       y="308"
       stroke-width="1"
       id="text226">4378_nova</text>
    <text
       x="248"
       y="88"
       stroke-width="1"
       id="text227">4854_sp_MtKap</text>
    <text
       x="991"
       y="448"
       stroke-width="1"
       id="text228">4395_nova</text>
    <text
       x="993"
       y="988"
       stroke-width="1"
       id="text229">4370_nova</text>
    <text
       x="495"
       y="328"
       stroke-width="1"
       id="text230">4371_nova</text>
    <text
       x="771"
       y="688"
       stroke-width="1"
       id="text231">4861_sp_MtBoss</text>
    <text
       x="854"
       y="708"
       stroke-width="1"
       id="text232">4862_sp_MtBoss</text>
    <text
       x="937"
       y="908"
       stroke-width="1"
       id="text233">4387_nova</text>
    <text
       x="349"
       y="208"
       stroke-width="1"
       id="text234">4874_darl</text>
    <text
       x="984"
       y="948"
       stroke-width="1"
       id="text235">4750_nova</text>
    <text
       x="1150"
       y="1128"
       stroke-width="1"
       id="text236">4856_nova</text>
    <text
       x="1150"
       y="1148"
       stroke-width="1"
       id="text237">4858_nova</text>
    <text
       x="1020"
       y="768"
       stroke-width="1"
       id="text238">4401_nova</text>
    <text
       x="1085"
       y="1288"
       stroke-width="1"
       id="text239">4367_mitc</text>
    <text
       x="331"
       y="128"
       stroke-width="1"
       id="text240">4380_sp_MtKap</text>
    <text
       x="1000"
       y="488"
       stroke-width="1"
       id="text241">4389_nova</text>
    <text
       x="349"
       y="228"
       stroke-width="1"
       id="text242">4872_darl</text>
    <text
       x="1215"
       y="1048"
       stroke-width="1"
       id="text243">4393_nova</text>
    <text
       x="1233"
       y="1208"
       stroke-width="1"
       id="text244">4857_nova</text>
    <text
       x="1251"
       y="1328"
       stroke-width="1"
       id="text245">4361_mitc</text>
    <text
       x="1298"
       y="1088"
       stroke-width="1"
       id="text246">4390_nova</text>
    <text
       x="937"
       y="728"
       stroke-width="1"
       id="text247">4399_nova</text>
    <text
       x="1251"
       y="1348"
       stroke-width="1"
       id="text248">4360_mitc</text>
    <text
       x="771"
       y="788"
       stroke-width="1"
       id="text249">4398_nova</text>
    <text
       x="1128"
       y="648"
       stroke-width="1"
       id="text250">4859_nova</text>
    <text
       x="1067"
       y="1228"
       stroke-width="1"
       id="text251">4880_sp_Gibr</text>
    <text
       x="984"
       y="968"
       stroke-width="1"
       id="text252">4385_nova</text>
    <text
       x="1150"
       y="1168"
       stroke-width="1"
       id="text253">4855_nova</text>
    <text
       x="1000"
       y="508"
       stroke-width="1"
       id="text254">4753_nova</text>
    <text
       x="984"
       y="1108"
       stroke-width="1"
       id="text255">4392_nova</text>
    <text
       x="1251"
       y="1368"
       stroke-width="1"
       id="text256">4363_mitc</text>
    <text
       x="266"
       y="168"
       stroke-width="1"
       id="text257">4381_rich</text>
    <text
       x="937"
       y="928"
       stroke-width="1"
       id="text258">4391_nova</text>
    <text
       x="937"
       y="868"
       stroke-width="1"
       id="text259">4382_nova</text>
    <text
       x="1150"
       y="1268"
       stroke-width="1"
       id="text260">4881_sp_Gibr</text>
    <text
       x="1132"
       y="1028"
       stroke-width="1"
       id="text261">4373_nova</text>
    <text
       x="248"
       y="108"
       stroke-width="1"
       id="text262">4868_sp_MtKap</text>
    <text
       x="331"
       y="148"
       stroke-width="1"
       id="text263">4853_sp_MtKap</text>
    <text
       x="578"
       y="368"
       stroke-width="1"
       id="text264">4755_nova</text>
    <text
       x="1128"
       y="608"
       stroke-width="1"
       id="text265">4829_nova</text>
    <text
       x="1251"
       y="1448"
       stroke-width="1"
       id="text266">4364_mitc</text>
    <text
       x="248"
       y="48"
       stroke-width="1"
       id="text267">4379_nova</text>
    <text
       x="1251"
       y="1468"
       stroke-width="1"
       id="text268">4366_mitc</text>
    <text
       x="998"
       y="548"
       stroke-width="1"
       id="text269">4388_nova</text>
  </g>
  <g
     stroke-width="7"
     stroke="black"
     font-family="Verdana"
     font-style="regular"
     font-size="15"
     id="g330">
    <text
       filter="url(#solid)"
       x="329"
       y="247"
       stroke-width="1"
       id="text270">59/55</text>
    <text
       filter="url(#solid)"
       x="264"
       y="287"
       stroke-width="1"
       id="text271">100/100</text>
    <text
       filter="url(#solid)"
       x="888"
       y="427"
       stroke-width="1"
       id="text273">51/43</text>
    <text
       filter="url(#solid)"
       x="246"
       y="212"
       stroke-width="1"
       id="text276">67/55</text>
    <text
       filter="url(#solid)"
       x="1112"
       y="1052"
       stroke-width="1"
       id="text278">88/90</text>
    <text
       filter="url(#solid)"
       x="1195"
       y="1067"
       stroke-width="1"
       id="text279">63/67</text>
    <text
       filter="url(#solid)"
       x="668"
       y="695"
       stroke-width="1"
       id="text281">70/61</text>
    <text
       filter="url(#solid)"
       x="751"
       y="714"
       stroke-width="1"
       id="text282">61/62</text>
    <text
       filter="url(#solid)"
       x="834"
       y="732"
       stroke-width="1"
       id="text283">87/84</text>
    <text
       filter="url(#solid)"
       x="1025"
       y="627"
       stroke-width="1"
       id="text284">97/97</text>
    <text
       filter="url(#solid)"
       x="881"
       y="947"
       stroke-width="1"
       id="text285">80/80</text>
    <text
       filter="url(#solid)"
       x="881"
       y="1123"
       stroke-width="1"
       id="text291">96/94</text>
    <text
       filter="url(#solid)"
       x="145"
       y="184"
       stroke-width="1"
       id="text293">100/100</text>
    <text
       filter="url(#solid)"
       x="751"
       y="892"
       stroke-width="1"
       id="text294">93/89</text>
    <text
       filter="url(#solid)"
       x="834"
       y="907"
       stroke-width="1"
       id="text295">67/61</text>
    <text
       filter="url(#solid)"
       x="668"
       y="797"
       stroke-width="1"
       id="text296">52/52</text>
    <text
       filter="url(#solid)"
       x="751"
       y="817"
       stroke-width="1"
       id="text297">59/53</text>
    <text
       filter="url(#solid)"
       x="834"
       y="837"
       stroke-width="1"
       id="text298">67/72</text>
    <text
       filter="url(#solid)"
       x="964"
       y="1232"
       stroke-width="1"
       id="text299">99/99</text>
    <text
       filter="url(#solid)"
       x="1047"
       y="1247"
       stroke-width="1"
       id="text300">51/54</text>
    <text
       filter="url(#solid)"
       x="1029"
       y="1034"
       stroke-width="1"
       id="text304">62/66</text>
    <text
       filter="url(#solid)"
       x="127"
       y="92"
       stroke-width="1"
       id="text305">100/100</text>
    <text
       filter="url(#solid)"
       x="228"
       y="127"
       stroke-width="1"
       id="text306">63/66</text>
    <text
       filter="url(#solid)"
       x="383"
       y="332"
       stroke-width="1"
       id="text307">100/99</text>
    <text
       filter="url(#solid)"
       x="859"
       y="582"
       stroke-width="1"
       id="text309">78/73</text>
    <text
       filter="url(#solid)"
       x="1025"
       y="587"
       stroke-width="1"
       id="text311">86/85</text>
    <text
       filter="url(#solid)"
       x="26"
       y="59"
       stroke-width="1"
       id="text312">100/100</text>
    <text
       filter="url(#solid)"
       x="127"
       y="27"
       stroke-width="1"
       id="text313">100/100</text>
    <text
       filter="url(#solid)"
       x="502"
       y="784"
       stroke-width="1"
       id="text314">58/52</text>
    <text
       filter="url(#solid)"
       x="964"
       y="1324"
       stroke-width="1"
       id="text320">100/100</text>
    <text
       filter="url(#solid)"
       x="1065"
       y="1372"
       stroke-width="1"
       id="text321">59/60</text>
    <text
       filter="url(#solid)"
       x="1148"
       y="1417"
       stroke-width="1"
       id="text322">66/71</text>
    <text
       filter="url(#solid)"
       x="26"
       y="281"
       stroke-width="1"
       id="text323">100/100</text>
    <text
       filter="url(#solid)"
       x="145"
       y="379"
       stroke-width="1"
       id="text324">95/89</text>
    <text
       filter="url(#solid)"
       x="264"
       y="471"
       stroke-width="1"
       id="text325">99/99</text>
    <text
       filter="url(#solid)"
       x="502"
       y="437"
       stroke-width="1"
       id="text327">66/66</text>
    <text
       filter="url(#solid)"
       x="740"
       y="554"
       stroke-width="1"
       id="text329">97/95</text>
    <text
       filter="url(#solid)"
       x="859"
       y="527"
       stroke-width="1"
       id="text330">99/99</text>
  </g>
</svg>
