<?xml version="1.0" encoding="utf-8" standalone="no"?>
<!DOCTYPE svg PUBLIC "-//W3C//DTD SVG 1.1//EN"
  "http://www.w3.org/Graphics/SVG/1.1/DTD/svg11.dtd">
<svg xmlns:xlink="http://www.w3.org/1999/xlink" width="576pt" height="432pt" viewBox="0 0 576 432" xmlns="http://www.w3.org/2000/svg" version="1.1">
 <metadata>
  <rdf:RDF xmlns:dc="http://purl.org/dc/elements/1.1/" xmlns:cc="http://creativecommons.org/ns#" xmlns:rdf="http://www.w3.org/1999/02/22-rdf-syntax-ns#">
   <cc:Work>
    <dc:type rdf:resource="http://purl.org/dc/dcmitype/StillImage"/>
    <dc:date>2025-03-13T21:31:00.581150</dc:date>
    <dc:format>image/svg+xml</dc:format>
    <dc:creator>
     <cc:Agent>
      <dc:title>Matplotlib v3.10.0, https://matplotlib.org/</dc:title>
     </cc:Agent>
    </dc:creator>
   </cc:Work>
  </rdf:RDF>
 </metadata>
 <defs>
  <style type="text/css">*{stroke-linejoin: round; stroke-linecap: butt}</style>
 </defs>
 <g id="figure_1">
  <g id="patch_1">
   <path d="M 0 432 
L 576 432 
L 576 0 
L 0 0 
z
" style="fill: #ffffff"/>
  </g>
  <g id="axes_1">
   <g id="patch_2">
    <path d="M 72 384.48 
L 518.4 384.48 
L 518.4 51.84 
L 72 51.84 
z
" style="fill: #ffffff"/>
   </g>
   <g id="PathCollection_1">
    <defs>
     <path id="C0_0_bc7b0f77bd" d="M 0 5 
C 1.326016 5 2.597899 4.473168 3.535534 3.535534 
C 4.473168 2.597899 5 1.326016 5 -0 
C 5 -1.326016 4.473168 -2.597899 3.535534 -3.535534 
C 2.597899 -4.473168 1.326016 -5 0 -5 
C -1.326016 -5 -2.597899 -4.473168 -3.535534 -3.535534 
C -4.473168 -2.597899 -5 -1.326016 -5 0 
C -5 1.326016 -4.473168 2.597899 -3.535534 3.535534 
C -2.597899 4.473168 -1.326016 5 0 5 
z
"/>
    </defs>
    <g clip-path="url(#pbf411a2a82)">
     <use xlink:href="#C0_0_bc7b0f77bd" x="373.934884" y="228.932012" style="fill: #ff7f0e; stroke: #ffffff; stroke-width: 0.8"/>
    </g>
    <g clip-path="url(#pbf411a2a82)">
     <use xlink:href="#C0_0_bc7b0f77bd" x="416.624474" y="178.822378" style="fill: #ff7f0e; stroke: #ffffff; stroke-width: 0.8"/>
    </g>
    <g clip-path="url(#pbf411a2a82)">
     <use xlink:href="#C0_0_bc7b0f77bd" x="360.715379" y="216.20414" style="fill: #ff7f0e; stroke: #ffffff; stroke-width: 0.8"/>
    </g>
    <g clip-path="url(#pbf411a2a82)">
     <use xlink:href="#C0_0_bc7b0f77bd" x="395.415609" y="216.344192" style="fill: #ff7f0e; stroke: #ffffff; stroke-width: 0.8"/>
    </g>
    <g clip-path="url(#pbf411a2a82)">
     <use xlink:href="#C0_0_bc7b0f77bd" x="125.283828" y="296.259466" style="fill: #1f77b4; stroke: #ffffff; stroke-width: 0.8"/>
    </g>
    <g clip-path="url(#pbf411a2a82)">
     <use xlink:href="#C0_0_bc7b0f77bd" x="375.154283" y="211.819067" style="fill: #ff7f0e; stroke: #ffffff; stroke-width: 0.8"/>
    </g>
    <g clip-path="url(#pbf411a2a82)">
     <use xlink:href="#C0_0_bc7b0f77bd" x="281.987052" y="110.587867" style="fill: #1f77b4; stroke: #ffffff; stroke-width: 0.8"/>
    </g>
    <g clip-path="url(#pbf411a2a82)">
     <use xlink:href="#C0_0_bc7b0f77bd" x="422.01912" y="120.246142" style="fill: #ff7f0e; stroke: #ffffff; stroke-width: 0.8"/>
    </g>
    <g clip-path="url(#pbf411a2a82)">
     <use xlink:href="#C0_0_bc7b0f77bd" x="367.771137" y="214.562774" style="fill: #ff7f0e; stroke: #ffffff; stroke-width: 0.8"/>
    </g>
    <g clip-path="url(#pbf411a2a82)">
     <use xlink:href="#C0_0_bc7b0f77bd" x="423.461278" y="183.012078" style="fill: #ff7f0e; stroke: #ffffff; stroke-width: 0.8"/>
    </g>
    <g clip-path="url(#pbf411a2a82)">
     <use xlink:href="#C0_0_bc7b0f77bd" x="336.715531" y="236.091327" style="fill: #ff7f0e; stroke: #ffffff; stroke-width: 0.8"/>
    </g>
    <g clip-path="url(#pbf411a2a82)">
     <use xlink:href="#C0_0_bc7b0f77bd" x="368.318634" y="190.001341" style="fill: #ff7f0e; stroke: #ffffff; stroke-width: 0.8"/>
    </g>
    <g clip-path="url(#pbf411a2a82)">
     <use xlink:href="#C0_0_bc7b0f77bd" x="276.789862" y="66.96" style="fill: #1f77b4; stroke: #ffffff; stroke-width: 0.8"/>
    </g>
    <g clip-path="url(#pbf411a2a82)">
     <use xlink:href="#C0_0_bc7b0f77bd" x="289.30949" y="154.682101" style="fill: #1f77b4; stroke: #ffffff; stroke-width: 0.8"/>
    </g>
    <g clip-path="url(#pbf411a2a82)">
     <use xlink:href="#C0_0_bc7b0f77bd" x="406.409278" y="181.72031" style="fill: #ff7f0e; stroke: #ffffff; stroke-width: 0.8"/>
    </g>
    <g clip-path="url(#pbf411a2a82)">
     <use xlink:href="#C0_0_bc7b0f77bd" x="141.982709" y="137.982291" style="fill: #1f77b4; stroke: #ffffff; stroke-width: 0.8"/>
    </g>
    <g clip-path="url(#pbf411a2a82)">
     <use xlink:href="#C0_0_bc7b0f77bd" x="426.133907" y="168.904215" style="fill: #ff7f0e; stroke: #ffffff; stroke-width: 0.8"/>
    </g>
    <g clip-path="url(#pbf411a2a82)">
     <use xlink:href="#C0_0_bc7b0f77bd" x="349.790513" y="168.2899" style="fill: #ff7f0e; stroke: #ffffff; stroke-width: 0.8"/>
    </g>
    <g clip-path="url(#pbf411a2a82)">
     <use xlink:href="#C0_0_bc7b0f77bd" x="360.806653" y="189.096105" style="fill: #ff7f0e; stroke: #ffffff; stroke-width: 0.8"/>
    </g>
    <g clip-path="url(#pbf411a2a82)">
     <use xlink:href="#C0_0_bc7b0f77bd" x="451.086019" y="186.393445" style="fill: #ff7f0e; stroke: #ffffff; stroke-width: 0.8"/>
    </g>
    <g clip-path="url(#pbf411a2a82)">
     <use xlink:href="#C0_0_bc7b0f77bd" x="142.323852" y="263.500638" style="fill: #1f77b4; stroke: #ffffff; stroke-width: 0.8"/>
    </g>
    <g clip-path="url(#pbf411a2a82)">
     <use xlink:href="#C0_0_bc7b0f77bd" x="357.265262" y="164.512503" style="fill: #ff7f0e; stroke: #ffffff; stroke-width: 0.8"/>
    </g>
    <g clip-path="url(#pbf411a2a82)">
     <use xlink:href="#C0_0_bc7b0f77bd" x="329.441721" y="193.620525" style="fill: #ff7f0e; stroke: #ffffff; stroke-width: 0.8"/>
    </g>
    <g clip-path="url(#pbf411a2a82)">
     <use xlink:href="#C0_0_bc7b0f77bd" x="356.423707" y="205.043306" style="fill: #ff7f0e; stroke: #ffffff; stroke-width: 0.8"/>
    </g>
    <g clip-path="url(#pbf411a2a82)">
     <use xlink:href="#C0_0_bc7b0f77bd" x="437.027085" y="191.412689" style="fill: #ff7f0e; stroke: #ffffff; stroke-width: 0.8"/>
    </g>
    <g clip-path="url(#pbf411a2a82)">
     <use xlink:href="#C0_0_bc7b0f77bd" x="194.502485" y="115.550696" style="fill: #1f77b4; stroke: #ffffff; stroke-width: 0.8"/>
    </g>
    <g clip-path="url(#pbf411a2a82)">
     <use xlink:href="#C0_0_bc7b0f77bd" x="404.058078" y="171.490537" style="fill: #ff7f0e; stroke: #ffffff; stroke-width: 0.8"/>
    </g>
    <g clip-path="url(#pbf411a2a82)">
     <use xlink:href="#C0_0_bc7b0f77bd" x="402.108952" y="215.15087" style="fill: #ff7f0e; stroke: #ffffff; stroke-width: 0.8"/>
    </g>
    <g clip-path="url(#pbf411a2a82)">
     <use xlink:href="#C0_0_bc7b0f77bd" x="406.508446" y="124.924726" style="fill: #ff7f0e; stroke: #ffffff; stroke-width: 0.8"/>
    </g>
    <g clip-path="url(#pbf411a2a82)">
     <use xlink:href="#C0_0_bc7b0f77bd" x="163.997941" y="260.041978" style="fill: #1f77b4; stroke: #ffffff; stroke-width: 0.8"/>
    </g>
    <g clip-path="url(#pbf411a2a82)">
     <use xlink:href="#C0_0_bc7b0f77bd" x="242.810506" y="155.375441" style="fill: #1f77b4; stroke: #ffffff; stroke-width: 0.8"/>
    </g>
    <g clip-path="url(#pbf411a2a82)">
     <use xlink:href="#C0_0_bc7b0f77bd" x="370.487731" y="262.204655" style="fill: #ff7f0e; stroke: #ffffff; stroke-width: 0.8"/>
    </g>
    <g clip-path="url(#pbf411a2a82)">
     <use xlink:href="#C0_0_bc7b0f77bd" x="359.249546" y="192.756055" style="fill: #ff7f0e; stroke: #ffffff; stroke-width: 0.8"/>
    </g>
    <g clip-path="url(#pbf411a2a82)">
     <use xlink:href="#C0_0_bc7b0f77bd" x="317.410682" y="254.101596" style="fill: #ff7f0e; stroke: #ffffff; stroke-width: 0.8"/>
    </g>
    <g clip-path="url(#pbf411a2a82)">
     <use xlink:href="#C0_0_bc7b0f77bd" x="392.903785" y="203.600563" style="fill: #ff7f0e; stroke: #ffffff; stroke-width: 0.8"/>
    </g>
    <g clip-path="url(#pbf411a2a82)">
     <use xlink:href="#C0_0_bc7b0f77bd" x="252.487041" y="159.697021" style="fill: #1f77b4; stroke: #ffffff; stroke-width: 0.8"/>
    </g>
    <g clip-path="url(#pbf411a2a82)">
     <use xlink:href="#C0_0_bc7b0f77bd" x="352.116914" y="210.05084" style="fill: #ff7f0e; stroke: #ffffff; stroke-width: 0.8"/>
    </g>
    <g clip-path="url(#pbf411a2a82)">
     <use xlink:href="#C0_0_bc7b0f77bd" x="380.695273" y="219.910129" style="fill: #ff7f0e; stroke: #ffffff; stroke-width: 0.8"/>
    </g>
    <g clip-path="url(#pbf411a2a82)">
     <use xlink:href="#C0_0_bc7b0f77bd" x="428.294189" y="156.441352" style="fill: #ff7f0e; stroke: #ffffff; stroke-width: 0.8"/>
    </g>
    <g clip-path="url(#pbf411a2a82)">
     <use xlink:href="#C0_0_bc7b0f77bd" x="348.45353" y="205.863468" style="fill: #ff7f0e; stroke: #ffffff; stroke-width: 0.8"/>
    </g>
    <g clip-path="url(#pbf411a2a82)">
     <use xlink:href="#C0_0_bc7b0f77bd" x="362.694852" y="229.67366" style="fill: #ff7f0e; stroke: #ffffff; stroke-width: 0.8"/>
    </g>
    <g clip-path="url(#pbf411a2a82)">
     <use xlink:href="#C0_0_bc7b0f77bd" x="268.809689" y="281.852297" style="fill: #1f77b4; stroke: #ffffff; stroke-width: 0.8"/>
    </g>
    <g clip-path="url(#pbf411a2a82)">
     <use xlink:href="#C0_0_bc7b0f77bd" x="303.265646" y="232.364398" style="fill: #ff7f0e; stroke: #ffffff; stroke-width: 0.8"/>
    </g>
    <g clip-path="url(#pbf411a2a82)">
     <use xlink:href="#C0_0_bc7b0f77bd" x="463.470634" y="132.173127" style="fill: #ff7f0e; stroke: #ffffff; stroke-width: 0.8"/>
    </g>
    <g clip-path="url(#pbf411a2a82)">
     <use xlink:href="#C0_0_bc7b0f77bd" x="195.064964" y="83.172196" style="fill: #1f77b4; stroke: #ffffff; stroke-width: 0.8"/>
    </g>
    <g clip-path="url(#pbf411a2a82)">
     <use xlink:href="#C0_0_bc7b0f77bd" x="333.550385" y="200.101773" style="fill: #ff7f0e; stroke: #ffffff; stroke-width: 0.8"/>
    </g>
    <g clip-path="url(#pbf411a2a82)">
     <use xlink:href="#C0_0_bc7b0f77bd" x="361.948175" y="190.516523" style="fill: #ff7f0e; stroke: #ffffff; stroke-width: 0.8"/>
    </g>
    <g clip-path="url(#pbf411a2a82)">
     <use xlink:href="#C0_0_bc7b0f77bd" x="328.219448" y="210.768819" style="fill: #ff7f0e; stroke: #ffffff; stroke-width: 0.8"/>
    </g>
    <g clip-path="url(#pbf411a2a82)">
     <use xlink:href="#C0_0_bc7b0f77bd" x="352.346326" y="245.324412" style="fill: #ff7f0e; stroke: #ffffff; stroke-width: 0.8"/>
    </g>
    <g clip-path="url(#pbf411a2a82)">
     <use xlink:href="#C0_0_bc7b0f77bd" x="440.960651" y="191.240064" style="fill: #ff7f0e; stroke: #ffffff; stroke-width: 0.8"/>
    </g>
    <g clip-path="url(#pbf411a2a82)">
     <use xlink:href="#C0_0_bc7b0f77bd" x="322.047325" y="214.35826" style="fill: #ff7f0e; stroke: #ffffff; stroke-width: 0.8"/>
    </g>
    <g clip-path="url(#pbf411a2a82)">
     <use xlink:href="#C0_0_bc7b0f77bd" x="382.779701" y="218.445029" style="fill: #ff7f0e; stroke: #ffffff; stroke-width: 0.8"/>
    </g>
    <g clip-path="url(#pbf411a2a82)">
     <use xlink:href="#C0_0_bc7b0f77bd" x="264.252721" y="197.2332" style="fill: #1f77b4; stroke: #ffffff; stroke-width: 0.8"/>
    </g>
    <g clip-path="url(#pbf411a2a82)">
     <use xlink:href="#C0_0_bc7b0f77bd" x="397.023242" y="207.661662" style="fill: #ff7f0e; stroke: #ffffff; stroke-width: 0.8"/>
    </g>
    <g clip-path="url(#pbf411a2a82)">
     <use xlink:href="#C0_0_bc7b0f77bd" x="319.944442" y="369.36" style="fill: #ff7f0e; stroke: #ffffff; stroke-width: 0.8"/>
    </g>
    <g clip-path="url(#pbf411a2a82)">
     <use xlink:href="#C0_0_bc7b0f77bd" x="348.056729" y="319.364963" style="fill: #ff7f0e; stroke: #ffffff; stroke-width: 0.8"/>
    </g>
    <g clip-path="url(#pbf411a2a82)">
     <use xlink:href="#C0_0_bc7b0f77bd" x="397.569105" y="243.527839" style="fill: #ff7f0e; stroke: #ffffff; stroke-width: 0.8"/>
    </g>
    <g clip-path="url(#pbf411a2a82)">
     <use xlink:href="#C0_0_bc7b0f77bd" x="498.109091" y="116.097224" style="fill: #ff7f0e; stroke: #ffffff; stroke-width: 0.8"/>
    </g>
    <g clip-path="url(#pbf411a2a82)">
     <use xlink:href="#C0_0_bc7b0f77bd" x="257.59041" y="100.138009" style="fill: #1f77b4; stroke: #ffffff; stroke-width: 0.8"/>
    </g>
    <g clip-path="url(#pbf411a2a82)">
     <use xlink:href="#C0_0_bc7b0f77bd" x="391.571158" y="161.592834" style="fill: #ff7f0e; stroke: #ffffff; stroke-width: 0.8"/>
    </g>
    <g clip-path="url(#pbf411a2a82)">
     <use xlink:href="#C0_0_bc7b0f77bd" x="380.249142" y="195.410917" style="fill: #ff7f0e; stroke: #ffffff; stroke-width: 0.8"/>
    </g>
    <g clip-path="url(#pbf411a2a82)">
     <use xlink:href="#C0_0_bc7b0f77bd" x="92.290909" y="117.66678" style="fill: #1f77b4; stroke: #ffffff; stroke-width: 0.8"/>
    </g>
    <g clip-path="url(#pbf411a2a82)">
     <use xlink:href="#C0_0_bc7b0f77bd" x="395.461935" y="143.044608" style="fill: #ff7f0e; stroke: #ffffff; stroke-width: 0.8"/>
    </g>
    <g clip-path="url(#pbf411a2a82)">
     <use xlink:href="#C0_0_bc7b0f77bd" x="336.358012" y="237.151417" style="fill: #ff7f0e; stroke: #ffffff; stroke-width: 0.8"/>
    </g>
    <g clip-path="url(#pbf411a2a82)">
     <use xlink:href="#C0_0_bc7b0f77bd" x="311.330408" y="220.001613" style="fill: #ff7f0e; stroke: #ffffff; stroke-width: 0.8"/>
    </g>
    <g clip-path="url(#pbf411a2a82)">
     <use xlink:href="#C0_0_bc7b0f77bd" x="424.64059" y="199.120449" style="fill: #ff7f0e; stroke: #ffffff; stroke-width: 0.8"/>
    </g>
    <g clip-path="url(#pbf411a2a82)">
     <use xlink:href="#C0_0_bc7b0f77bd" x="447.534357" y="206.601105" style="fill: #ff7f0e; stroke: #ffffff; stroke-width: 0.8"/>
    </g>
    <g clip-path="url(#pbf411a2a82)">
     <use xlink:href="#C0_0_bc7b0f77bd" x="178.755227" y="166.097511" style="fill: #1f77b4; stroke: #ffffff; stroke-width: 0.8"/>
    </g>
    <g clip-path="url(#pbf411a2a82)">
     <use xlink:href="#C0_0_bc7b0f77bd" x="392.454884" y="189.62532" style="fill: #ff7f0e; stroke: #ffffff; stroke-width: 0.8"/>
    </g>
    <g clip-path="url(#pbf411a2a82)">
     <use xlink:href="#C0_0_bc7b0f77bd" x="347.896592" y="195.017038" style="fill: #ff7f0e; stroke: #ffffff; stroke-width: 0.8"/>
    </g>
    <g clip-path="url(#pbf411a2a82)">
     <use xlink:href="#C0_0_bc7b0f77bd" x="386.777479" y="243.358858" style="fill: #ff7f0e; stroke: #ffffff; stroke-width: 0.8"/>
    </g>
    <g clip-path="url(#pbf411a2a82)">
     <use xlink:href="#C0_0_bc7b0f77bd" x="218.936913" y="196.333353" style="fill: #1f77b4; stroke: #ffffff; stroke-width: 0.8"/>
    </g>
    <g clip-path="url(#pbf411a2a82)">
     <use xlink:href="#C0_0_bc7b0f77bd" x="401.331365" y="143.684001" style="fill: #ff7f0e; stroke: #ffffff; stroke-width: 0.8"/>
    </g>
    <g clip-path="url(#pbf411a2a82)">
     <use xlink:href="#C0_0_bc7b0f77bd" x="390.903729" y="196.0461" style="fill: #ff7f0e; stroke: #ffffff; stroke-width: 0.8"/>
    </g>
    <g clip-path="url(#pbf411a2a82)">
     <use xlink:href="#C0_0_bc7b0f77bd" x="391.817526" y="158.591045" style="fill: #ff7f0e; stroke: #ffffff; stroke-width: 0.8"/>
    </g>
    <g clip-path="url(#pbf411a2a82)">
     <use xlink:href="#C0_0_bc7b0f77bd" x="397.000113" y="179.310113" style="fill: #ff7f0e; stroke: #ffffff; stroke-width: 0.8"/>
    </g>
    <g clip-path="url(#pbf411a2a82)">
     <use xlink:href="#C0_0_bc7b0f77bd" x="467.492395" y="186.400672" style="fill: #ff7f0e; stroke: #ffffff; stroke-width: 0.8"/>
    </g>
    <g clip-path="url(#pbf411a2a82)">
     <use xlink:href="#C0_0_bc7b0f77bd" x="473.390613" y="220.494839" style="fill: #ff7f0e; stroke: #ffffff; stroke-width: 0.8"/>
    </g>
    <g clip-path="url(#pbf411a2a82)">
     <use xlink:href="#C0_0_bc7b0f77bd" x="411.798563" y="231.826682" style="fill: #ff7f0e; stroke: #ffffff; stroke-width: 0.8"/>
    </g>
    <g clip-path="url(#pbf411a2a82)">
     <use xlink:href="#C0_0_bc7b0f77bd" x="417.382758" y="168.071417" style="fill: #ff7f0e; stroke: #ffffff; stroke-width: 0.8"/>
    </g>
    <g clip-path="url(#pbf411a2a82)">
     <use xlink:href="#C0_0_bc7b0f77bd" x="220.00311" y="195.089805" style="fill: #1f77b4; stroke: #ffffff; stroke-width: 0.8"/>
    </g>
   </g>
   <g id="matplotlib.axis_1">
    <g id="xtick_1">
     <g id="line2d_1">
      <defs>
       <path id="m266eac926e" d="M 0 0 
L 0 3.5 
" style="stroke: #000000; stroke-width: 0.8"/>
      </defs>
      <g>
       <use xlink:href="#m266eac926e" x="81.935842" y="384.48" style="stroke: #000000; stroke-width: 0.8"/>
      </g>
     </g>
     <g id="text_1">
      <!-- −0.20 -->
      <g transform="translate(66.613186 399.078438) scale(0.1 -0.1)">
       <defs>
        <path id="DejaVuSans-2212" d="M 678 2272 
L 4684 2272 
L 4684 1741 
L 678 1741 
L 678 2272 
z
" transform="scale(0.015625)"/>
        <path id="DejaVuSans-30" d="M 2034 4250 
Q 1547 4250 1301 3770 
Q 1056 3291 1056 2328 
Q 1056 1369 1301 889 
Q 1547 409 2034 409 
Q 2525 409 2770 889 
Q 3016 1369 3016 2328 
Q 3016 3291 2770 3770 
Q 2525 4250 2034 4250 
z
M 2034 4750 
Q 2819 4750 3233 4129 
Q 3647 3509 3647 2328 
Q 3647 1150 3233 529 
Q 2819 -91 2034 -91 
Q 1250 -91 836 529 
Q 422 1150 422 2328 
Q 422 3509 836 4129 
Q 1250 4750 2034 4750 
z
" transform="scale(0.015625)"/>
        <path id="DejaVuSans-2e" d="M 684 794 
L 1344 794 
L 1344 0 
L 684 0 
L 684 794 
z
" transform="scale(0.015625)"/>
        <path id="DejaVuSans-32" d="M 1228 531 
L 3431 531 
L 3431 0 
L 469 0 
L 469 531 
Q 828 903 1448 1529 
Q 2069 2156 2228 2338 
Q 2531 2678 2651 2914 
Q 2772 3150 2772 3378 
Q 2772 3750 2511 3984 
Q 2250 4219 1831 4219 
Q 1534 4219 1204 4116 
Q 875 4013 500 3803 
L 500 4441 
Q 881 4594 1212 4672 
Q 1544 4750 1819 4750 
Q 2544 4750 2975 4387 
Q 3406 4025 3406 3419 
Q 3406 3131 3298 2873 
Q 3191 2616 2906 2266 
Q 2828 2175 2409 1742 
Q 1991 1309 1228 531 
z
" transform="scale(0.015625)"/>
       </defs>
       <use xlink:href="#DejaVuSans-2212"/>
       <use xlink:href="#DejaVuSans-30" transform="translate(83.789062 0)"/>
       <use xlink:href="#DejaVuSans-2e" transform="translate(147.412109 0)"/>
       <use xlink:href="#DejaVuSans-32" transform="translate(179.199219 0)"/>
       <use xlink:href="#DejaVuSans-30" transform="translate(242.822266 0)"/>
      </g>
     </g>
    </g>
    <g id="xtick_2">
     <g id="line2d_2">
      <g>
       <use xlink:href="#m266eac926e" x="148.06101" y="384.48" style="stroke: #000000; stroke-width: 0.8"/>
      </g>
     </g>
     <g id="text_2">
      <!-- −0.15 -->
      <g transform="translate(132.738354 399.078438) scale(0.1 -0.1)">
       <defs>
        <path id="DejaVuSans-31" d="M 794 531 
L 1825 531 
L 1825 4091 
L 703 3866 
L 703 4441 
L 1819 4666 
L 2450 4666 
L 2450 531 
L 3481 531 
L 3481 0 
L 794 0 
L 794 531 
z
" transform="scale(0.015625)"/>
        <path id="DejaVuSans-35" d="M 691 4666 
L 3169 4666 
L 3169 4134 
L 1269 4134 
L 1269 2991 
Q 1406 3038 1543 3061 
Q 1681 3084 1819 3084 
Q 2600 3084 3056 2656 
Q 3513 2228 3513 1497 
Q 3513 744 3044 326 
Q 2575 -91 1722 -91 
Q 1428 -91 1123 -41 
Q 819 9 494 109 
L 494 744 
Q 775 591 1075 516 
Q 1375 441 1709 441 
Q 2250 441 2565 725 
Q 2881 1009 2881 1497 
Q 2881 1984 2565 2268 
Q 2250 2553 1709 2553 
Q 1456 2553 1204 2497 
Q 953 2441 691 2322 
L 691 4666 
z
" transform="scale(0.015625)"/>
       </defs>
       <use xlink:href="#DejaVuSans-2212"/>
       <use xlink:href="#DejaVuSans-30" transform="translate(83.789062 0)"/>
       <use xlink:href="#DejaVuSans-2e" transform="translate(147.412109 0)"/>
       <use xlink:href="#DejaVuSans-31" transform="translate(179.199219 0)"/>
       <use xlink:href="#DejaVuSans-35" transform="translate(242.822266 0)"/>
      </g>
     </g>
    </g>
    <g id="xtick_3">
     <g id="line2d_3">
      <g>
       <use xlink:href="#m266eac926e" x="214.186178" y="384.48" style="stroke: #000000; stroke-width: 0.8"/>
      </g>
     </g>
     <g id="text_3">
      <!-- −0.10 -->
      <g transform="translate(198.863522 399.078438) scale(0.1 -0.1)">
       <use xlink:href="#DejaVuSans-2212"/>
       <use xlink:href="#DejaVuSans-30" transform="translate(83.789062 0)"/>
       <use xlink:href="#DejaVuSans-2e" transform="translate(147.412109 0)"/>
       <use xlink:href="#DejaVuSans-31" transform="translate(179.199219 0)"/>
       <use xlink:href="#DejaVuSans-30" transform="translate(242.822266 0)"/>
      </g>
     </g>
    </g>
    <g id="xtick_4">
     <g id="line2d_4">
      <g>
       <use xlink:href="#m266eac926e" x="280.311346" y="384.48" style="stroke: #000000; stroke-width: 0.8"/>
      </g>
     </g>
     <g id="text_4">
      <!-- −0.05 -->
      <g transform="translate(264.98869 399.078438) scale(0.1 -0.1)">
       <use xlink:href="#DejaVuSans-2212"/>
       <use xlink:href="#DejaVuSans-30" transform="translate(83.789062 0)"/>
       <use xlink:href="#DejaVuSans-2e" transform="translate(147.412109 0)"/>
       <use xlink:href="#DejaVuSans-30" transform="translate(179.199219 0)"/>
       <use xlink:href="#DejaVuSans-35" transform="translate(242.822266 0)"/>
      </g>
     </g>
    </g>
    <g id="xtick_5">
     <g id="line2d_5">
      <g>
       <use xlink:href="#m266eac926e" x="346.436515" y="384.48" style="stroke: #000000; stroke-width: 0.8"/>
      </g>
     </g>
     <g id="text_5">
      <!-- 0.00 -->
      <g transform="translate(335.303702 399.078438) scale(0.1 -0.1)">
       <use xlink:href="#DejaVuSans-30"/>
       <use xlink:href="#DejaVuSans-2e" transform="translate(63.623047 0)"/>
       <use xlink:href="#DejaVuSans-30" transform="translate(95.410156 0)"/>
       <use xlink:href="#DejaVuSans-30" transform="translate(159.033203 0)"/>
      </g>
     </g>
    </g>
    <g id="xtick_6">
     <g id="line2d_6">
      <g>
       <use xlink:href="#m266eac926e" x="412.561683" y="384.48" style="stroke: #000000; stroke-width: 0.8"/>
      </g>
     </g>
     <g id="text_6">
      <!-- 0.05 -->
      <g transform="translate(401.42887 399.078438) scale(0.1 -0.1)">
       <use xlink:href="#DejaVuSans-30"/>
       <use xlink:href="#DejaVuSans-2e" transform="translate(63.623047 0)"/>
       <use xlink:href="#DejaVuSans-30" transform="translate(95.410156 0)"/>
       <use xlink:href="#DejaVuSans-35" transform="translate(159.033203 0)"/>
      </g>
     </g>
    </g>
    <g id="xtick_7">
     <g id="line2d_7">
      <g>
       <use xlink:href="#m266eac926e" x="478.686851" y="384.48" style="stroke: #000000; stroke-width: 0.8"/>
      </g>
     </g>
     <g id="text_7">
      <!-- 0.10 -->
      <g transform="translate(467.554038 399.078438) scale(0.1 -0.1)">
       <use xlink:href="#DejaVuSans-30"/>
       <use xlink:href="#DejaVuSans-2e" transform="translate(63.623047 0)"/>
       <use xlink:href="#DejaVuSans-31" transform="translate(95.410156 0)"/>
       <use xlink:href="#DejaVuSans-30" transform="translate(159.033203 0)"/>
      </g>
     </g>
    </g>
    <g id="text_8">
     <!-- SV1 -->
     <g transform="translate(285.424219 412.756563) scale(0.1 -0.1)">
      <defs>
       <path id="DejaVuSans-53" d="M 3425 4513 
L 3425 3897 
Q 3066 4069 2747 4153 
Q 2428 4238 2131 4238 
Q 1616 4238 1336 4038 
Q 1056 3838 1056 3469 
Q 1056 3159 1242 3001 
Q 1428 2844 1947 2747 
L 2328 2669 
Q 3034 2534 3370 2195 
Q 3706 1856 3706 1288 
Q 3706 609 3251 259 
Q 2797 -91 1919 -91 
Q 1588 -91 1214 -16 
Q 841 59 441 206 
L 441 856 
Q 825 641 1194 531 
Q 1563 422 1919 422 
Q 2459 422 2753 634 
Q 3047 847 3047 1241 
Q 3047 1584 2836 1778 
Q 2625 1972 2144 2069 
L 1759 2144 
Q 1053 2284 737 2584 
Q 422 2884 422 3419 
Q 422 4038 858 4394 
Q 1294 4750 2059 4750 
Q 2388 4750 2728 4690 
Q 3069 4631 3425 4513 
z
" transform="scale(0.015625)"/>
       <path id="DejaVuSans-56" d="M 1831 0 
L 50 4666 
L 709 4666 
L 2188 738 
L 3669 4666 
L 4325 4666 
L 2547 0 
L 1831 0 
z
" transform="scale(0.015625)"/>
      </defs>
      <use xlink:href="#DejaVuSans-53"/>
      <use xlink:href="#DejaVuSans-56" transform="translate(63.476562 0)"/>
      <use xlink:href="#DejaVuSans-31" transform="translate(131.884766 0)"/>
     </g>
    </g>
   </g>
   <g id="matplotlib.axis_2">
    <g id="ytick_1">
     <g id="line2d_8">
      <defs>
       <path id="m4523e0ddfe" d="M 0 0 
L -3.5 0 
" style="stroke: #000000; stroke-width: 0.8"/>
      </defs>
      <g>
       <use xlink:href="#m4523e0ddfe" x="72" y="339.232378" style="stroke: #000000; stroke-width: 0.8"/>
      </g>
     </g>
     <g id="text_9">
      <!-- −0.10 -->
      <g transform="translate(34.354687 343.031597) scale(0.1 -0.1)">
       <use xlink:href="#DejaVuSans-2212"/>
       <use xlink:href="#DejaVuSans-30" transform="translate(83.789062 0)"/>
       <use xlink:href="#DejaVuSans-2e" transform="translate(147.412109 0)"/>
       <use xlink:href="#DejaVuSans-31" transform="translate(179.199219 0)"/>
       <use xlink:href="#DejaVuSans-30" transform="translate(242.822266 0)"/>
      </g>
     </g>
    </g>
    <g id="ytick_2">
     <g id="line2d_9">
      <g>
       <use xlink:href="#m4523e0ddfe" x="72" y="266.628971" style="stroke: #000000; stroke-width: 0.8"/>
      </g>
     </g>
     <g id="text_10">
      <!-- −0.05 -->
      <g transform="translate(34.354687 270.42819) scale(0.1 -0.1)">
       <use xlink:href="#DejaVuSans-2212"/>
       <use xlink:href="#DejaVuSans-30" transform="translate(83.789062 0)"/>
       <use xlink:href="#DejaVuSans-2e" transform="translate(147.412109 0)"/>
       <use xlink:href="#DejaVuSans-30" transform="translate(179.199219 0)"/>
       <use xlink:href="#DejaVuSans-35" transform="translate(242.822266 0)"/>
      </g>
     </g>
    </g>
    <g id="ytick_3">
     <g id="line2d_10">
      <g>
       <use xlink:href="#m4523e0ddfe" x="72" y="194.025564" style="stroke: #000000; stroke-width: 0.8"/>
      </g>
     </g>
     <g id="text_11">
      <!-- 0.00 -->
      <g transform="translate(42.734375 197.824783) scale(0.1 -0.1)">
       <use xlink:href="#DejaVuSans-30"/>
       <use xlink:href="#DejaVuSans-2e" transform="translate(63.623047 0)"/>
       <use xlink:href="#DejaVuSans-30" transform="translate(95.410156 0)"/>
       <use xlink:href="#DejaVuSans-30" transform="translate(159.033203 0)"/>
      </g>
     </g>
    </g>
    <g id="ytick_4">
     <g id="line2d_11">
      <g>
       <use xlink:href="#m4523e0ddfe" x="72" y="121.422157" style="stroke: #000000; stroke-width: 0.8"/>
      </g>
     </g>
     <g id="text_12">
      <!-- 0.05 -->
      <g transform="translate(42.734375 125.221375) scale(0.1 -0.1)">
       <use xlink:href="#DejaVuSans-30"/>
       <use xlink:href="#DejaVuSans-2e" transform="translate(63.623047 0)"/>
       <use xlink:href="#DejaVuSans-30" transform="translate(95.410156 0)"/>
       <use xlink:href="#DejaVuSans-35" transform="translate(159.033203 0)"/>
      </g>
     </g>
    </g>
    <g id="text_13">
     <!-- SV2 -->
     <g transform="translate(28.275 227.935781) rotate(-90) scale(0.1 -0.1)">
      <use xlink:href="#DejaVuSans-53"/>
      <use xlink:href="#DejaVuSans-56" transform="translate(63.476562 0)"/>
      <use xlink:href="#DejaVuSans-32" transform="translate(131.884766 0)"/>
     </g>
    </g>
   </g>
   <g id="line2d_12"/>
   <g id="line2d_13"/>
   <g id="patch_3">
    <path d="M 72 384.48 
L 72 51.84 
" style="fill: none; stroke: #000000; stroke-width: 0.8; stroke-linejoin: miter; stroke-linecap: square"/>
   </g>
   <g id="patch_4">
    <path d="M 518.4 384.48 
L 518.4 51.84 
" style="fill: none; stroke: #000000; stroke-width: 0.8; stroke-linejoin: miter; stroke-linecap: square"/>
   </g>
   <g id="patch_5">
    <path d="M 72 384.48 
L 518.4 384.48 
" style="fill: none; stroke: #000000; stroke-width: 0.8; stroke-linejoin: miter; stroke-linecap: square"/>
   </g>
   <g id="patch_6">
    <path d="M 72 51.84 
L 518.4 51.84 
" style="fill: none; stroke: #000000; stroke-width: 0.8; stroke-linejoin: miter; stroke-linecap: square"/>
   </g>
   <g id="text_14">
    <!-- Clustering Result -->
    <g transform="translate(244.18125 45.84) scale(0.12 -0.12)">
     <defs>
      <path id="DejaVuSans-43" d="M 4122 4306 
L 4122 3641 
Q 3803 3938 3442 4084 
Q 3081 4231 2675 4231 
Q 1875 4231 1450 3742 
Q 1025 3253 1025 2328 
Q 1025 1406 1450 917 
Q 1875 428 2675 428 
Q 3081 428 3442 575 
Q 3803 722 4122 1019 
L 4122 359 
Q 3791 134 3420 21 
Q 3050 -91 2638 -91 
Q 1578 -91 968 557 
Q 359 1206 359 2328 
Q 359 3453 968 4101 
Q 1578 4750 2638 4750 
Q 3056 4750 3426 4639 
Q 3797 4528 4122 4306 
z
" transform="scale(0.015625)"/>
      <path id="DejaVuSans-6c" d="M 603 4863 
L 1178 4863 
L 1178 0 
L 603 0 
L 603 4863 
z
" transform="scale(0.015625)"/>
      <path id="DejaVuSans-75" d="M 544 1381 
L 544 3500 
L 1119 3500 
L 1119 1403 
Q 1119 906 1312 657 
Q 1506 409 1894 409 
Q 2359 409 2629 706 
Q 2900 1003 2900 1516 
L 2900 3500 
L 3475 3500 
L 3475 0 
L 2900 0 
L 2900 538 
Q 2691 219 2414 64 
Q 2138 -91 1772 -91 
Q 1169 -91 856 284 
Q 544 659 544 1381 
z
M 1991 3584 
L 1991 3584 
z
" transform="scale(0.015625)"/>
      <path id="DejaVuSans-73" d="M 2834 3397 
L 2834 2853 
Q 2591 2978 2328 3040 
Q 2066 3103 1784 3103 
Q 1356 3103 1142 2972 
Q 928 2841 928 2578 
Q 928 2378 1081 2264 
Q 1234 2150 1697 2047 
L 1894 2003 
Q 2506 1872 2764 1633 
Q 3022 1394 3022 966 
Q 3022 478 2636 193 
Q 2250 -91 1575 -91 
Q 1294 -91 989 -36 
Q 684 19 347 128 
L 347 722 
Q 666 556 975 473 
Q 1284 391 1588 391 
Q 1994 391 2212 530 
Q 2431 669 2431 922 
Q 2431 1156 2273 1281 
Q 2116 1406 1581 1522 
L 1381 1569 
Q 847 1681 609 1914 
Q 372 2147 372 2553 
Q 372 3047 722 3315 
Q 1072 3584 1716 3584 
Q 2034 3584 2315 3537 
Q 2597 3491 2834 3397 
z
" transform="scale(0.015625)"/>
      <path id="DejaVuSans-74" d="M 1172 4494 
L 1172 3500 
L 2356 3500 
L 2356 3053 
L 1172 3053 
L 1172 1153 
Q 1172 725 1289 603 
Q 1406 481 1766 481 
L 2356 481 
L 2356 0 
L 1766 0 
Q 1100 0 847 248 
Q 594 497 594 1153 
L 594 3053 
L 172 3053 
L 172 3500 
L 594 3500 
L 594 4494 
L 1172 4494 
z
" transform="scale(0.015625)"/>
      <path id="DejaVuSans-65" d="M 3597 1894 
L 3597 1613 
L 953 1613 
Q 991 1019 1311 708 
Q 1631 397 2203 397 
Q 2534 397 2845 478 
Q 3156 559 3463 722 
L 3463 178 
Q 3153 47 2828 -22 
Q 2503 -91 2169 -91 
Q 1331 -91 842 396 
Q 353 884 353 1716 
Q 353 2575 817 3079 
Q 1281 3584 2069 3584 
Q 2775 3584 3186 3129 
Q 3597 2675 3597 1894 
z
M 3022 2063 
Q 3016 2534 2758 2815 
Q 2500 3097 2075 3097 
Q 1594 3097 1305 2825 
Q 1016 2553 972 2059 
L 3022 2063 
z
" transform="scale(0.015625)"/>
      <path id="DejaVuSans-72" d="M 2631 2963 
Q 2534 3019 2420 3045 
Q 2306 3072 2169 3072 
Q 1681 3072 1420 2755 
Q 1159 2438 1159 1844 
L 1159 0 
L 581 0 
L 581 3500 
L 1159 3500 
L 1159 2956 
Q 1341 3275 1631 3429 
Q 1922 3584 2338 3584 
Q 2397 3584 2469 3576 
Q 2541 3569 2628 3553 
L 2631 2963 
z
" transform="scale(0.015625)"/>
      <path id="DejaVuSans-69" d="M 603 3500 
L 1178 3500 
L 1178 0 
L 603 0 
L 603 3500 
z
M 603 4863 
L 1178 4863 
L 1178 4134 
L 603 4134 
L 603 4863 
z
" transform="scale(0.015625)"/>
      <path id="DejaVuSans-6e" d="M 3513 2113 
L 3513 0 
L 2938 0 
L 2938 2094 
Q 2938 2591 2744 2837 
Q 2550 3084 2163 3084 
Q 1697 3084 1428 2787 
Q 1159 2491 1159 1978 
L 1159 0 
L 581 0 
L 581 3500 
L 1159 3500 
L 1159 2956 
Q 1366 3272 1645 3428 
Q 1925 3584 2291 3584 
Q 2894 3584 3203 3211 
Q 3513 2838 3513 2113 
z
" transform="scale(0.015625)"/>
      <path id="DejaVuSans-67" d="M 2906 1791 
Q 2906 2416 2648 2759 
Q 2391 3103 1925 3103 
Q 1463 3103 1205 2759 
Q 947 2416 947 1791 
Q 947 1169 1205 825 
Q 1463 481 1925 481 
Q 2391 481 2648 825 
Q 2906 1169 2906 1791 
z
M 3481 434 
Q 3481 -459 3084 -895 
Q 2688 -1331 1869 -1331 
Q 1566 -1331 1297 -1286 
Q 1028 -1241 775 -1147 
L 775 -588 
Q 1028 -725 1275 -790 
Q 1522 -856 1778 -856 
Q 2344 -856 2625 -561 
Q 2906 -266 2906 331 
L 2906 616 
Q 2728 306 2450 153 
Q 2172 0 1784 0 
Q 1141 0 747 490 
Q 353 981 353 1791 
Q 353 2603 747 3093 
Q 1141 3584 1784 3584 
Q 2172 3584 2450 3431 
Q 2728 3278 2906 2969 
L 2906 3500 
L 3481 3500 
L 3481 434 
z
" transform="scale(0.015625)"/>
      <path id="DejaVuSans-20" transform="scale(0.015625)"/>
      <path id="DejaVuSans-52" d="M 2841 2188 
Q 3044 2119 3236 1894 
Q 3428 1669 3622 1275 
L 4263 0 
L 3584 0 
L 2988 1197 
Q 2756 1666 2539 1819 
Q 2322 1972 1947 1972 
L 1259 1972 
L 1259 0 
L 628 0 
L 628 4666 
L 2053 4666 
Q 2853 4666 3247 4331 
Q 3641 3997 3641 3322 
Q 3641 2881 3436 2590 
Q 3231 2300 2841 2188 
z
M 1259 4147 
L 1259 2491 
L 2053 2491 
Q 2509 2491 2742 2702 
Q 2975 2913 2975 3322 
Q 2975 3731 2742 3939 
Q 2509 4147 2053 4147 
L 1259 4147 
z
" transform="scale(0.015625)"/>
     </defs>
     <use xlink:href="#DejaVuSans-43"/>
     <use xlink:href="#DejaVuSans-6c" transform="translate(69.824219 0)"/>
     <use xlink:href="#DejaVuSans-75" transform="translate(97.607422 0)"/>
     <use xlink:href="#DejaVuSans-73" transform="translate(160.986328 0)"/>
     <use xlink:href="#DejaVuSans-74" transform="translate(213.085938 0)"/>
     <use xlink:href="#DejaVuSans-65" transform="translate(252.294922 0)"/>
     <use xlink:href="#DejaVuSans-72" transform="translate(313.818359 0)"/>
     <use xlink:href="#DejaVuSans-69" transform="translate(354.931641 0)"/>
     <use xlink:href="#DejaVuSans-6e" transform="translate(382.714844 0)"/>
     <use xlink:href="#DejaVuSans-67" transform="translate(446.09375 0)"/>
     <use xlink:href="#DejaVuSans-20" transform="translate(509.570312 0)"/>
     <use xlink:href="#DejaVuSans-52" transform="translate(541.357422 0)"/>
     <use xlink:href="#DejaVuSans-65" transform="translate(606.339844 0)"/>
     <use xlink:href="#DejaVuSans-73" transform="translate(667.863281 0)"/>
     <use xlink:href="#DejaVuSans-75" transform="translate(719.962891 0)"/>
     <use xlink:href="#DejaVuSans-6c" transform="translate(783.341797 0)"/>
     <use xlink:href="#DejaVuSans-74" transform="translate(811.125 0)"/>
    </g>
   </g>
   <g id="legend_1">
    <g id="patch_7">
     <path d="M 471.907812 103.874375 
L 511.4 103.874375 
Q 513.4 103.874375 513.4 101.874375 
L 513.4 58.84 
Q 513.4 56.84 511.4 56.84 
L 471.907812 56.84 
Q 469.907812 56.84 469.907812 58.84 
L 469.907812 101.874375 
Q 469.907812 103.874375 471.907812 103.874375 
z
" style="fill: #ffffff; opacity: 0.8; stroke: #cccccc; stroke-linejoin: miter"/>
    </g>
    <g id="text_15">
     <!-- Cluster -->
     <g transform="translate(473.907812 68.438437) scale(0.1 -0.1)">
      <use xlink:href="#DejaVuSans-43"/>
      <use xlink:href="#DejaVuSans-6c" transform="translate(69.824219 0)"/>
      <use xlink:href="#DejaVuSans-75" transform="translate(97.607422 0)"/>
      <use xlink:href="#DejaVuSans-73" transform="translate(160.986328 0)"/>
      <use xlink:href="#DejaVuSans-74" transform="translate(213.085938 0)"/>
      <use xlink:href="#DejaVuSans-65" transform="translate(252.294922 0)"/>
      <use xlink:href="#DejaVuSans-72" transform="translate(313.818359 0)"/>
     </g>
    </g>
    <g id="line2d_14">
     <defs>
      <path id="m5be3cea682" d="M 0 5 
C 1.326016 5 2.597899 4.473168 3.535534 3.535534 
C 4.473168 2.597899 5 1.326016 5 0 
C 5 -1.326016 4.473168 -2.597899 3.535534 -3.535534 
C 2.597899 -4.473168 1.326016 -5 0 -5 
C -1.326016 -5 -2.597899 -4.473168 -3.535534 -3.535534 
C -4.473168 -2.597899 -5 -1.326016 -5 0 
C -5 1.326016 -4.473168 2.597899 -3.535534 3.535534 
C -2.597899 4.473168 -1.326016 5 0 5 
z
" style="stroke: #ffffff; stroke-width: 0.8"/>
     </defs>
     <g>
      <use xlink:href="#m5be3cea682" x="484.472656" y="79.616562" style="fill: #1f77b4; stroke: #ffffff; stroke-width: 0.8"/>
     </g>
    </g>
    <g id="text_16">
     <!-- 0 -->
     <g transform="translate(502.472656 83.116562) scale(0.1 -0.1)">
      <use xlink:href="#DejaVuSans-30"/>
     </g>
    </g>
    <g id="line2d_15">
     <defs>
      <path id="mf03ad6d529" d="M 0 5 
C 1.326016 5 2.597899 4.473168 3.535534 3.535534 
C 4.473168 2.597899 5 1.326016 5 0 
C 5 -1.326016 4.473168 -2.597899 3.535534 -3.535534 
C 2.597899 -4.473168 1.326016 -5 0 -5 
C -1.326016 -5 -2.597899 -4.473168 -3.535534 -3.535534 
C -4.473168 -2.597899 -5 -1.326016 -5 0 
C -5 1.326016 -4.473168 2.597899 -3.535534 3.535534 
C -2.597899 4.473168 -1.326016 5 0 5 
z
" style="stroke: #ffffff; stroke-width: 0.8"/>
     </defs>
     <g>
      <use xlink:href="#mf03ad6d529" x="484.472656" y="94.294688" style="fill: #ff7f0e; stroke: #ffffff; stroke-width: 0.8"/>
     </g>
    </g>
    <g id="text_17">
     <!-- 1 -->
     <g transform="translate(502.472656 97.794688) scale(0.1 -0.1)">
      <use xlink:href="#DejaVuSans-31"/>
     </g>
    </g>
   </g>
  </g>
 </g>
 <defs>
  <clipPath id="pbf411a2a82">
   <rect x="72" y="51.84" width="446.4" height="332.64"/>
  </clipPath>
 </defs>
</svg>
