<?xml version="1.0"?>
<svg width="1406" height="1626" xmlns="http://www.w3.org/2000/svg">
<g stroke-width="7" stroke="black" font-family="Verdana" font-style="italic" font-size="15">
<line x1="938" y1="495" x2="855" y2="495" />
<line x1="689" y1="375" x2="588" y2="375" />
<line x1="431" y1="180" x2="366" y2="180" />
<line x1="514" y1="195" x2="431" y2="195" />
<line x1="1077" y1="1135" x2="994" y2="1135" />
<line x1="947" y1="755" x2="864" y2="755" />
<line x1="855" y1="460" x2="772" y2="460" />
<line x1="1160" y1="1195" x2="1077" y2="1195" />
<line x1="1142" y1="1060" x2="1059" y2="1060" />
<line x1="1225" y1="1075" x2="1142" y2="1075" />
<line x1="615" y1="684" x2="532" y2="684" />
<line x1="698" y1="703" x2="615" y2="703" />
<line x1="781" y1="722" x2="698" y2="722" />
<line x1="864" y1="740" x2="781" y2="740" />
<line x1="449" y1="135" x2="366" y2="135" />
<line x1="911" y1="955" x2="828" y2="955" />
<line x1="994" y1="1157" x2="911" y2="1157" />
<line x1="1077" y1="1180" x2="994" y2="1180" />
<line x1="366" y1="210" x2="283" y2="210" />
<line x1="440" y1="240" x2="366" y2="240" />
<line x1="523" y1="255" x2="440" y2="255" />
<line x1="911" y1="1131" x2="828" y2="1131" />
<line x1="1178" y1="1335" x2="1095" y2="1335" />
<line x1="772" y1="432" x2="671" y2="432" />
<line x1="781" y1="900" x2="698" y2="900" />
<line x1="864" y1="915" x2="781" y2="915" />
<line x1="698" y1="805" x2="615" y2="805" />
<line x1="781" y1="825" x2="698" y2="825" />
<line x1="864" y1="845" x2="781" y2="845" />
<line x1="994" y1="1240" x2="911" y2="1240" />
<line x1="1077" y1="1255" x2="994" y2="1255" />
<line x1="828" y1="979" x2="781" y2="979" />
<line x1="920" y1="1004" x2="828" y2="1004" />
<line x1="976" y1="1023" x2="920" y2="1023" />
<line x1="1059" y1="1042" x2="976" y2="1042" />
<line x1="873" y1="600" x2="772" y2="600" />
<line x1="956" y1="635" x2="873" y2="635" />
<line x1="597" y1="320" x2="505" y2="320" />
<line x1="680" y1="335" x2="597" y2="335" />
<line x1="283" y1="90" x2="200" y2="90" />
<line x1="366" y1="115" x2="283" y2="115" />
<line x1="449" y1="95" x2="366" y2="95" />
<line x1="505" y1="378" x2="449" y2="378" />
<line x1="588" y1="437" x2="505" y2="437" />
<line x1="671" y1="499" x2="588" y2="499" />
<line x1="772" y1="567" x2="671" y2="567" />
<line x1="873" y1="535" x2="772" y2="535" />
<line x1="117" y1="125" x2="16" y2="125" />
<line x1="200" y1="206" x2="117" y2="206" />
<line x1="283" y1="322" x2="200" y2="322" />
<line x1="366" y1="435" x2="283" y2="435" />
<line x1="449" y1="585" x2="366" y2="585" />
<line x1="532" y1="792" x2="449" y2="792" />
<line x1="615" y1="900" x2="532" y2="900" />
<line x1="698" y1="996" x2="615" y2="996" />
<line x1="781" y1="1093" x2="698" y2="1093" />
<line x1="828" y1="1208" x2="781" y2="1208" />
<line x1="911" y1="1286" x2="828" y2="1286" />
<line x1="1012" y1="1332" x2="911" y2="1332" />
<line x1="1095" y1="1380" x2="1012" y2="1380" />
<line x1="1178" y1="1425" x2="1095" y2="1425" />
<line x1="16" y1="75" x2="5" y2="75" />
<line x1="635" y1="665" x2="615" y2="665" />
<line x1="451" y1="165" x2="431" y2="165" />
<line x1="1245" y1="1065" x2="1225" y2="1065" />
<line x1="801" y1="805" x2="781" y2="805" />
<line x1="1198" y1="1385" x2="1178" y2="1385" />
<line x1="534" y1="185" x2="514" y2="185" />
<line x1="996" y1="1005" x2="976" y2="1005" />
<line x1="700" y1="325" x2="680" y2="325" />
<line x1="1198" y1="1405" x2="1178" y2="1405" />
<line x1="1198" y1="1425" x2="1178" y2="1425" />
<line x1="893" y1="565" x2="873" y2="565" />
<line x1="709" y1="365" x2="689" y2="365" />
<line x1="967" y1="745" x2="947" y2="745" />
<line x1="884" y1="825" x2="864" y2="825" />
<line x1="303" y1="65" x2="283" y2="65" />
<line x1="1097" y1="1245" x2="1077" y2="1245" />
<line x1="469" y1="85" x2="449" y2="85" />
<line x1="884" y1="845" x2="864" y2="845" />
<line x1="1198" y1="1305" x2="1178" y2="1305" />
<line x1="893" y1="525" x2="873" y2="525" />
<line x1="137" y1="45" x2="117" y2="45" />
<line x1="801" y1="885" x2="781" y2="885" />
<line x1="460" y1="225" x2="440" y2="225" />
<line x1="875" y1="425" x2="855" y2="425" />
<line x1="958" y1="485" x2="938" y2="485" />
<line x1="386" y1="285" x2="366" y2="285" />
<line x1="958" y1="505" x2="938" y2="505" />
<line x1="469" y1="125" x2="449" y2="125" />
<line x1="1180" y1="1185" x2="1160" y2="1185" />
<line x1="709" y1="385" x2="689" y2="385" />
<line x1="893" y1="585" x2="873" y2="585" />
<line x1="534" y1="205" x2="514" y2="205" />
<line x1="940" y1="985" x2="920" y2="985" />
<line x1="617" y1="305" x2="597" y2="305" />
<line x1="718" y1="685" x2="698" y2="685" />
<line x1="801" y1="705" x2="781" y2="705" />
<line x1="884" y1="905" x2="864" y2="905" />
<line x1="875" y1="445" x2="855" y2="445" />
<line x1="931" y1="945" x2="911" y2="945" />
<line x1="1097" y1="1125" x2="1077" y2="1125" />
<line x1="1097" y1="1145" x2="1077" y2="1145" />
<line x1="967" y1="765" x2="947" y2="765" />
<line x1="1032" y1="1285" x2="1012" y2="1285" />
<line x1="976" y1="625" x2="956" y2="625" />
<line x1="543" y1="245" x2="523" y2="245" />
<line x1="875" y1="465" x2="855" y2="465" />
<line x1="1162" y1="1045" x2="1142" y2="1045" />
<line x1="1180" y1="1205" x2="1160" y2="1205" />
<line x1="1198" y1="1325" x2="1178" y2="1325" />
<line x1="1245" y1="1085" x2="1225" y2="1085" />
<line x1="884" y1="725" x2="864" y2="725" />
<line x1="1198" y1="1345" x2="1178" y2="1345" />
<line x1="718" y1="785" x2="698" y2="785" />
<line x1="469" y1="145" x2="449" y2="145" />
<line x1="1014" y1="1225" x2="994" y2="1225" />
<line x1="931" y1="965" x2="911" y2="965" />
<line x1="1097" y1="1165" x2="1077" y2="1165" />
<line x1="543" y1="265" x2="523" y2="265" />
<line x1="931" y1="1105" x2="911" y2="1105" />
<line x1="1198" y1="1365" x2="1178" y2="1365" />
<line x1="792" y1="405" x2="772" y2="405" />
<line x1="884" y1="925" x2="864" y2="925" />
<line x1="884" y1="865" x2="864" y2="865" />
<line x1="1097" y1="1265" x2="1077" y2="1265" />
<line x1="1079" y1="1025" x2="1059" y2="1025" />
<line x1="893" y1="605" x2="873" y2="605" />
<line x1="976" y1="645" x2="956" y2="645" />
<line x1="700" y1="345" x2="680" y2="345" />
<line x1="469" y1="105" x2="449" y2="105" />
<line x1="1198" y1="1445" x2="1178" y2="1445" />
<line x1="893" y1="545" x2="873" y2="545" />
<line x1="1198" y1="1465" x2="1178" y2="1465" />
<line x1="36" y1="25" x2="16" y2="25" />
<line x1="941" y1="485" x2="941" y2="505" />
<line x1="692" y1="365" x2="692" y2="385" />
<line x1="434" y1="165" x2="434" y2="195" />
<line x1="517" y1="185" x2="517" y2="205" />
<line x1="1080" y1="1125" x2="1080" y2="1145" />
<line x1="950" y1="745" x2="950" y2="765" />
<line x1="858" y1="425" x2="858" y2="495" />
<line x1="1163" y1="1185" x2="1163" y2="1205" />
<line x1="1145" y1="1045" x2="1145" y2="1075" />
<line x1="1228" y1="1065" x2="1228" y2="1085" />
<line x1="618" y1="665" x2="618" y2="703" />
<line x1="701" y1="685" x2="701" y2="722" />
<line x1="784" y1="705" x2="784" y2="740" />
<line x1="867" y1="725" x2="867" y2="755" />
<line x1="452" y1="125" x2="452" y2="145" />
<line x1="914" y1="945" x2="914" y2="965" />
<line x1="997" y1="1135" x2="997" y2="1180" />
<line x1="1080" y1="1165" x2="1080" y2="1195" />
<line x1="369" y1="180" x2="369" y2="240" />
<line x1="443" y1="225" x2="443" y2="255" />
<line x1="526" y1="245" x2="526" y2="265" />
<line x1="914" y1="1105" x2="914" y2="1157" />
<line x1="1181" y1="1305" x2="1181" y2="1365" />
<line x1="775" y1="405" x2="775" y2="460" />
<line x1="784" y1="885" x2="784" y2="915" />
<line x1="867" y1="905" x2="867" y2="925" />
<line x1="701" y1="785" x2="701" y2="825" />
<line x1="784" y1="805" x2="784" y2="845" />
<line x1="867" y1="825" x2="867" y2="865" />
<line x1="997" y1="1225" x2="997" y2="1255" />
<line x1="1080" y1="1245" x2="1080" y2="1265" />
<line x1="831" y1="955" x2="831" y2="1004" />
<line x1="923" y1="985" x2="923" y2="1023" />
<line x1="979" y1="1005" x2="979" y2="1042" />
<line x1="1062" y1="1025" x2="1062" y2="1060" />
<line x1="876" y1="565" x2="876" y2="635" />
<line x1="959" y1="625" x2="959" y2="645" />
<line x1="600" y1="305" x2="600" y2="335" />
<line x1="683" y1="325" x2="683" y2="345" />
<line x1="286" y1="65" x2="286" y2="115" />
<line x1="369" y1="95" x2="369" y2="135" />
<line x1="452" y1="85" x2="452" y2="105" />
<line x1="508" y1="320" x2="508" y2="437" />
<line x1="591" y1="375" x2="591" y2="499" />
<line x1="674" y1="432" x2="674" y2="567" />
<line x1="775" y1="535" x2="775" y2="600" />
<line x1="876" y1="525" x2="876" y2="545" />
<line x1="120" y1="45" x2="120" y2="206" />
<line x1="203" y1="90" x2="203" y2="322" />
<line x1="286" y1="210" x2="286" y2="435" />
<line x1="369" y1="285" x2="369" y2="585" />
<line x1="452" y1="378" x2="452" y2="792" />
<line x1="535" y1="684" x2="535" y2="900" />
<line x1="618" y1="805" x2="618" y2="996" />
<line x1="701" y1="900" x2="701" y2="1093" />
<line x1="784" y1="979" x2="784" y2="1208" />
<line x1="831" y1="1131" x2="831" y2="1286" />
<line x1="914" y1="1240" x2="914" y2="1332" />
<line x1="1015" y1="1285" x2="1015" y2="1380" />
<line x1="1098" y1="1335" x2="1098" y2="1425" />
<line x1="1181" y1="1385" x2="1181" y2="1465" />
<line x1="19" y1="25" x2="19" y2="125" />
<defs>
    <filter x="0" y="0.0" width="1" height="1.0" id="solid">
      <feFlood flood-color="white"/>
      <feComposite in="SourceGraphic"/>
    </filter>
  </defs>
<text x="645" y="668" stroke-width="1">4864_nova</text>
<text x="461" y="168" stroke-width="1">4752_nova</text>
<text x="1255" y="1068" stroke-width="1">3902_nova</text>
<text x="811" y="808" stroke-width="1">4394_nova</text>
<text x="1208" y="1388" stroke-width="1">4365_mitc</text>
<text x="544" y="188" stroke-width="1">4383_nova</text>
<text x="1006" y="1008" stroke-width="1">4375_nova</text>
<text x="710" y="328" stroke-width="1">4756_nova</text>
<text x="1208" y="1408" stroke-width="1">4368_mitc</text>
<text x="1208" y="1428" stroke-width="1">4369_mitc</text>
<text x="903" y="568" stroke-width="1">4377_sp_MtKap</text>
<text x="719" y="368" stroke-width="1">4863_nova</text>
<text x="977" y="748" stroke-width="1">4372_nova</text>
<text x="894" y="828" stroke-width="1">4860_nova</text>
<text x="313" y="68" stroke-width="1">4384_nova</text>
<text x="1107" y="1248" stroke-width="1">4884_sp_Gibr</text>
<text x="479" y="88" stroke-width="1">4828_nova</text>
<text x="894" y="848" stroke-width="1">4751_nova</text>
<text x="1208" y="1308" stroke-width="1">4362_mitc</text>
<text x="903" y="528" stroke-width="1">4376_sp_Coola</text>
<text x="147" y="48" stroke-width="1">4754_nova</text>
<text x="811" y="888" stroke-width="1">4397_nova</text>
<text x="470" y="228" stroke-width="1">4374_nova</text>
<text x="885" y="428" stroke-width="1">4873_darl</text>
<text x="968" y="488" stroke-width="1">4886_rich</text>
<text x="396" y="288" stroke-width="1">4400_nova</text>
<text x="968" y="508" stroke-width="1">4876_rich</text>
<text x="479" y="128" stroke-width="1">4827_nova</text>
<text x="1190" y="1188" stroke-width="1">4749_nova</text>
<text x="719" y="388" stroke-width="1">4378_nova</text>
<text x="903" y="588" stroke-width="1">4854_sp_MtKap</text>
<text x="544" y="208" stroke-width="1">4395_nova</text>
<text x="950" y="988" stroke-width="1">4370_nova</text>
<text x="627" y="308" stroke-width="1">4371_nova</text>
<text x="728" y="688" stroke-width="1">4861_sp_MtBoss</text>
<text x="811" y="708" stroke-width="1">4862_sp_MtBoss</text>
<text x="894" y="908" stroke-width="1">4387_nova</text>
<text x="885" y="448" stroke-width="1">4874_darl</text>
<text x="941" y="948" stroke-width="1">4750_nova</text>
<text x="1107" y="1128" stroke-width="1">4856_nova</text>
<text x="1107" y="1148" stroke-width="1">4858_nova</text>
<text x="977" y="768" stroke-width="1">4401_nova</text>
<text x="1042" y="1288" stroke-width="1">4367_mitc</text>
<text x="986" y="628" stroke-width="1">4380_sp_MtKap</text>
<text x="553" y="248" stroke-width="1">4389_nova</text>
<text x="885" y="468" stroke-width="1">4872_darl</text>
<text x="1172" y="1048" stroke-width="1">4393_nova</text>
<text x="1190" y="1208" stroke-width="1">4857_nova</text>
<text x="1208" y="1328" stroke-width="1">4361_mitc</text>
<text x="1255" y="1088" stroke-width="1">4390_nova</text>
<text x="894" y="728" stroke-width="1">4399_nova</text>
<text x="1208" y="1348" stroke-width="1">4360_mitc</text>
<text x="728" y="788" stroke-width="1">4398_nova</text>
<text x="479" y="148" stroke-width="1">4859_nova</text>
<text x="1024" y="1228" stroke-width="1">4880_sp_Gibr</text>
<text x="941" y="968" stroke-width="1">4385_nova</text>
<text x="1107" y="1168" stroke-width="1">4855_nova</text>
<text x="553" y="268" stroke-width="1">4753_nova</text>
<text x="941" y="1108" stroke-width="1">4392_nova</text>
<text x="1208" y="1368" stroke-width="1">4363_mitc</text>
<text x="802" y="408" stroke-width="1">4381_rich</text>
<text x="894" y="928" stroke-width="1">4391_nova</text>
<text x="894" y="868" stroke-width="1">4382_nova</text>
<text x="1107" y="1268" stroke-width="1">4881_sp_Gibr</text>
<text x="1089" y="1028" stroke-width="1">4373_nova</text>
<text x="903" y="608" stroke-width="1">4868_sp_MtKap</text>
<text x="986" y="648" stroke-width="1">4853_sp_MtKap</text>
<text x="710" y="348" stroke-width="1">4755_nova</text>
<text x="479" y="108" stroke-width="1">4829_nova</text>
<text x="1208" y="1448" stroke-width="1">4364_mitc</text>
<text x="903" y="548" stroke-width="1">4379_nova</text>
<text x="1208" y="1468" stroke-width="1">4366_mitc</text>
<text x="46" y="28" stroke-width="1">4388_nova</text>
</g>
<g stroke-width="7" stroke="black" font-family="Verdana" font-style="regular" font-size="15">
<text filter="url(#solid)" x="865" y="487" stroke-width="1">59/55</text>
<text filter="url(#solid)" x="598" y="367" stroke-width="1">100/100</text>
<text filter="url(#solid)" x="376" y="172" stroke-width="1">9/[3]</text>
<text filter="url(#solid)" x="441" y="187" stroke-width="1">51/43</text>
<text filter="url(#solid)" x="1004" y="1127" stroke-width="1">35/31</text>
<text filter="url(#solid)" x="874" y="747" stroke-width="1">12/11</text>
<text filter="url(#solid)" x="782" y="452" stroke-width="1">65/56</text>
<text filter="url(#solid)" x="1087" y="1187" stroke-width="1">40/33</text>
<text filter="url(#solid)" x="1069" y="1052" stroke-width="1">88/90</text>
<text filter="url(#solid)" x="1152" y="1067" stroke-width="1">63/67</text>
<text filter="url(#solid)" x="542" y="676" stroke-width="1">43/35</text>
<text filter="url(#solid)" x="625" y="695" stroke-width="1">70/61</text>
<text filter="url(#solid)" x="708" y="714" stroke-width="1">61/62</text>
<text filter="url(#solid)" x="791" y="732" stroke-width="1">87/84</text>
<text filter="url(#solid)" x="376" y="127" stroke-width="1">97/97</text>
<text filter="url(#solid)" x="838" y="947" stroke-width="1">80/80</text>
<text filter="url(#solid)" x="921" y="1149" stroke-width="1">24/16</text>
<text filter="url(#solid)" x="1004" y="1172" stroke-width="1">29/22</text>
<text filter="url(#solid)" x="293" y="202" stroke-width="1">46/44</text>
<text filter="url(#solid)" x="376" y="232" stroke-width="1">4/[11]</text>
<text filter="url(#solid)" x="450" y="247" stroke-width="1">36/21</text>
<text filter="url(#solid)" x="838" y="1123" stroke-width="1">96/94</text>
<text filter="url(#solid)" x="1105" y="1327" stroke-width="1">36/38</text>
<text filter="url(#solid)" x="681" y="424" stroke-width="1">100/100</text>
<text filter="url(#solid)" x="708" y="892" stroke-width="1">93/89</text>
<text filter="url(#solid)" x="791" y="907" stroke-width="1">67/61</text>
<text filter="url(#solid)" x="625" y="797" stroke-width="1">52/52</text>
<text filter="url(#solid)" x="708" y="817" stroke-width="1">60/53</text>
<text filter="url(#solid)" x="791" y="837" stroke-width="1">67/72</text>
<text filter="url(#solid)" x="921" y="1232" stroke-width="1">99/99</text>
<text filter="url(#solid)" x="1004" y="1247" stroke-width="1">51/54</text>
<text filter="url(#solid)" x="791" y="971" stroke-width="1">4/0</text>
<text filter="url(#solid)" x="838" y="996" stroke-width="1">[10]/[9]</text>
<text filter="url(#solid)" x="930" y="1015" stroke-width="1">12/4</text>
<text filter="url(#solid)" x="986" y="1034" stroke-width="1">62/67</text>
<text filter="url(#solid)" x="782" y="592" stroke-width="1">100/100</text>
<text filter="url(#solid)" x="883" y="627" stroke-width="1">63/66</text>
<text filter="url(#solid)" x="515" y="312" stroke-width="1">100/99</text>
<text filter="url(#solid)" x="607" y="327" stroke-width="1">44/32</text>
<text filter="url(#solid)" x="210" y="82" stroke-width="1">78/73</text>
<text filter="url(#solid)" x="293" y="107" stroke-width="1">28/28</text>
<text filter="url(#solid)" x="376" y="87" stroke-width="1">86/85</text>
<text filter="url(#solid)" x="459" y="370" stroke-width="1">13/0</text>
<text filter="url(#solid)" x="515" y="429" stroke-width="1">99/99</text>
<text filter="url(#solid)" x="598" y="491" stroke-width="1">95/89</text>
<text filter="url(#solid)" x="681" y="559" stroke-width="1">100/100</text>
<text filter="url(#solid)" x="782" y="527" stroke-width="1">100/100</text>
<text filter="url(#solid)" x="26" y="117" stroke-width="1">100/100</text>
<text filter="url(#solid)" x="127" y="198" stroke-width="1">99/99</text>
<text filter="url(#solid)" x="210" y="314" stroke-width="1">97/95</text>
<text filter="url(#solid)" x="293" y="427" stroke-width="1">23/14</text>
<text filter="url(#solid)" x="376" y="577" stroke-width="1">66/66</text>
<text filter="url(#solid)" x="459" y="784" stroke-width="1">58/52</text>
<text filter="url(#solid)" x="542" y="892" stroke-width="1">42/36</text>
<text filter="url(#solid)" x="625" y="988" stroke-width="1">21/13</text>
<text filter="url(#solid)" x="708" y="1085" stroke-width="1">24/21</text>
<text filter="url(#solid)" x="791" y="1200" stroke-width="1">1/0</text>
<text filter="url(#solid)" x="838" y="1278" stroke-width="1">45/43</text>
<text filter="url(#solid)" x="921" y="1324" stroke-width="1">100/100</text>
<text filter="url(#solid)" x="1022" y="1372" stroke-width="1">60/60</text>
<text filter="url(#solid)" x="1105" y="1417" stroke-width="1">66/71</text>
<text filter="url(#solid)" x="6" y="67" stroke-width="1">/</text>
<text filter="url(#solid)" x="625" y="657" stroke-width="1">/</text>
<text filter="url(#solid)" x="441" y="157" stroke-width="1">/</text>
<text filter="url(#solid)" x="1235" y="1057" stroke-width="1">/</text>
<text filter="url(#solid)" x="791" y="797" stroke-width="1">/</text>
<text filter="url(#solid)" x="1188" y="1377" stroke-width="1">/</text>
<text filter="url(#solid)" x="524" y="177" stroke-width="1">/</text>
<text filter="url(#solid)" x="986" y="997" stroke-width="1">/</text>
<text filter="url(#solid)" x="690" y="317" stroke-width="1">/</text>
<text filter="url(#solid)" x="1188" y="1397" stroke-width="1">/</text>
<text filter="url(#solid)" x="1188" y="1417" stroke-width="1">/</text>
<text filter="url(#solid)" x="883" y="557" stroke-width="1">/</text>
<text filter="url(#solid)" x="699" y="357" stroke-width="1">/</text>
<text filter="url(#solid)" x="957" y="737" stroke-width="1">/</text>
<text filter="url(#solid)" x="874" y="817" stroke-width="1">/</text>
<text filter="url(#solid)" x="293" y="57" stroke-width="1">/</text>
<text filter="url(#solid)" x="1087" y="1237" stroke-width="1">/</text>
<text filter="url(#solid)" x="459" y="77" stroke-width="1">/</text>
<text filter="url(#solid)" x="874" y="837" stroke-width="1">/</text>
<text filter="url(#solid)" x="1188" y="1297" stroke-width="1">/</text>
<text filter="url(#solid)" x="883" y="517" stroke-width="1">/</text>
<text filter="url(#solid)" x="127" y="37" stroke-width="1">/</text>
<text filter="url(#solid)" x="791" y="877" stroke-width="1">/</text>
<text filter="url(#solid)" x="450" y="217" stroke-width="1">/</text>
<text filter="url(#solid)" x="865" y="417" stroke-width="1">/</text>
<text filter="url(#solid)" x="948" y="477" stroke-width="1">/</text>
<text filter="url(#solid)" x="376" y="277" stroke-width="1">/</text>
<text filter="url(#solid)" x="948" y="497" stroke-width="1">/</text>
<text filter="url(#solid)" x="459" y="117" stroke-width="1">/</text>
<text filter="url(#solid)" x="1170" y="1177" stroke-width="1">/</text>
<text filter="url(#solid)" x="699" y="377" stroke-width="1">/</text>
<text filter="url(#solid)" x="883" y="577" stroke-width="1">/</text>
<text filter="url(#solid)" x="524" y="197" stroke-width="1">/</text>
<text filter="url(#solid)" x="930" y="977" stroke-width="1">/</text>
<text filter="url(#solid)" x="607" y="297" stroke-width="1">/</text>
<text filter="url(#solid)" x="708" y="677" stroke-width="1">/</text>
<text filter="url(#solid)" x="791" y="697" stroke-width="1">/</text>
<text filter="url(#solid)" x="874" y="897" stroke-width="1">/</text>
<text filter="url(#solid)" x="865" y="437" stroke-width="1">/</text>
<text filter="url(#solid)" x="921" y="937" stroke-width="1">/</text>
<text filter="url(#solid)" x="1087" y="1117" stroke-width="1">/</text>
<text filter="url(#solid)" x="1087" y="1137" stroke-width="1">/</text>
<text filter="url(#solid)" x="957" y="757" stroke-width="1">/</text>
<text filter="url(#solid)" x="1022" y="1277" stroke-width="1">/</text>
<text filter="url(#solid)" x="966" y="617" stroke-width="1">/</text>
<text filter="url(#solid)" x="533" y="237" stroke-width="1">/</text>
<text filter="url(#solid)" x="865" y="457" stroke-width="1">/</text>
<text filter="url(#solid)" x="1152" y="1037" stroke-width="1">/</text>
<text filter="url(#solid)" x="1170" y="1197" stroke-width="1">/</text>
<text filter="url(#solid)" x="1188" y="1317" stroke-width="1">/</text>
<text filter="url(#solid)" x="1235" y="1077" stroke-width="1">/</text>
<text filter="url(#solid)" x="874" y="717" stroke-width="1">/</text>
<text filter="url(#solid)" x="1188" y="1337" stroke-width="1">/</text>
<text filter="url(#solid)" x="708" y="777" stroke-width="1">/</text>
<text filter="url(#solid)" x="459" y="137" stroke-width="1">/</text>
<text filter="url(#solid)" x="1004" y="1217" stroke-width="1">/</text>
<text filter="url(#solid)" x="921" y="957" stroke-width="1">/</text>
<text filter="url(#solid)" x="1087" y="1157" stroke-width="1">/</text>
<text filter="url(#solid)" x="533" y="257" stroke-width="1">/</text>
<text filter="url(#solid)" x="921" y="1097" stroke-width="1">/</text>
<text filter="url(#solid)" x="1188" y="1357" stroke-width="1">/</text>
<text filter="url(#solid)" x="782" y="397" stroke-width="1">/</text>
<text filter="url(#solid)" x="874" y="917" stroke-width="1">/</text>
<text filter="url(#solid)" x="874" y="857" stroke-width="1">/</text>
<text filter="url(#solid)" x="1087" y="1257" stroke-width="1">/</text>
<text filter="url(#solid)" x="1069" y="1017" stroke-width="1">/</text>
<text filter="url(#solid)" x="883" y="597" stroke-width="1">/</text>
<text filter="url(#solid)" x="966" y="637" stroke-width="1">/</text>
<text filter="url(#solid)" x="690" y="337" stroke-width="1">/</text>
<text filter="url(#solid)" x="459" y="97" stroke-width="1">/</text>
<text filter="url(#solid)" x="1188" y="1437" stroke-width="1">/</text>
<text filter="url(#solid)" x="883" y="537" stroke-width="1">/</text>
<text filter="url(#solid)" x="1188" y="1457" stroke-width="1">/</text>
<text filter="url(#solid)" x="26" y="17" stroke-width="1">/</text>
</g>
</svg>
