<?xml version="1.0" encoding="utf-8" standalone="no"?>
<!DOCTYPE svg PUBLIC "-//W3C//DTD SVG 1.1//EN"
  "http://www.w3.org/Graphics/SVG/1.1/DTD/svg11.dtd">
<svg xmlns:xlink="http://www.w3.org/1999/xlink" width="864pt" height="288pt" viewBox="0 0 864 288" xmlns="http://www.w3.org/2000/svg" version="1.1">
 <metadata>
  <rdf:RDF xmlns:dc="http://purl.org/dc/elements/1.1/" xmlns:cc="http://creativecommons.org/ns#" xmlns:rdf="http://www.w3.org/1999/02/22-rdf-syntax-ns#">
   <cc:Work>
    <dc:type rdf:resource="http://purl.org/dc/dcmitype/StillImage"/>
    <dc:date>2025-03-14T13:55:52.669774</dc:date>
    <dc:format>image/svg+xml</dc:format>
    <dc:creator>
     <cc:Agent>
      <dc:title>Matplotlib v3.10.0, https://matplotlib.org/</dc:title>
     </cc:Agent>
    </dc:creator>
   </cc:Work>
  </rdf:RDF>
 </metadata>
 <defs>
  <style type="text/css">*{stroke-linejoin: round; stroke-linecap: butt}</style>
 </defs>
 <g id="figure_1">
  <g id="patch_1">
   <path d="M 0 288 
L 864 288 
L 864 0 
L 0 0 
z
" style="fill: #ffffff"/>
  </g>
  <g id="axes_1">
   <g id="patch_2">
    <path d="M 44.66 218.736 
L 207.89318 218.736 
L 207.89318 25.44 
L 44.66 25.44 
z
" style="fill: #ffffff"/>
   </g>
   <g id="patch_3">
    <path d="M 52.07969 218.736 
L 86.324413 218.736 
L 86.324413 210.106714 
L 52.07969 210.106714 
z
" clip-path="url(#p566b7cfc14)" style="fill: #75ff66"/>
   </g>
   <g id="patch_4">
    <path d="M 52.07969 210.106714 
L 86.324413 210.106714 
L 86.324413 198.601 
L 52.07969 198.601 
z
" clip-path="url(#p566b7cfc14)" style="fill: #ff888a"/>
   </g>
   <g id="patch_5">
    <path d="M 52.07969 198.601 
L 86.324413 198.601 
L 86.324413 169.836714 
L 52.07969 169.836714 
z
" clip-path="url(#p566b7cfc14)" style="fill: #ede100"/>
   </g>
   <g id="patch_6">
    <path d="M 166.228767 218.736 
L 200.47349 218.736 
L 200.47349 215.859571 
L 166.228767 215.859571 
z
" clip-path="url(#p566b7cfc14)" style="fill: #75ff66"/>
   </g>
   <g id="patch_7">
    <path d="M 166.228767 215.859571 
L 200.47349 215.859571 
L 200.47349 192.848143 
L 166.228767 192.848143 
z
" clip-path="url(#p566b7cfc14)" style="fill: #48b9ff"/>
   </g>
   <g id="patch_8">
    <path d="M 166.228767 192.848143 
L 200.47349 192.848143 
L 200.47349 49.026714 
L 166.228767 49.026714 
z
" clip-path="url(#p566b7cfc14)" style="fill: #ff888a"/>
   </g>
   <g id="patch_9">
    <path d="M 166.228767 49.026714 
L 200.47349 49.026714 
L 200.47349 43.273857 
L 166.228767 43.273857 
z
" clip-path="url(#p566b7cfc14)" style="fill: #ede100"/>
   </g>
   <g id="patch_10">
    <path d="M 166.228767 43.273857 
L 200.47349 43.273857 
L 200.47349 40.397429 
L 166.228767 40.397429 
z
" clip-path="url(#p566b7cfc14)" style="fill: #0057b7"/>
   </g>
   <g id="patch_11">
    <path d="M 166.228767 40.397429 
L 200.47349 40.397429 
L 200.47349 34.644571 
L 166.228767 34.644571 
z
" clip-path="url(#p566b7cfc14)" style="fill: #b3b3b3"/>
   </g>
   <g id="matplotlib.axis_1">
    <g id="xtick_1">
     <g id="line2d_1">
      <defs>
       <path id="mc281886003" d="M 0 0 
L 0 3.5 
" style="stroke: #000000; stroke-width: 0.8"/>
      </defs>
      <g>
       <use xlink:href="#mc281886003" x="69.202051" y="218.736" style="stroke: #000000; stroke-width: 0.8"/>
      </g>
     </g>
     <g id="text_1">
      <!-- Cluster 0 -->
      <g transform="translate(46.685645 233.334437) scale(0.1 -0.1)">
       <defs>
        <path id="DejaVuSans-43" d="M 4122 4306 
L 4122 3641 
Q 3803 3938 3442 4084 
Q 3081 4231 2675 4231 
Q 1875 4231 1450 3742 
Q 1025 3253 1025 2328 
Q 1025 1406 1450 917 
Q 1875 428 2675 428 
Q 3081 428 3442 575 
Q 3803 722 4122 1019 
L 4122 359 
Q 3791 134 3420 21 
Q 3050 -91 2638 -91 
Q 1578 -91 968 557 
Q 359 1206 359 2328 
Q 359 3453 968 4101 
Q 1578 4750 2638 4750 
Q 3056 4750 3426 4639 
Q 3797 4528 4122 4306 
z
" transform="scale(0.015625)"/>
        <path id="DejaVuSans-6c" d="M 603 4863 
L 1178 4863 
L 1178 0 
L 603 0 
L 603 4863 
z
" transform="scale(0.015625)"/>
        <path id="DejaVuSans-75" d="M 544 1381 
L 544 3500 
L 1119 3500 
L 1119 1403 
Q 1119 906 1312 657 
Q 1506 409 1894 409 
Q 2359 409 2629 706 
Q 2900 1003 2900 1516 
L 2900 3500 
L 3475 3500 
L 3475 0 
L 2900 0 
L 2900 538 
Q 2691 219 2414 64 
Q 2138 -91 1772 -91 
Q 1169 -91 856 284 
Q 544 659 544 1381 
z
M 1991 3584 
L 1991 3584 
z
" transform="scale(0.015625)"/>
        <path id="DejaVuSans-73" d="M 2834 3397 
L 2834 2853 
Q 2591 2978 2328 3040 
Q 2066 3103 1784 3103 
Q 1356 3103 1142 2972 
Q 928 2841 928 2578 
Q 928 2378 1081 2264 
Q 1234 2150 1697 2047 
L 1894 2003 
Q 2506 1872 2764 1633 
Q 3022 1394 3022 966 
Q 3022 478 2636 193 
Q 2250 -91 1575 -91 
Q 1294 -91 989 -36 
Q 684 19 347 128 
L 347 722 
Q 666 556 975 473 
Q 1284 391 1588 391 
Q 1994 391 2212 530 
Q 2431 669 2431 922 
Q 2431 1156 2273 1281 
Q 2116 1406 1581 1522 
L 1381 1569 
Q 847 1681 609 1914 
Q 372 2147 372 2553 
Q 372 3047 722 3315 
Q 1072 3584 1716 3584 
Q 2034 3584 2315 3537 
Q 2597 3491 2834 3397 
z
" transform="scale(0.015625)"/>
        <path id="DejaVuSans-74" d="M 1172 4494 
L 1172 3500 
L 2356 3500 
L 2356 3053 
L 1172 3053 
L 1172 1153 
Q 1172 725 1289 603 
Q 1406 481 1766 481 
L 2356 481 
L 2356 0 
L 1766 0 
Q 1100 0 847 248 
Q 594 497 594 1153 
L 594 3053 
L 172 3053 
L 172 3500 
L 594 3500 
L 594 4494 
L 1172 4494 
z
" transform="scale(0.015625)"/>
        <path id="DejaVuSans-65" d="M 3597 1894 
L 3597 1613 
L 953 1613 
Q 991 1019 1311 708 
Q 1631 397 2203 397 
Q 2534 397 2845 478 
Q 3156 559 3463 722 
L 3463 178 
Q 3153 47 2828 -22 
Q 2503 -91 2169 -91 
Q 1331 -91 842 396 
Q 353 884 353 1716 
Q 353 2575 817 3079 
Q 1281 3584 2069 3584 
Q 2775 3584 3186 3129 
Q 3597 2675 3597 1894 
z
M 3022 2063 
Q 3016 2534 2758 2815 
Q 2500 3097 2075 3097 
Q 1594 3097 1305 2825 
Q 1016 2553 972 2059 
L 3022 2063 
z
" transform="scale(0.015625)"/>
        <path id="DejaVuSans-72" d="M 2631 2963 
Q 2534 3019 2420 3045 
Q 2306 3072 2169 3072 
Q 1681 3072 1420 2755 
Q 1159 2438 1159 1844 
L 1159 0 
L 581 0 
L 581 3500 
L 1159 3500 
L 1159 2956 
Q 1341 3275 1631 3429 
Q 1922 3584 2338 3584 
Q 2397 3584 2469 3576 
Q 2541 3569 2628 3553 
L 2631 2963 
z
" transform="scale(0.015625)"/>
        <path id="DejaVuSans-20" transform="scale(0.015625)"/>
        <path id="DejaVuSans-30" d="M 2034 4250 
Q 1547 4250 1301 3770 
Q 1056 3291 1056 2328 
Q 1056 1369 1301 889 
Q 1547 409 2034 409 
Q 2525 409 2770 889 
Q 3016 1369 3016 2328 
Q 3016 3291 2770 3770 
Q 2525 4250 2034 4250 
z
M 2034 4750 
Q 2819 4750 3233 4129 
Q 3647 3509 3647 2328 
Q 3647 1150 3233 529 
Q 2819 -91 2034 -91 
Q 1250 -91 836 529 
Q 422 1150 422 2328 
Q 422 3509 836 4129 
Q 1250 4750 2034 4750 
z
" transform="scale(0.015625)"/>
       </defs>
       <use xlink:href="#DejaVuSans-43"/>
       <use xlink:href="#DejaVuSans-6c" transform="translate(69.824219 0)"/>
       <use xlink:href="#DejaVuSans-75" transform="translate(97.607422 0)"/>
       <use xlink:href="#DejaVuSans-73" transform="translate(160.986328 0)"/>
       <use xlink:href="#DejaVuSans-74" transform="translate(213.085938 0)"/>
       <use xlink:href="#DejaVuSans-65" transform="translate(252.294922 0)"/>
       <use xlink:href="#DejaVuSans-72" transform="translate(313.818359 0)"/>
       <use xlink:href="#DejaVuSans-20" transform="translate(354.931641 0)"/>
       <use xlink:href="#DejaVuSans-30" transform="translate(386.71875 0)"/>
      </g>
     </g>
    </g>
    <g id="xtick_2">
     <g id="line2d_2">
      <g>
       <use xlink:href="#mc281886003" x="183.351128" y="218.736" style="stroke: #000000; stroke-width: 0.8"/>
      </g>
     </g>
     <g id="text_2">
      <!-- Cluster 1 -->
      <g transform="translate(160.834722 233.334437) scale(0.1 -0.1)">
       <defs>
        <path id="DejaVuSans-31" d="M 794 531 
L 1825 531 
L 1825 4091 
L 703 3866 
L 703 4441 
L 1819 4666 
L 2450 4666 
L 2450 531 
L 3481 531 
L 3481 0 
L 794 0 
L 794 531 
z
" transform="scale(0.015625)"/>
       </defs>
       <use xlink:href="#DejaVuSans-43"/>
       <use xlink:href="#DejaVuSans-6c" transform="translate(69.824219 0)"/>
       <use xlink:href="#DejaVuSans-75" transform="translate(97.607422 0)"/>
       <use xlink:href="#DejaVuSans-73" transform="translate(160.986328 0)"/>
       <use xlink:href="#DejaVuSans-74" transform="translate(213.085938 0)"/>
       <use xlink:href="#DejaVuSans-65" transform="translate(252.294922 0)"/>
       <use xlink:href="#DejaVuSans-72" transform="translate(313.818359 0)"/>
       <use xlink:href="#DejaVuSans-20" transform="translate(354.931641 0)"/>
       <use xlink:href="#DejaVuSans-31" transform="translate(386.71875 0)"/>
      </g>
     </g>
    </g>
   </g>
   <g id="matplotlib.axis_2">
    <g id="ytick_1">
     <g id="line2d_3">
      <defs>
       <path id="mc1fe84531a" d="M 0 0 
L -3.5 0 
" style="stroke: #000000; stroke-width: 0.8"/>
      </defs>
      <g>
       <use xlink:href="#mc1fe84531a" x="44.66" y="218.736" style="stroke: #000000; stroke-width: 0.8"/>
      </g>
     </g>
     <g id="text_3">
      <!-- 0 -->
      <g transform="translate(31.2975 222.535219) scale(0.1 -0.1)">
       <use xlink:href="#DejaVuSans-30"/>
      </g>
     </g>
    </g>
    <g id="ytick_2">
     <g id="line2d_4">
      <g>
       <use xlink:href="#mc1fe84531a" x="44.66" y="189.971714" style="stroke: #000000; stroke-width: 0.8"/>
      </g>
     </g>
     <g id="text_4">
      <!-- 10 -->
      <g transform="translate(24.935 193.770933) scale(0.1 -0.1)">
       <use xlink:href="#DejaVuSans-31"/>
       <use xlink:href="#DejaVuSans-30" transform="translate(63.623047 0)"/>
      </g>
     </g>
    </g>
    <g id="ytick_3">
     <g id="line2d_5">
      <g>
       <use xlink:href="#mc1fe84531a" x="44.66" y="161.207429" style="stroke: #000000; stroke-width: 0.8"/>
      </g>
     </g>
     <g id="text_5">
      <!-- 20 -->
      <g transform="translate(24.935 165.006647) scale(0.1 -0.1)">
       <defs>
        <path id="DejaVuSans-32" d="M 1228 531 
L 3431 531 
L 3431 0 
L 469 0 
L 469 531 
Q 828 903 1448 1529 
Q 2069 2156 2228 2338 
Q 2531 2678 2651 2914 
Q 2772 3150 2772 3378 
Q 2772 3750 2511 3984 
Q 2250 4219 1831 4219 
Q 1534 4219 1204 4116 
Q 875 4013 500 3803 
L 500 4441 
Q 881 4594 1212 4672 
Q 1544 4750 1819 4750 
Q 2544 4750 2975 4387 
Q 3406 4025 3406 3419 
Q 3406 3131 3298 2873 
Q 3191 2616 2906 2266 
Q 2828 2175 2409 1742 
Q 1991 1309 1228 531 
z
" transform="scale(0.015625)"/>
       </defs>
       <use xlink:href="#DejaVuSans-32"/>
       <use xlink:href="#DejaVuSans-30" transform="translate(63.623047 0)"/>
      </g>
     </g>
    </g>
    <g id="ytick_4">
     <g id="line2d_6">
      <g>
       <use xlink:href="#mc1fe84531a" x="44.66" y="132.443143" style="stroke: #000000; stroke-width: 0.8"/>
      </g>
     </g>
     <g id="text_6">
      <!-- 30 -->
      <g transform="translate(24.935 136.242362) scale(0.1 -0.1)">
       <defs>
        <path id="DejaVuSans-33" d="M 2597 2516 
Q 3050 2419 3304 2112 
Q 3559 1806 3559 1356 
Q 3559 666 3084 287 
Q 2609 -91 1734 -91 
Q 1441 -91 1130 -33 
Q 819 25 488 141 
L 488 750 
Q 750 597 1062 519 
Q 1375 441 1716 441 
Q 2309 441 2620 675 
Q 2931 909 2931 1356 
Q 2931 1769 2642 2001 
Q 2353 2234 1838 2234 
L 1294 2234 
L 1294 2753 
L 1863 2753 
Q 2328 2753 2575 2939 
Q 2822 3125 2822 3475 
Q 2822 3834 2567 4026 
Q 2313 4219 1838 4219 
Q 1578 4219 1281 4162 
Q 984 4106 628 3988 
L 628 4550 
Q 988 4650 1302 4700 
Q 1616 4750 1894 4750 
Q 2613 4750 3031 4423 
Q 3450 4097 3450 3541 
Q 3450 3153 3228 2886 
Q 3006 2619 2597 2516 
z
" transform="scale(0.015625)"/>
       </defs>
       <use xlink:href="#DejaVuSans-33"/>
       <use xlink:href="#DejaVuSans-30" transform="translate(63.623047 0)"/>
      </g>
     </g>
    </g>
    <g id="ytick_5">
     <g id="line2d_7">
      <g>
       <use xlink:href="#mc1fe84531a" x="44.66" y="103.678857" style="stroke: #000000; stroke-width: 0.8"/>
      </g>
     </g>
     <g id="text_7">
      <!-- 40 -->
      <g transform="translate(24.935 107.478076) scale(0.1 -0.1)">
       <defs>
        <path id="DejaVuSans-34" d="M 2419 4116 
L 825 1625 
L 2419 1625 
L 2419 4116 
z
M 2253 4666 
L 3047 4666 
L 3047 1625 
L 3713 1625 
L 3713 1100 
L 3047 1100 
L 3047 0 
L 2419 0 
L 2419 1100 
L 313 1100 
L 313 1709 
L 2253 4666 
z
" transform="scale(0.015625)"/>
       </defs>
       <use xlink:href="#DejaVuSans-34"/>
       <use xlink:href="#DejaVuSans-30" transform="translate(63.623047 0)"/>
      </g>
     </g>
    </g>
    <g id="ytick_6">
     <g id="line2d_8">
      <g>
       <use xlink:href="#mc1fe84531a" x="44.66" y="74.914571" style="stroke: #000000; stroke-width: 0.8"/>
      </g>
     </g>
     <g id="text_8">
      <!-- 50 -->
      <g transform="translate(24.935 78.71379) scale(0.1 -0.1)">
       <defs>
        <path id="DejaVuSans-35" d="M 691 4666 
L 3169 4666 
L 3169 4134 
L 1269 4134 
L 1269 2991 
Q 1406 3038 1543 3061 
Q 1681 3084 1819 3084 
Q 2600 3084 3056 2656 
Q 3513 2228 3513 1497 
Q 3513 744 3044 326 
Q 2575 -91 1722 -91 
Q 1428 -91 1123 -41 
Q 819 9 494 109 
L 494 744 
Q 775 591 1075 516 
Q 1375 441 1709 441 
Q 2250 441 2565 725 
Q 2881 1009 2881 1497 
Q 2881 1984 2565 2268 
Q 2250 2553 1709 2553 
Q 1456 2553 1204 2497 
Q 953 2441 691 2322 
L 691 4666 
z
" transform="scale(0.015625)"/>
       </defs>
       <use xlink:href="#DejaVuSans-35"/>
       <use xlink:href="#DejaVuSans-30" transform="translate(63.623047 0)"/>
      </g>
     </g>
    </g>
    <g id="ytick_7">
     <g id="line2d_9">
      <g>
       <use xlink:href="#mc1fe84531a" x="44.66" y="46.150286" style="stroke: #000000; stroke-width: 0.8"/>
      </g>
     </g>
     <g id="text_9">
      <!-- 60 -->
      <g transform="translate(24.935 49.949504) scale(0.1 -0.1)">
       <defs>
        <path id="DejaVuSans-36" d="M 2113 2584 
Q 1688 2584 1439 2293 
Q 1191 2003 1191 1497 
Q 1191 994 1439 701 
Q 1688 409 2113 409 
Q 2538 409 2786 701 
Q 3034 994 3034 1497 
Q 3034 2003 2786 2293 
Q 2538 2584 2113 2584 
z
M 3366 4563 
L 3366 3988 
Q 3128 4100 2886 4159 
Q 2644 4219 2406 4219 
Q 1781 4219 1451 3797 
Q 1122 3375 1075 2522 
Q 1259 2794 1537 2939 
Q 1816 3084 2150 3084 
Q 2853 3084 3261 2657 
Q 3669 2231 3669 1497 
Q 3669 778 3244 343 
Q 2819 -91 2113 -91 
Q 1303 -91 875 529 
Q 447 1150 447 2328 
Q 447 3434 972 4092 
Q 1497 4750 2381 4750 
Q 2619 4750 2861 4703 
Q 3103 4656 3366 4563 
z
" transform="scale(0.015625)"/>
       </defs>
       <use xlink:href="#DejaVuSans-36"/>
       <use xlink:href="#DejaVuSans-30" transform="translate(63.623047 0)"/>
      </g>
     </g>
    </g>
    <g id="text_10">
     <!-- Count -->
     <g transform="translate(18.855313 136.936437) rotate(-90) scale(0.1 -0.1)">
      <defs>
       <path id="DejaVuSans-6f" d="M 1959 3097 
Q 1497 3097 1228 2736 
Q 959 2375 959 1747 
Q 959 1119 1226 758 
Q 1494 397 1959 397 
Q 2419 397 2687 759 
Q 2956 1122 2956 1747 
Q 2956 2369 2687 2733 
Q 2419 3097 1959 3097 
z
M 1959 3584 
Q 2709 3584 3137 3096 
Q 3566 2609 3566 1747 
Q 3566 888 3137 398 
Q 2709 -91 1959 -91 
Q 1206 -91 779 398 
Q 353 888 353 1747 
Q 353 2609 779 3096 
Q 1206 3584 1959 3584 
z
" transform="scale(0.015625)"/>
       <path id="DejaVuSans-6e" d="M 3513 2113 
L 3513 0 
L 2938 0 
L 2938 2094 
Q 2938 2591 2744 2837 
Q 2550 3084 2163 3084 
Q 1697 3084 1428 2787 
Q 1159 2491 1159 1978 
L 1159 0 
L 581 0 
L 581 3500 
L 1159 3500 
L 1159 2956 
Q 1366 3272 1645 3428 
Q 1925 3584 2291 3584 
Q 2894 3584 3203 3211 
Q 3513 2838 3513 2113 
z
" transform="scale(0.015625)"/>
      </defs>
      <use xlink:href="#DejaVuSans-43"/>
      <use xlink:href="#DejaVuSans-6f" transform="translate(69.824219 0)"/>
      <use xlink:href="#DejaVuSans-75" transform="translate(131.005859 0)"/>
      <use xlink:href="#DejaVuSans-6e" transform="translate(194.384766 0)"/>
      <use xlink:href="#DejaVuSans-74" transform="translate(257.763672 0)"/>
     </g>
    </g>
   </g>
   <g id="patch_12">
    <path d="M 44.66 218.736 
L 44.66 25.44 
" style="fill: none; stroke: #000000; stroke-width: 0.8; stroke-linejoin: miter; stroke-linecap: square"/>
   </g>
   <g id="patch_13">
    <path d="M 207.89318 218.736 
L 207.89318 25.44 
" style="fill: none; stroke: #000000; stroke-width: 0.8; stroke-linejoin: miter; stroke-linecap: square"/>
   </g>
   <g id="patch_14">
    <path d="M 44.66 218.736 
L 207.89318 218.736 
" style="fill: none; stroke: #000000; stroke-width: 0.8; stroke-linejoin: miter; stroke-linecap: square"/>
   </g>
   <g id="patch_15">
    <path d="M 44.66 25.44 
L 207.89318 25.44 
" style="fill: none; stroke: #000000; stroke-width: 0.8; stroke-linejoin: miter; stroke-linecap: square"/>
   </g>
   <g id="text_11">
    <!-- A -->
    <g transform="translate(52.821659 256.848525) scale(0.12 -0.12)">
     <defs>
      <path id="DejaVuSans-Bold-41" d="M 3419 850 
L 1538 850 
L 1241 0 
L 31 0 
L 1759 4666 
L 3194 4666 
L 4922 0 
L 3713 0 
L 3419 850 
z
M 1838 1716 
L 3116 1716 
L 2478 3572 
L 1838 1716 
z
" transform="scale(0.015625)"/>
     </defs>
     <use xlink:href="#DejaVuSans-Bold-41"/>
    </g>
   </g>
   <g id="text_12">
    <!-- flagellum tip shape -->
    <g transform="translate(68.591277 19.44) scale(0.12 -0.12)">
     <defs>
      <path id="DejaVuSans-66" d="M 2375 4863 
L 2375 4384 
L 1825 4384 
Q 1516 4384 1395 4259 
Q 1275 4134 1275 3809 
L 1275 3500 
L 2222 3500 
L 2222 3053 
L 1275 3053 
L 1275 0 
L 697 0 
L 697 3053 
L 147 3053 
L 147 3500 
L 697 3500 
L 697 3744 
Q 697 4328 969 4595 
Q 1241 4863 1831 4863 
L 2375 4863 
z
" transform="scale(0.015625)"/>
      <path id="DejaVuSans-61" d="M 2194 1759 
Q 1497 1759 1228 1600 
Q 959 1441 959 1056 
Q 959 750 1161 570 
Q 1363 391 1709 391 
Q 2188 391 2477 730 
Q 2766 1069 2766 1631 
L 2766 1759 
L 2194 1759 
z
M 3341 1997 
L 3341 0 
L 2766 0 
L 2766 531 
Q 2569 213 2275 61 
Q 1981 -91 1556 -91 
Q 1019 -91 701 211 
Q 384 513 384 1019 
Q 384 1609 779 1909 
Q 1175 2209 1959 2209 
L 2766 2209 
L 2766 2266 
Q 2766 2663 2505 2880 
Q 2244 3097 1772 3097 
Q 1472 3097 1187 3025 
Q 903 2953 641 2809 
L 641 3341 
Q 956 3463 1253 3523 
Q 1550 3584 1831 3584 
Q 2591 3584 2966 3190 
Q 3341 2797 3341 1997 
z
" transform="scale(0.015625)"/>
      <path id="DejaVuSans-67" d="M 2906 1791 
Q 2906 2416 2648 2759 
Q 2391 3103 1925 3103 
Q 1463 3103 1205 2759 
Q 947 2416 947 1791 
Q 947 1169 1205 825 
Q 1463 481 1925 481 
Q 2391 481 2648 825 
Q 2906 1169 2906 1791 
z
M 3481 434 
Q 3481 -459 3084 -895 
Q 2688 -1331 1869 -1331 
Q 1566 -1331 1297 -1286 
Q 1028 -1241 775 -1147 
L 775 -588 
Q 1028 -725 1275 -790 
Q 1522 -856 1778 -856 
Q 2344 -856 2625 -561 
Q 2906 -266 2906 331 
L 2906 616 
Q 2728 306 2450 153 
Q 2172 0 1784 0 
Q 1141 0 747 490 
Q 353 981 353 1791 
Q 353 2603 747 3093 
Q 1141 3584 1784 3584 
Q 2172 3584 2450 3431 
Q 2728 3278 2906 2969 
L 2906 3500 
L 3481 3500 
L 3481 434 
z
" transform="scale(0.015625)"/>
      <path id="DejaVuSans-6d" d="M 3328 2828 
Q 3544 3216 3844 3400 
Q 4144 3584 4550 3584 
Q 5097 3584 5394 3201 
Q 5691 2819 5691 2113 
L 5691 0 
L 5113 0 
L 5113 2094 
Q 5113 2597 4934 2840 
Q 4756 3084 4391 3084 
Q 3944 3084 3684 2787 
Q 3425 2491 3425 1978 
L 3425 0 
L 2847 0 
L 2847 2094 
Q 2847 2600 2669 2842 
Q 2491 3084 2119 3084 
Q 1678 3084 1418 2786 
Q 1159 2488 1159 1978 
L 1159 0 
L 581 0 
L 581 3500 
L 1159 3500 
L 1159 2956 
Q 1356 3278 1631 3431 
Q 1906 3584 2284 3584 
Q 2666 3584 2933 3390 
Q 3200 3197 3328 2828 
z
" transform="scale(0.015625)"/>
      <path id="DejaVuSans-69" d="M 603 3500 
L 1178 3500 
L 1178 0 
L 603 0 
L 603 3500 
z
M 603 4863 
L 1178 4863 
L 1178 4134 
L 603 4134 
L 603 4863 
z
" transform="scale(0.015625)"/>
      <path id="DejaVuSans-70" d="M 1159 525 
L 1159 -1331 
L 581 -1331 
L 581 3500 
L 1159 3500 
L 1159 2969 
Q 1341 3281 1617 3432 
Q 1894 3584 2278 3584 
Q 2916 3584 3314 3078 
Q 3713 2572 3713 1747 
Q 3713 922 3314 415 
Q 2916 -91 2278 -91 
Q 1894 -91 1617 61 
Q 1341 213 1159 525 
z
M 3116 1747 
Q 3116 2381 2855 2742 
Q 2594 3103 2138 3103 
Q 1681 3103 1420 2742 
Q 1159 2381 1159 1747 
Q 1159 1113 1420 752 
Q 1681 391 2138 391 
Q 2594 391 2855 752 
Q 3116 1113 3116 1747 
z
" transform="scale(0.015625)"/>
      <path id="DejaVuSans-68" d="M 3513 2113 
L 3513 0 
L 2938 0 
L 2938 2094 
Q 2938 2591 2744 2837 
Q 2550 3084 2163 3084 
Q 1697 3084 1428 2787 
Q 1159 2491 1159 1978 
L 1159 0 
L 581 0 
L 581 4863 
L 1159 4863 
L 1159 2956 
Q 1366 3272 1645 3428 
Q 1925 3584 2291 3584 
Q 2894 3584 3203 3211 
Q 3513 2838 3513 2113 
z
" transform="scale(0.015625)"/>
     </defs>
     <use xlink:href="#DejaVuSans-66"/>
     <use xlink:href="#DejaVuSans-6c" transform="translate(35.205078 0)"/>
     <use xlink:href="#DejaVuSans-61" transform="translate(62.988281 0)"/>
     <use xlink:href="#DejaVuSans-67" transform="translate(124.267578 0)"/>
     <use xlink:href="#DejaVuSans-65" transform="translate(187.744141 0)"/>
     <use xlink:href="#DejaVuSans-6c" transform="translate(249.267578 0)"/>
     <use xlink:href="#DejaVuSans-6c" transform="translate(277.050781 0)"/>
     <use xlink:href="#DejaVuSans-75" transform="translate(304.833984 0)"/>
     <use xlink:href="#DejaVuSans-6d" transform="translate(368.212891 0)"/>
     <use xlink:href="#DejaVuSans-20" transform="translate(465.625 0)"/>
     <use xlink:href="#DejaVuSans-74" transform="translate(497.412109 0)"/>
     <use xlink:href="#DejaVuSans-69" transform="translate(536.621094 0)"/>
     <use xlink:href="#DejaVuSans-70" transform="translate(564.404297 0)"/>
     <use xlink:href="#DejaVuSans-20" transform="translate(627.880859 0)"/>
     <use xlink:href="#DejaVuSans-73" transform="translate(659.667969 0)"/>
     <use xlink:href="#DejaVuSans-68" transform="translate(711.767578 0)"/>
     <use xlink:href="#DejaVuSans-61" transform="translate(775.146484 0)"/>
     <use xlink:href="#DejaVuSans-70" transform="translate(836.425781 0)"/>
     <use xlink:href="#DejaVuSans-65" transform="translate(899.902344 0)"/>
    </g>
   </g>
   <g id="legend_1">
    <g id="patch_16">
     <path d="M 49.56 92.688125 
L 129.739531 92.688125 
Q 131.139531 92.688125 131.139531 91.288125 
L 131.139531 30.34 
Q 131.139531 28.94 129.739531 28.94 
L 49.56 28.94 
Q 48.16 28.94 48.16 30.34 
L 48.16 91.288125 
Q 48.16 92.688125 49.56 92.688125 
z
" style="fill: #ffffff; opacity: 0.8; stroke: #cccccc; stroke-linejoin: miter"/>
    </g>
    <g id="patch_17">
     <path d="M 50.96 37.058906 
L 64.96 37.058906 
L 64.96 32.158906 
L 50.96 32.158906 
z
" style="fill: #75ff66"/>
    </g>
    <g id="text_13">
     <!-- darlingtoni -->
     <g transform="translate(70.56 37.058906) scale(0.07 -0.07)">
      <defs>
       <path id="DejaVuSans-64" d="M 2906 2969 
L 2906 4863 
L 3481 4863 
L 3481 0 
L 2906 0 
L 2906 525 
Q 2725 213 2448 61 
Q 2172 -91 1784 -91 
Q 1150 -91 751 415 
Q 353 922 353 1747 
Q 353 2572 751 3078 
Q 1150 3584 1784 3584 
Q 2172 3584 2448 3432 
Q 2725 3281 2906 2969 
z
M 947 1747 
Q 947 1113 1208 752 
Q 1469 391 1925 391 
Q 2381 391 2643 752 
Q 2906 1113 2906 1747 
Q 2906 2381 2643 2742 
Q 2381 3103 1925 3103 
Q 1469 3103 1208 2742 
Q 947 2381 947 1747 
z
" transform="scale(0.015625)"/>
      </defs>
      <use xlink:href="#DejaVuSans-64"/>
      <use xlink:href="#DejaVuSans-61" transform="translate(63.476562 0)"/>
      <use xlink:href="#DejaVuSans-72" transform="translate(124.755859 0)"/>
      <use xlink:href="#DejaVuSans-6c" transform="translate(165.869141 0)"/>
      <use xlink:href="#DejaVuSans-69" transform="translate(193.652344 0)"/>
      <use xlink:href="#DejaVuSans-6e" transform="translate(221.435547 0)"/>
      <use xlink:href="#DejaVuSans-67" transform="translate(284.814453 0)"/>
      <use xlink:href="#DejaVuSans-74" transform="translate(348.291016 0)"/>
      <use xlink:href="#DejaVuSans-6f" transform="translate(387.5 0)"/>
      <use xlink:href="#DejaVuSans-6e" transform="translate(448.681641 0)"/>
      <use xlink:href="#DejaVuSans-69" transform="translate(512.060547 0)"/>
     </g>
    </g>
    <g id="patch_18">
     <path d="M 50.96 47.333594 
L 64.96 47.333594 
L 64.96 42.433594 
L 50.96 42.433594 
z
" style="fill: #48b9ff"/>
    </g>
    <g id="text_14">
     <!-- mitchellae -->
     <g transform="translate(70.56 47.333594) scale(0.07 -0.07)">
      <defs>
       <path id="DejaVuSans-63" d="M 3122 3366 
L 3122 2828 
Q 2878 2963 2633 3030 
Q 2388 3097 2138 3097 
Q 1578 3097 1268 2742 
Q 959 2388 959 1747 
Q 959 1106 1268 751 
Q 1578 397 2138 397 
Q 2388 397 2633 464 
Q 2878 531 3122 666 
L 3122 134 
Q 2881 22 2623 -34 
Q 2366 -91 2075 -91 
Q 1284 -91 818 406 
Q 353 903 353 1747 
Q 353 2603 823 3093 
Q 1294 3584 2113 3584 
Q 2378 3584 2631 3529 
Q 2884 3475 3122 3366 
z
" transform="scale(0.015625)"/>
      </defs>
      <use xlink:href="#DejaVuSans-6d"/>
      <use xlink:href="#DejaVuSans-69" transform="translate(97.412109 0)"/>
      <use xlink:href="#DejaVuSans-74" transform="translate(125.195312 0)"/>
      <use xlink:href="#DejaVuSans-63" transform="translate(164.404297 0)"/>
      <use xlink:href="#DejaVuSans-68" transform="translate(219.384766 0)"/>
      <use xlink:href="#DejaVuSans-65" transform="translate(282.763672 0)"/>
      <use xlink:href="#DejaVuSans-6c" transform="translate(344.287109 0)"/>
      <use xlink:href="#DejaVuSans-6c" transform="translate(372.070312 0)"/>
      <use xlink:href="#DejaVuSans-61" transform="translate(399.853516 0)"/>
      <use xlink:href="#DejaVuSans-65" transform="translate(461.132812 0)"/>
     </g>
    </g>
    <g id="patch_19">
     <path d="M 50.96 57.608281 
L 64.96 57.608281 
L 64.96 52.708281 
L 50.96 52.708281 
z
" style="fill: #ff888a"/>
    </g>
    <g id="text_15">
     <!-- novaehollandiae -->
     <g transform="translate(70.56 57.608281) scale(0.07 -0.07)">
      <defs>
       <path id="DejaVuSans-76" d="M 191 3500 
L 800 3500 
L 1894 563 
L 2988 3500 
L 3597 3500 
L 2284 0 
L 1503 0 
L 191 3500 
z
" transform="scale(0.015625)"/>
      </defs>
      <use xlink:href="#DejaVuSans-6e"/>
      <use xlink:href="#DejaVuSans-6f" transform="translate(63.378906 0)"/>
      <use xlink:href="#DejaVuSans-76" transform="translate(124.560547 0)"/>
      <use xlink:href="#DejaVuSans-61" transform="translate(183.740234 0)"/>
      <use xlink:href="#DejaVuSans-65" transform="translate(245.019531 0)"/>
      <use xlink:href="#DejaVuSans-68" transform="translate(306.542969 0)"/>
      <use xlink:href="#DejaVuSans-6f" transform="translate(369.921875 0)"/>
      <use xlink:href="#DejaVuSans-6c" transform="translate(431.103516 0)"/>
      <use xlink:href="#DejaVuSans-6c" transform="translate(458.886719 0)"/>
      <use xlink:href="#DejaVuSans-61" transform="translate(486.669922 0)"/>
      <use xlink:href="#DejaVuSans-6e" transform="translate(547.949219 0)"/>
      <use xlink:href="#DejaVuSans-64" transform="translate(611.328125 0)"/>
      <use xlink:href="#DejaVuSans-69" transform="translate(674.804688 0)"/>
      <use xlink:href="#DejaVuSans-61" transform="translate(702.587891 0)"/>
      <use xlink:href="#DejaVuSans-65" transform="translate(763.867188 0)"/>
     </g>
    </g>
    <g id="patch_20">
     <path d="M 50.96 67.882969 
L 64.96 67.882969 
L 64.96 62.982969 
L 50.96 62.982969 
z
" style="fill: #ede100"/>
    </g>
    <g id="text_16">
     <!-- richmondiana -->
     <g transform="translate(70.56 67.882969) scale(0.07 -0.07)">
      <use xlink:href="#DejaVuSans-72"/>
      <use xlink:href="#DejaVuSans-69" transform="translate(41.113281 0)"/>
      <use xlink:href="#DejaVuSans-63" transform="translate(68.896484 0)"/>
      <use xlink:href="#DejaVuSans-68" transform="translate(123.876953 0)"/>
      <use xlink:href="#DejaVuSans-6d" transform="translate(187.255859 0)"/>
      <use xlink:href="#DejaVuSans-6f" transform="translate(284.667969 0)"/>
      <use xlink:href="#DejaVuSans-6e" transform="translate(345.849609 0)"/>
      <use xlink:href="#DejaVuSans-64" transform="translate(409.228516 0)"/>
      <use xlink:href="#DejaVuSans-69" transform="translate(472.705078 0)"/>
      <use xlink:href="#DejaVuSans-61" transform="translate(500.488281 0)"/>
      <use xlink:href="#DejaVuSans-6e" transform="translate(561.767578 0)"/>
      <use xlink:href="#DejaVuSans-61" transform="translate(625.146484 0)"/>
     </g>
    </g>
    <g id="patch_21">
     <path d="M 50.96 78.157656 
L 64.96 78.157656 
L 64.96 73.257656 
L 50.96 73.257656 
z
" style="fill: #0057b7"/>
    </g>
    <g id="text_17">
     <!-- sp1 -->
     <g transform="translate(70.56 78.157656) scale(0.07 -0.07)">
      <use xlink:href="#DejaVuSans-73"/>
      <use xlink:href="#DejaVuSans-70" transform="translate(52.099609 0)"/>
      <use xlink:href="#DejaVuSans-31" transform="translate(115.576172 0)"/>
     </g>
    </g>
    <g id="patch_22">
     <path d="M 50.96 88.432344 
L 64.96 88.432344 
L 64.96 83.532344 
L 50.96 83.532344 
z
" style="fill: #b3b3b3"/>
    </g>
    <g id="text_18">
     <!-- sp2 -->
     <g transform="translate(70.56 88.432344) scale(0.07 -0.07)">
      <use xlink:href="#DejaVuSans-73"/>
      <use xlink:href="#DejaVuSans-70" transform="translate(52.099609 0)"/>
      <use xlink:href="#DejaVuSans-32" transform="translate(115.576172 0)"/>
     </g>
    </g>
   </g>
  </g>
  <g id="axes_2">
   <g id="patch_23">
    <path d="M 259.5575 218.736 
L 422.79068 218.736 
L 422.79068 25.44 
L 259.5575 25.44 
z
" style="fill: #ffffff"/>
   </g>
   <g id="patch_24">
    <path d="M 266.97719 218.736 
L 301.221913 218.736 
L 301.221913 216.679113 
L 266.97719 216.679113 
z
" clip-path="url(#pca133c0ae4)" style="fill: #75ff66"/>
   </g>
   <g id="patch_25">
    <path d="M 266.97719 216.679113 
L 301.221913 216.679113 
L 301.221913 211.536894 
L 266.97719 211.536894 
z
" clip-path="url(#pca133c0ae4)" style="fill: #48b9ff"/>
   </g>
   <g id="patch_26">
    <path d="M 266.97719 211.536894 
L 301.221913 211.536894 
L 301.221913 108.69252 
L 266.97719 108.69252 
z
" clip-path="url(#pca133c0ae4)" style="fill: #ff888a"/>
   </g>
   <g id="patch_27">
    <path d="M 266.97719 108.69252 
L 301.221913 108.69252 
L 301.221913 76.810765 
L 266.97719 76.810765 
z
" clip-path="url(#pca133c0ae4)" style="fill: #ede100"/>
   </g>
   <g id="patch_28">
    <path d="M 266.97719 76.810765 
L 301.221913 76.810765 
L 301.221913 74.753877 
L 266.97719 74.753877 
z
" clip-path="url(#pca133c0ae4)" style="fill: #0057b7"/>
   </g>
   <g id="patch_29">
    <path d="M 266.97719 74.753877 
L 301.221913 74.753877 
L 301.221913 72.69699 
L 266.97719 72.69699 
z
" clip-path="url(#pca133c0ae4)" style="fill: #b3b3b3"/>
   </g>
   <g id="patch_30">
    <path d="M 381.126267 218.736 
L 415.37099 218.736 
L 415.37099 212.565338 
L 381.126267 212.565338 
z
" clip-path="url(#pca133c0ae4)" style="fill: #75ff66"/>
   </g>
   <g id="patch_31">
    <path d="M 381.126267 212.565338 
L 415.37099 212.565338 
L 415.37099 106.635633 
L 381.126267 106.635633 
z
" clip-path="url(#pca133c0ae4)" style="fill: #48b9ff"/>
   </g>
   <g id="patch_32">
    <path d="M 381.126267 106.635633 
L 415.37099 106.635633 
L 415.37099 69.611658 
L 381.126267 69.611658 
z
" clip-path="url(#pca133c0ae4)" style="fill: #ff888a"/>
   </g>
   <g id="patch_33">
    <path d="M 381.126267 69.611658 
L 415.37099 69.611658 
L 415.37099 34.644571 
L 381.126267 34.644571 
z
" clip-path="url(#pca133c0ae4)" style="fill: #ede100"/>
   </g>
   <g id="matplotlib.axis_3">
    <g id="xtick_3">
     <g id="line2d_10">
      <g>
       <use xlink:href="#mc281886003" x="284.099551" y="218.736" style="stroke: #000000; stroke-width: 0.8"/>
      </g>
     </g>
     <g id="text_19">
      <!-- Cluster 0 -->
      <g transform="translate(261.583145 233.334437) scale(0.1 -0.1)">
       <use xlink:href="#DejaVuSans-43"/>
       <use xlink:href="#DejaVuSans-6c" transform="translate(69.824219 0)"/>
       <use xlink:href="#DejaVuSans-75" transform="translate(97.607422 0)"/>
       <use xlink:href="#DejaVuSans-73" transform="translate(160.986328 0)"/>
       <use xlink:href="#DejaVuSans-74" transform="translate(213.085938 0)"/>
       <use xlink:href="#DejaVuSans-65" transform="translate(252.294922 0)"/>
       <use xlink:href="#DejaVuSans-72" transform="translate(313.818359 0)"/>
       <use xlink:href="#DejaVuSans-20" transform="translate(354.931641 0)"/>
       <use xlink:href="#DejaVuSans-30" transform="translate(386.71875 0)"/>
      </g>
     </g>
    </g>
    <g id="xtick_4">
     <g id="line2d_11">
      <g>
       <use xlink:href="#mc281886003" x="398.248628" y="218.736" style="stroke: #000000; stroke-width: 0.8"/>
      </g>
     </g>
     <g id="text_20">
      <!-- Cluster 1 -->
      <g transform="translate(375.732222 233.334437) scale(0.1 -0.1)">
       <use xlink:href="#DejaVuSans-43"/>
       <use xlink:href="#DejaVuSans-6c" transform="translate(69.824219 0)"/>
       <use xlink:href="#DejaVuSans-75" transform="translate(97.607422 0)"/>
       <use xlink:href="#DejaVuSans-73" transform="translate(160.986328 0)"/>
       <use xlink:href="#DejaVuSans-74" transform="translate(213.085938 0)"/>
       <use xlink:href="#DejaVuSans-65" transform="translate(252.294922 0)"/>
       <use xlink:href="#DejaVuSans-72" transform="translate(313.818359 0)"/>
       <use xlink:href="#DejaVuSans-20" transform="translate(354.931641 0)"/>
       <use xlink:href="#DejaVuSans-31" transform="translate(386.71875 0)"/>
      </g>
     </g>
    </g>
   </g>
   <g id="matplotlib.axis_4">
    <g id="ytick_8">
     <g id="line2d_12">
      <g>
       <use xlink:href="#mc1fe84531a" x="259.5575" y="218.736" style="stroke: #000000; stroke-width: 0.8"/>
      </g>
     </g>
     <g id="text_21">
      <!-- 0 -->
      <g transform="translate(246.195 222.535219) scale(0.1 -0.1)">
       <use xlink:href="#DejaVuSans-30"/>
      </g>
     </g>
    </g>
    <g id="ytick_9">
     <g id="line2d_13">
      <g>
       <use xlink:href="#mc1fe84531a" x="259.5575" y="193.024907" style="stroke: #000000; stroke-width: 0.8"/>
      </g>
     </g>
     <g id="text_22">
      <!-- 25 -->
      <g transform="translate(239.8325 196.824125) scale(0.1 -0.1)">
       <use xlink:href="#DejaVuSans-32"/>
       <use xlink:href="#DejaVuSans-35" transform="translate(63.623047 0)"/>
      </g>
     </g>
    </g>
    <g id="ytick_10">
     <g id="line2d_14">
      <g>
       <use xlink:href="#mc1fe84531a" x="259.5575" y="167.313813" style="stroke: #000000; stroke-width: 0.8"/>
      </g>
     </g>
     <g id="text_23">
      <!-- 50 -->
      <g transform="translate(239.8325 171.113032) scale(0.1 -0.1)">
       <use xlink:href="#DejaVuSans-35"/>
       <use xlink:href="#DejaVuSans-30" transform="translate(63.623047 0)"/>
      </g>
     </g>
    </g>
    <g id="ytick_11">
     <g id="line2d_15">
      <g>
       <use xlink:href="#mc1fe84531a" x="259.5575" y="141.60272" style="stroke: #000000; stroke-width: 0.8"/>
      </g>
     </g>
     <g id="text_24">
      <!-- 75 -->
      <g transform="translate(239.8325 145.401939) scale(0.1 -0.1)">
       <defs>
        <path id="DejaVuSans-37" d="M 525 4666 
L 3525 4666 
L 3525 4397 
L 1831 0 
L 1172 0 
L 2766 4134 
L 525 4134 
L 525 4666 
z
" transform="scale(0.015625)"/>
       </defs>
       <use xlink:href="#DejaVuSans-37"/>
       <use xlink:href="#DejaVuSans-35" transform="translate(63.623047 0)"/>
      </g>
     </g>
    </g>
    <g id="ytick_12">
     <g id="line2d_16">
      <g>
       <use xlink:href="#mc1fe84531a" x="259.5575" y="115.891626" style="stroke: #000000; stroke-width: 0.8"/>
      </g>
     </g>
     <g id="text_25">
      <!-- 100 -->
      <g transform="translate(233.47 119.690845) scale(0.1 -0.1)">
       <use xlink:href="#DejaVuSans-31"/>
       <use xlink:href="#DejaVuSans-30" transform="translate(63.623047 0)"/>
       <use xlink:href="#DejaVuSans-30" transform="translate(127.246094 0)"/>
      </g>
     </g>
    </g>
    <g id="ytick_13">
     <g id="line2d_17">
      <g>
       <use xlink:href="#mc1fe84531a" x="259.5575" y="90.180533" style="stroke: #000000; stroke-width: 0.8"/>
      </g>
     </g>
     <g id="text_26">
      <!-- 125 -->
      <g transform="translate(233.47 93.979752) scale(0.1 -0.1)">
       <use xlink:href="#DejaVuSans-31"/>
       <use xlink:href="#DejaVuSans-32" transform="translate(63.623047 0)"/>
       <use xlink:href="#DejaVuSans-35" transform="translate(127.246094 0)"/>
      </g>
     </g>
    </g>
    <g id="ytick_14">
     <g id="line2d_18">
      <g>
       <use xlink:href="#mc1fe84531a" x="259.5575" y="64.46944" style="stroke: #000000; stroke-width: 0.8"/>
      </g>
     </g>
     <g id="text_27">
      <!-- 150 -->
      <g transform="translate(233.47 68.268658) scale(0.1 -0.1)">
       <use xlink:href="#DejaVuSans-31"/>
       <use xlink:href="#DejaVuSans-35" transform="translate(63.623047 0)"/>
       <use xlink:href="#DejaVuSans-30" transform="translate(127.246094 0)"/>
      </g>
     </g>
    </g>
    <g id="ytick_15">
     <g id="line2d_19">
      <g>
       <use xlink:href="#mc1fe84531a" x="259.5575" y="38.758346" style="stroke: #000000; stroke-width: 0.8"/>
      </g>
     </g>
     <g id="text_28">
      <!-- 175 -->
      <g transform="translate(233.47 42.557565) scale(0.1 -0.1)">
       <use xlink:href="#DejaVuSans-31"/>
       <use xlink:href="#DejaVuSans-37" transform="translate(63.623047 0)"/>
       <use xlink:href="#DejaVuSans-35" transform="translate(127.246094 0)"/>
      </g>
     </g>
    </g>
    <g id="text_29">
     <!-- Count -->
     <g transform="translate(227.390312 136.936437) rotate(-90) scale(0.1 -0.1)">
      <use xlink:href="#DejaVuSans-43"/>
      <use xlink:href="#DejaVuSans-6f" transform="translate(69.824219 0)"/>
      <use xlink:href="#DejaVuSans-75" transform="translate(131.005859 0)"/>
      <use xlink:href="#DejaVuSans-6e" transform="translate(194.384766 0)"/>
      <use xlink:href="#DejaVuSans-74" transform="translate(257.763672 0)"/>
     </g>
    </g>
   </g>
   <g id="patch_34">
    <path d="M 259.5575 218.736 
L 259.5575 25.44 
" style="fill: none; stroke: #000000; stroke-width: 0.8; stroke-linejoin: miter; stroke-linecap: square"/>
   </g>
   <g id="patch_35">
    <path d="M 422.79068 218.736 
L 422.79068 25.44 
" style="fill: none; stroke: #000000; stroke-width: 0.8; stroke-linejoin: miter; stroke-linecap: square"/>
   </g>
   <g id="patch_36">
    <path d="M 259.5575 218.736 
L 422.79068 218.736 
" style="fill: none; stroke: #000000; stroke-width: 0.8; stroke-linejoin: miter; stroke-linecap: square"/>
   </g>
   <g id="patch_37">
    <path d="M 259.5575 25.44 
L 422.79068 25.44 
" style="fill: none; stroke: #000000; stroke-width: 0.8; stroke-linejoin: miter; stroke-linecap: square"/>
   </g>
   <g id="text_30">
    <!-- B -->
    <g transform="translate(267.719159 256.848525) scale(0.12 -0.12)">
     <defs>
      <path id="DejaVuSans-Bold-42" d="M 2456 2859 
Q 2741 2859 2887 2984 
Q 3034 3109 3034 3353 
Q 3034 3594 2887 3720 
Q 2741 3847 2456 3847 
L 1791 3847 
L 1791 2859 
L 2456 2859 
z
M 2497 819 
Q 2859 819 3042 972 
Q 3225 1125 3225 1434 
Q 3225 1738 3044 1889 
Q 2863 2041 2497 2041 
L 1791 2041 
L 1791 819 
L 2497 819 
z
M 3616 2497 
Q 4003 2384 4215 2081 
Q 4428 1778 4428 1338 
Q 4428 663 3972 331 
Q 3516 0 2584 0 
L 588 0 
L 588 4666 
L 2394 4666 
Q 3366 4666 3802 4372 
Q 4238 4078 4238 3431 
Q 4238 3091 4078 2852 
Q 3919 2613 3616 2497 
z
" transform="scale(0.015625)"/>
     </defs>
     <use xlink:href="#DejaVuSans-Bold-42"/>
    </g>
   </g>
   <g id="text_31">
    <!-- shell shape -->
    <g transform="translate(307.207527 19.44) scale(0.12 -0.12)">
     <use xlink:href="#DejaVuSans-73"/>
     <use xlink:href="#DejaVuSans-68" transform="translate(52.099609 0)"/>
     <use xlink:href="#DejaVuSans-65" transform="translate(115.478516 0)"/>
     <use xlink:href="#DejaVuSans-6c" transform="translate(177.001953 0)"/>
     <use xlink:href="#DejaVuSans-6c" transform="translate(204.785156 0)"/>
     <use xlink:href="#DejaVuSans-20" transform="translate(232.568359 0)"/>
     <use xlink:href="#DejaVuSans-73" transform="translate(264.355469 0)"/>
     <use xlink:href="#DejaVuSans-68" transform="translate(316.455078 0)"/>
     <use xlink:href="#DejaVuSans-61" transform="translate(379.833984 0)"/>
     <use xlink:href="#DejaVuSans-70" transform="translate(441.113281 0)"/>
     <use xlink:href="#DejaVuSans-65" transform="translate(504.589844 0)"/>
    </g>
   </g>
  </g>
  <g id="axes_3">
   <g id="patch_38">
    <path d="M 474.455 218.736 
L 637.68818 218.736 
L 637.68818 25.44 
L 474.455 25.44 
z
" style="fill: #ffffff"/>
   </g>
   <g id="patch_39">
    <path d="M 481.87469 218.736 
L 516.119413 218.736 
L 516.119413 214.387384 
L 481.87469 214.387384 
z
" clip-path="url(#p447409fea5)" style="fill: #75ff66"/>
   </g>
   <g id="patch_40">
    <path d="M 481.87469 214.387384 
L 516.119413 214.387384 
L 516.119413 136.112288 
L 481.87469 136.112288 
z
" clip-path="url(#p447409fea5)" style="fill: #48b9ff"/>
   </g>
   <g id="patch_41">
    <path d="M 481.87469 136.112288 
L 516.119413 136.112288 
L 516.119413 37.543649 
L 481.87469 37.543649 
z
" clip-path="url(#p447409fea5)" style="fill: #ff888a"/>
   </g>
   <g id="patch_42">
    <path d="M 481.87469 37.543649 
L 516.119413 37.543649 
L 516.119413 36.81888 
L 481.87469 36.81888 
z
" clip-path="url(#p447409fea5)" style="fill: #ede100"/>
   </g>
   <g id="patch_43">
    <path d="M 481.87469 36.81888 
L 516.119413 36.81888 
L 516.119413 35.369341 
L 481.87469 35.369341 
z
" clip-path="url(#p447409fea5)" style="fill: #0057b7"/>
   </g>
   <g id="patch_44">
    <path d="M 481.87469 35.369341 
L 516.119413 35.369341 
L 516.119413 34.644571 
L 481.87469 34.644571 
z
" clip-path="url(#p447409fea5)" style="fill: #b3b3b3"/>
   </g>
   <g id="patch_45">
    <path d="M 596.023767 218.736 
L 630.26849 218.736 
L 630.26849 217.286461 
L 596.023767 217.286461 
z
" clip-path="url(#p447409fea5)" style="fill: #75ff66"/>
   </g>
   <g id="patch_46">
    <path d="M 596.023767 217.286461 
L 630.26849 217.286461 
L 630.26849 170.901219 
L 596.023767 170.901219 
z
" clip-path="url(#p447409fea5)" style="fill: #ede100"/>
   </g>
   <g id="patch_47">
    <path d="M 596.023767 170.901219 
L 630.26849 170.901219 
L 630.26849 170.17645 
L 596.023767 170.17645 
z
" clip-path="url(#p447409fea5)" style="fill: #b3b3b3"/>
   </g>
   <g id="matplotlib.axis_5">
    <g id="xtick_5">
     <g id="line2d_20">
      <g>
       <use xlink:href="#mc281886003" x="498.997051" y="218.736" style="stroke: #000000; stroke-width: 0.8"/>
      </g>
     </g>
     <g id="text_32">
      <!-- Cluster 0 -->
      <g transform="translate(476.480645 233.334437) scale(0.1 -0.1)">
       <use xlink:href="#DejaVuSans-43"/>
       <use xlink:href="#DejaVuSans-6c" transform="translate(69.824219 0)"/>
       <use xlink:href="#DejaVuSans-75" transform="translate(97.607422 0)"/>
       <use xlink:href="#DejaVuSans-73" transform="translate(160.986328 0)"/>
       <use xlink:href="#DejaVuSans-74" transform="translate(213.085938 0)"/>
       <use xlink:href="#DejaVuSans-65" transform="translate(252.294922 0)"/>
       <use xlink:href="#DejaVuSans-72" transform="translate(313.818359 0)"/>
       <use xlink:href="#DejaVuSans-20" transform="translate(354.931641 0)"/>
       <use xlink:href="#DejaVuSans-30" transform="translate(386.71875 0)"/>
      </g>
     </g>
    </g>
    <g id="xtick_6">
     <g id="line2d_21">
      <g>
       <use xlink:href="#mc281886003" x="613.146128" y="218.736" style="stroke: #000000; stroke-width: 0.8"/>
      </g>
     </g>
     <g id="text_33">
      <!-- Cluster 1 -->
      <g transform="translate(590.629722 233.334437) scale(0.1 -0.1)">
       <use xlink:href="#DejaVuSans-43"/>
       <use xlink:href="#DejaVuSans-6c" transform="translate(69.824219 0)"/>
       <use xlink:href="#DejaVuSans-75" transform="translate(97.607422 0)"/>
       <use xlink:href="#DejaVuSans-73" transform="translate(160.986328 0)"/>
       <use xlink:href="#DejaVuSans-74" transform="translate(213.085938 0)"/>
       <use xlink:href="#DejaVuSans-65" transform="translate(252.294922 0)"/>
       <use xlink:href="#DejaVuSans-72" transform="translate(313.818359 0)"/>
       <use xlink:href="#DejaVuSans-20" transform="translate(354.931641 0)"/>
       <use xlink:href="#DejaVuSans-31" transform="translate(386.71875 0)"/>
      </g>
     </g>
    </g>
   </g>
   <g id="matplotlib.axis_6">
    <g id="ytick_16">
     <g id="line2d_22">
      <g>
       <use xlink:href="#mc1fe84531a" x="474.455" y="218.736" style="stroke: #000000; stroke-width: 0.8"/>
      </g>
     </g>
     <g id="text_34">
      <!-- 0 -->
      <g transform="translate(461.0925 222.535219) scale(0.1 -0.1)">
       <use xlink:href="#DejaVuSans-30"/>
      </g>
     </g>
    </g>
    <g id="ytick_17">
     <g id="line2d_23">
      <g>
       <use xlink:href="#mc1fe84531a" x="474.455" y="182.49753" style="stroke: #000000; stroke-width: 0.8"/>
      </g>
     </g>
     <g id="text_35">
      <!-- 50 -->
      <g transform="translate(454.73 186.296749) scale(0.1 -0.1)">
       <use xlink:href="#DejaVuSans-35"/>
       <use xlink:href="#DejaVuSans-30" transform="translate(63.623047 0)"/>
      </g>
     </g>
    </g>
    <g id="ytick_18">
     <g id="line2d_24">
      <g>
       <use xlink:href="#mc1fe84531a" x="474.455" y="146.25906" style="stroke: #000000; stroke-width: 0.8"/>
      </g>
     </g>
     <g id="text_36">
      <!-- 100 -->
      <g transform="translate(448.3675 150.058278) scale(0.1 -0.1)">
       <use xlink:href="#DejaVuSans-31"/>
       <use xlink:href="#DejaVuSans-30" transform="translate(63.623047 0)"/>
       <use xlink:href="#DejaVuSans-30" transform="translate(127.246094 0)"/>
      </g>
     </g>
    </g>
    <g id="ytick_19">
     <g id="line2d_25">
      <g>
       <use xlink:href="#mc1fe84531a" x="474.455" y="110.020589" style="stroke: #000000; stroke-width: 0.8"/>
      </g>
     </g>
     <g id="text_37">
      <!-- 150 -->
      <g transform="translate(448.3675 113.819808) scale(0.1 -0.1)">
       <use xlink:href="#DejaVuSans-31"/>
       <use xlink:href="#DejaVuSans-35" transform="translate(63.623047 0)"/>
       <use xlink:href="#DejaVuSans-30" transform="translate(127.246094 0)"/>
      </g>
     </g>
    </g>
    <g id="ytick_20">
     <g id="line2d_26">
      <g>
       <use xlink:href="#mc1fe84531a" x="474.455" y="73.782119" style="stroke: #000000; stroke-width: 0.8"/>
      </g>
     </g>
     <g id="text_38">
      <!-- 200 -->
      <g transform="translate(448.3675 77.581338) scale(0.1 -0.1)">
       <use xlink:href="#DejaVuSans-32"/>
       <use xlink:href="#DejaVuSans-30" transform="translate(63.623047 0)"/>
       <use xlink:href="#DejaVuSans-30" transform="translate(127.246094 0)"/>
      </g>
     </g>
    </g>
    <g id="ytick_21">
     <g id="line2d_27">
      <g>
       <use xlink:href="#mc1fe84531a" x="474.455" y="37.543649" style="stroke: #000000; stroke-width: 0.8"/>
      </g>
     </g>
     <g id="text_39">
      <!-- 250 -->
      <g transform="translate(448.3675 41.342868) scale(0.1 -0.1)">
       <use xlink:href="#DejaVuSans-32"/>
       <use xlink:href="#DejaVuSans-35" transform="translate(63.623047 0)"/>
       <use xlink:href="#DejaVuSans-30" transform="translate(127.246094 0)"/>
      </g>
     </g>
    </g>
    <g id="text_40">
     <!-- Count -->
     <g transform="translate(442.287813 136.936437) rotate(-90) scale(0.1 -0.1)">
      <use xlink:href="#DejaVuSans-43"/>
      <use xlink:href="#DejaVuSans-6f" transform="translate(69.824219 0)"/>
      <use xlink:href="#DejaVuSans-75" transform="translate(131.005859 0)"/>
      <use xlink:href="#DejaVuSans-6e" transform="translate(194.384766 0)"/>
      <use xlink:href="#DejaVuSans-74" transform="translate(257.763672 0)"/>
     </g>
    </g>
   </g>
   <g id="patch_48">
    <path d="M 474.455 218.736 
L 474.455 25.44 
" style="fill: none; stroke: #000000; stroke-width: 0.8; stroke-linejoin: miter; stroke-linecap: square"/>
   </g>
   <g id="patch_49">
    <path d="M 637.68818 218.736 
L 637.68818 25.44 
" style="fill: none; stroke: #000000; stroke-width: 0.8; stroke-linejoin: miter; stroke-linecap: square"/>
   </g>
   <g id="patch_50">
    <path d="M 474.455 218.736 
L 637.68818 218.736 
" style="fill: none; stroke: #000000; stroke-width: 0.8; stroke-linejoin: miter; stroke-linecap: square"/>
   </g>
   <g id="patch_51">
    <path d="M 474.455 25.44 
L 637.68818 25.44 
" style="fill: none; stroke: #000000; stroke-width: 0.8; stroke-linejoin: miter; stroke-linecap: square"/>
   </g>
   <g id="text_41">
    <!-- C -->
    <g transform="translate(482.616659 256.848525) scale(0.12 -0.12)">
     <defs>
      <path id="DejaVuSans-Bold-43" d="M 4288 256 
Q 3956 84 3597 -3 
Q 3238 -91 2847 -91 
Q 1681 -91 1000 561 
Q 319 1213 319 2328 
Q 319 3447 1000 4098 
Q 1681 4750 2847 4750 
Q 3238 4750 3597 4662 
Q 3956 4575 4288 4403 
L 4288 3438 
Q 3953 3666 3628 3772 
Q 3303 3878 2944 3878 
Q 2300 3878 1931 3465 
Q 1563 3053 1563 2328 
Q 1563 1606 1931 1193 
Q 2300 781 2944 781 
Q 3303 781 3628 887 
Q 3953 994 4288 1222 
L 4288 256 
z
" transform="scale(0.015625)"/>
     </defs>
     <use xlink:href="#DejaVuSans-Bold-43"/>
    </g>
   </g>
   <g id="text_42">
    <!-- body whorl shape -->
    <g transform="translate(502.797215 19.44) scale(0.12 -0.12)">
     <defs>
      <path id="DejaVuSans-62" d="M 3116 1747 
Q 3116 2381 2855 2742 
Q 2594 3103 2138 3103 
Q 1681 3103 1420 2742 
Q 1159 2381 1159 1747 
Q 1159 1113 1420 752 
Q 1681 391 2138 391 
Q 2594 391 2855 752 
Q 3116 1113 3116 1747 
z
M 1159 2969 
Q 1341 3281 1617 3432 
Q 1894 3584 2278 3584 
Q 2916 3584 3314 3078 
Q 3713 2572 3713 1747 
Q 3713 922 3314 415 
Q 2916 -91 2278 -91 
Q 1894 -91 1617 61 
Q 1341 213 1159 525 
L 1159 0 
L 581 0 
L 581 4863 
L 1159 4863 
L 1159 2969 
z
" transform="scale(0.015625)"/>
      <path id="DejaVuSans-79" d="M 2059 -325 
Q 1816 -950 1584 -1140 
Q 1353 -1331 966 -1331 
L 506 -1331 
L 506 -850 
L 844 -850 
Q 1081 -850 1212 -737 
Q 1344 -625 1503 -206 
L 1606 56 
L 191 3500 
L 800 3500 
L 1894 763 
L 2988 3500 
L 3597 3500 
L 2059 -325 
z
" transform="scale(0.015625)"/>
      <path id="DejaVuSans-77" d="M 269 3500 
L 844 3500 
L 1563 769 
L 2278 3500 
L 2956 3500 
L 3675 769 
L 4391 3500 
L 4966 3500 
L 4050 0 
L 3372 0 
L 2619 2869 
L 1863 0 
L 1184 0 
L 269 3500 
z
" transform="scale(0.015625)"/>
     </defs>
     <use xlink:href="#DejaVuSans-62"/>
     <use xlink:href="#DejaVuSans-6f" transform="translate(63.476562 0)"/>
     <use xlink:href="#DejaVuSans-64" transform="translate(124.658203 0)"/>
     <use xlink:href="#DejaVuSans-79" transform="translate(188.134766 0)"/>
     <use xlink:href="#DejaVuSans-20" transform="translate(247.314453 0)"/>
     <use xlink:href="#DejaVuSans-77" transform="translate(279.101562 0)"/>
     <use xlink:href="#DejaVuSans-68" transform="translate(360.888672 0)"/>
     <use xlink:href="#DejaVuSans-6f" transform="translate(424.267578 0)"/>
     <use xlink:href="#DejaVuSans-72" transform="translate(485.449219 0)"/>
     <use xlink:href="#DejaVuSans-6c" transform="translate(526.5625 0)"/>
     <use xlink:href="#DejaVuSans-20" transform="translate(554.345703 0)"/>
     <use xlink:href="#DejaVuSans-73" transform="translate(586.132812 0)"/>
     <use xlink:href="#DejaVuSans-68" transform="translate(638.232422 0)"/>
     <use xlink:href="#DejaVuSans-61" transform="translate(701.611328 0)"/>
     <use xlink:href="#DejaVuSans-70" transform="translate(762.890625 0)"/>
     <use xlink:href="#DejaVuSans-65" transform="translate(826.367188 0)"/>
    </g>
   </g>
  </g>
  <g id="axes_4">
   <g id="patch_52">
    <path d="M 689.3525 218.736 
L 852.58568 218.736 
L 852.58568 25.44 
L 689.3525 25.44 
z
" style="fill: #ffffff"/>
   </g>
   <g id="patch_53">
    <path d="M 696.77219 218.736 
L 731.016913 218.736 
L 731.016913 212.059109 
L 696.77219 212.059109 
z
" clip-path="url(#pc8a2f00641)" style="fill: #75ff66"/>
   </g>
   <g id="patch_54">
    <path d="M 696.77219 212.059109 
L 731.016913 212.059109 
L 731.016913 176.76697 
L 696.77219 176.76697 
z
" clip-path="url(#pc8a2f00641)" style="fill: #48b9ff"/>
   </g>
   <g id="patch_55">
    <path d="M 696.77219 176.76697 
L 731.016913 176.76697 
L 731.016913 120.490315 
L 696.77219 120.490315 
z
" clip-path="url(#pc8a2f00641)" style="fill: #ff888a"/>
   </g>
   <g id="patch_56">
    <path d="M 696.77219 120.490315 
L 731.016913 120.490315 
L 731.016913 99.5058 
L 696.77219 99.5058 
z
" clip-path="url(#pc8a2f00641)" style="fill: #ede100"/>
   </g>
   <g id="patch_57">
    <path d="M 696.77219 99.5058 
L 731.016913 99.5058 
L 731.016913 98.551959 
L 696.77219 98.551959 
z
" clip-path="url(#pc8a2f00641)" style="fill: #0057b7"/>
   </g>
   <g id="patch_58">
    <path d="M 696.77219 98.551959 
L 731.016913 98.551959 
L 731.016913 96.644275 
L 696.77219 96.644275 
z
" clip-path="url(#pc8a2f00641)" style="fill: #b3b3b3"/>
   </g>
   <g id="patch_59">
    <path d="M 810.921267 218.736 
L 845.16599 218.736 
L 845.16599 217.782158 
L 810.921267 217.782158 
z
" clip-path="url(#pc8a2f00641)" style="fill: #75ff66"/>
   </g>
   <g id="patch_60">
    <path d="M 810.921267 217.782158 
L 845.16599 217.782158 
L 845.16599 150.059405 
L 810.921267 150.059405 
z
" clip-path="url(#pc8a2f00641)" style="fill: #48b9ff"/>
   </g>
   <g id="patch_61">
    <path d="M 810.921267 150.059405 
L 845.16599 150.059405 
L 845.16599 76.613602 
L 810.921267 76.613602 
z
" clip-path="url(#pc8a2f00641)" style="fill: #ff888a"/>
   </g>
   <g id="patch_62">
    <path d="M 810.921267 76.613602 
L 845.16599 76.613602 
L 845.16599 35.598413 
L 810.921267 35.598413 
z
" clip-path="url(#pc8a2f00641)" style="fill: #ede100"/>
   </g>
   <g id="patch_63">
    <path d="M 810.921267 35.598413 
L 845.16599 35.598413 
L 845.16599 34.644571 
L 810.921267 34.644571 
z
" clip-path="url(#pc8a2f00641)" style="fill: #0057b7"/>
   </g>
   <g id="matplotlib.axis_7">
    <g id="xtick_7">
     <g id="line2d_28">
      <g>
       <use xlink:href="#mc281886003" x="713.894551" y="218.736" style="stroke: #000000; stroke-width: 0.8"/>
      </g>
     </g>
     <g id="text_43">
      <!-- Cluster 0 -->
      <g transform="translate(691.378145 233.334437) scale(0.1 -0.1)">
       <use xlink:href="#DejaVuSans-43"/>
       <use xlink:href="#DejaVuSans-6c" transform="translate(69.824219 0)"/>
       <use xlink:href="#DejaVuSans-75" transform="translate(97.607422 0)"/>
       <use xlink:href="#DejaVuSans-73" transform="translate(160.986328 0)"/>
       <use xlink:href="#DejaVuSans-74" transform="translate(213.085938 0)"/>
       <use xlink:href="#DejaVuSans-65" transform="translate(252.294922 0)"/>
       <use xlink:href="#DejaVuSans-72" transform="translate(313.818359 0)"/>
       <use xlink:href="#DejaVuSans-20" transform="translate(354.931641 0)"/>
       <use xlink:href="#DejaVuSans-30" transform="translate(386.71875 0)"/>
      </g>
     </g>
    </g>
    <g id="xtick_8">
     <g id="line2d_29">
      <g>
       <use xlink:href="#mc281886003" x="828.043628" y="218.736" style="stroke: #000000; stroke-width: 0.8"/>
      </g>
     </g>
     <g id="text_44">
      <!-- Cluster 1 -->
      <g transform="translate(805.527222 233.334437) scale(0.1 -0.1)">
       <use xlink:href="#DejaVuSans-43"/>
       <use xlink:href="#DejaVuSans-6c" transform="translate(69.824219 0)"/>
       <use xlink:href="#DejaVuSans-75" transform="translate(97.607422 0)"/>
       <use xlink:href="#DejaVuSans-73" transform="translate(160.986328 0)"/>
       <use xlink:href="#DejaVuSans-74" transform="translate(213.085938 0)"/>
       <use xlink:href="#DejaVuSans-65" transform="translate(252.294922 0)"/>
       <use xlink:href="#DejaVuSans-72" transform="translate(313.818359 0)"/>
       <use xlink:href="#DejaVuSans-20" transform="translate(354.931641 0)"/>
       <use xlink:href="#DejaVuSans-31" transform="translate(386.71875 0)"/>
      </g>
     </g>
    </g>
   </g>
   <g id="matplotlib.axis_8">
    <g id="ytick_22">
     <g id="line2d_30">
      <g>
       <use xlink:href="#mc1fe84531a" x="689.3525" y="218.736" style="stroke: #000000; stroke-width: 0.8"/>
      </g>
     </g>
     <g id="text_45">
      <!-- 0 -->
      <g transform="translate(675.99 222.535219) scale(0.1 -0.1)">
       <use xlink:href="#DejaVuSans-30"/>
      </g>
     </g>
    </g>
    <g id="ytick_23">
     <g id="line2d_31">
      <g>
       <use xlink:href="#mc1fe84531a" x="689.3525" y="194.88996" style="stroke: #000000; stroke-width: 0.8"/>
      </g>
     </g>
     <g id="text_46">
      <!-- 25 -->
      <g transform="translate(669.6275 198.689179) scale(0.1 -0.1)">
       <use xlink:href="#DejaVuSans-32"/>
       <use xlink:href="#DejaVuSans-35" transform="translate(63.623047 0)"/>
      </g>
     </g>
    </g>
    <g id="ytick_24">
     <g id="line2d_32">
      <g>
       <use xlink:href="#mc1fe84531a" x="689.3525" y="171.04392" style="stroke: #000000; stroke-width: 0.8"/>
      </g>
     </g>
     <g id="text_47">
      <!-- 50 -->
      <g transform="translate(669.6275 174.843139) scale(0.1 -0.1)">
       <use xlink:href="#DejaVuSans-35"/>
       <use xlink:href="#DejaVuSans-30" transform="translate(63.623047 0)"/>
      </g>
     </g>
    </g>
    <g id="ytick_25">
     <g id="line2d_33">
      <g>
       <use xlink:href="#mc1fe84531a" x="689.3525" y="147.19788" style="stroke: #000000; stroke-width: 0.8"/>
      </g>
     </g>
     <g id="text_48">
      <!-- 75 -->
      <g transform="translate(669.6275 150.997099) scale(0.1 -0.1)">
       <use xlink:href="#DejaVuSans-37"/>
       <use xlink:href="#DejaVuSans-35" transform="translate(63.623047 0)"/>
      </g>
     </g>
    </g>
    <g id="ytick_26">
     <g id="line2d_34">
      <g>
       <use xlink:href="#mc1fe84531a" x="689.3525" y="123.35184" style="stroke: #000000; stroke-width: 0.8"/>
      </g>
     </g>
     <g id="text_49">
      <!-- 100 -->
      <g transform="translate(663.265 127.151059) scale(0.1 -0.1)">
       <use xlink:href="#DejaVuSans-31"/>
       <use xlink:href="#DejaVuSans-30" transform="translate(63.623047 0)"/>
       <use xlink:href="#DejaVuSans-30" transform="translate(127.246094 0)"/>
      </g>
     </g>
    </g>
    <g id="ytick_27">
     <g id="line2d_35">
      <g>
       <use xlink:href="#mc1fe84531a" x="689.3525" y="99.5058" style="stroke: #000000; stroke-width: 0.8"/>
      </g>
     </g>
     <g id="text_50">
      <!-- 125 -->
      <g transform="translate(663.265 103.305019) scale(0.1 -0.1)">
       <use xlink:href="#DejaVuSans-31"/>
       <use xlink:href="#DejaVuSans-32" transform="translate(63.623047 0)"/>
       <use xlink:href="#DejaVuSans-35" transform="translate(127.246094 0)"/>
      </g>
     </g>
    </g>
    <g id="ytick_28">
     <g id="line2d_36">
      <g>
       <use xlink:href="#mc1fe84531a" x="689.3525" y="75.65976" style="stroke: #000000; stroke-width: 0.8"/>
      </g>
     </g>
     <g id="text_51">
      <!-- 150 -->
      <g transform="translate(663.265 79.458979) scale(0.1 -0.1)">
       <use xlink:href="#DejaVuSans-31"/>
       <use xlink:href="#DejaVuSans-35" transform="translate(63.623047 0)"/>
       <use xlink:href="#DejaVuSans-30" transform="translate(127.246094 0)"/>
      </g>
     </g>
    </g>
    <g id="ytick_29">
     <g id="line2d_37">
      <g>
       <use xlink:href="#mc1fe84531a" x="689.3525" y="51.81372" style="stroke: #000000; stroke-width: 0.8"/>
      </g>
     </g>
     <g id="text_52">
      <!-- 175 -->
      <g transform="translate(663.265 55.612939) scale(0.1 -0.1)">
       <use xlink:href="#DejaVuSans-31"/>
       <use xlink:href="#DejaVuSans-37" transform="translate(63.623047 0)"/>
       <use xlink:href="#DejaVuSans-35" transform="translate(127.246094 0)"/>
      </g>
     </g>
    </g>
    <g id="ytick_30">
     <g id="line2d_38">
      <g>
       <use xlink:href="#mc1fe84531a" x="689.3525" y="27.96768" style="stroke: #000000; stroke-width: 0.8"/>
      </g>
     </g>
     <g id="text_53">
      <!-- 200 -->
      <g transform="translate(663.265 31.766899) scale(0.1 -0.1)">
       <use xlink:href="#DejaVuSans-32"/>
       <use xlink:href="#DejaVuSans-30" transform="translate(63.623047 0)"/>
       <use xlink:href="#DejaVuSans-30" transform="translate(127.246094 0)"/>
      </g>
     </g>
    </g>
    <g id="text_54">
     <!-- Count -->
     <g transform="translate(657.185313 136.936437) rotate(-90) scale(0.1 -0.1)">
      <use xlink:href="#DejaVuSans-43"/>
      <use xlink:href="#DejaVuSans-6f" transform="translate(69.824219 0)"/>
      <use xlink:href="#DejaVuSans-75" transform="translate(131.005859 0)"/>
      <use xlink:href="#DejaVuSans-6e" transform="translate(194.384766 0)"/>
      <use xlink:href="#DejaVuSans-74" transform="translate(257.763672 0)"/>
     </g>
    </g>
   </g>
   <g id="patch_64">
    <path d="M 689.3525 218.736 
L 689.3525 25.44 
" style="fill: none; stroke: #000000; stroke-width: 0.8; stroke-linejoin: miter; stroke-linecap: square"/>
   </g>
   <g id="patch_65">
    <path d="M 852.58568 218.736 
L 852.58568 25.44 
" style="fill: none; stroke: #000000; stroke-width: 0.8; stroke-linejoin: miter; stroke-linecap: square"/>
   </g>
   <g id="patch_66">
    <path d="M 689.3525 218.736 
L 852.58568 218.736 
" style="fill: none; stroke: #000000; stroke-width: 0.8; stroke-linejoin: miter; stroke-linecap: square"/>
   </g>
   <g id="patch_67">
    <path d="M 689.3525 25.44 
L 852.58568 25.44 
" style="fill: none; stroke: #000000; stroke-width: 0.8; stroke-linejoin: miter; stroke-linecap: square"/>
   </g>
   <g id="text_55">
    <!-- D -->
    <g transform="translate(697.514159 256.848525) scale(0.12 -0.12)">
     <defs>
      <path id="DejaVuSans-Bold-44" d="M 1791 3756 
L 1791 909 
L 2222 909 
Q 2959 909 3348 1275 
Q 3738 1641 3738 2338 
Q 3738 3031 3350 3393 
Q 2963 3756 2222 3756 
L 1791 3756 
z
M 588 4666 
L 1856 4666 
Q 2919 4666 3439 4514 
Q 3959 4363 4331 4000 
Q 4659 3684 4818 3271 
Q 4978 2859 4978 2338 
Q 4978 1809 4818 1395 
Q 4659 981 4331 666 
Q 3956 303 3431 151 
Q 2906 0 1856 0 
L 588 0 
L 588 4666 
z
" transform="scale(0.015625)"/>
     </defs>
     <use xlink:href="#DejaVuSans-Bold-44"/>
    </g>
   </g>
   <g id="text_56">
    <!-- aperture shape -->
    <g transform="translate(725.133777 19.44) scale(0.12 -0.12)">
     <use xlink:href="#DejaVuSans-61"/>
     <use xlink:href="#DejaVuSans-70" transform="translate(61.279297 0)"/>
     <use xlink:href="#DejaVuSans-65" transform="translate(124.755859 0)"/>
     <use xlink:href="#DejaVuSans-72" transform="translate(186.279297 0)"/>
     <use xlink:href="#DejaVuSans-74" transform="translate(227.392578 0)"/>
     <use xlink:href="#DejaVuSans-75" transform="translate(266.601562 0)"/>
     <use xlink:href="#DejaVuSans-72" transform="translate(329.980469 0)"/>
     <use xlink:href="#DejaVuSans-65" transform="translate(368.84375 0)"/>
     <use xlink:href="#DejaVuSans-20" transform="translate(430.367188 0)"/>
     <use xlink:href="#DejaVuSans-73" transform="translate(462.154297 0)"/>
     <use xlink:href="#DejaVuSans-68" transform="translate(514.253906 0)"/>
     <use xlink:href="#DejaVuSans-61" transform="translate(577.632812 0)"/>
     <use xlink:href="#DejaVuSans-70" transform="translate(638.912109 0)"/>
     <use xlink:href="#DejaVuSans-65" transform="translate(702.388672 0)"/>
    </g>
   </g>
  </g>
 </g>
 <defs>
  <clipPath id="p566b7cfc14">
   <rect x="44.66" y="25.44" width="163.23318" height="193.296"/>
  </clipPath>
  <clipPath id="pca133c0ae4">
   <rect x="259.5575" y="25.44" width="163.23318" height="193.296"/>
  </clipPath>
  <clipPath id="p447409fea5">
   <rect x="474.455" y="25.44" width="163.23318" height="193.296"/>
  </clipPath>
  <clipPath id="pc8a2f00641">
   <rect x="689.3525" y="25.44" width="163.23318" height="193.296"/>
  </clipPath>
 </defs>
</svg>
