<?xml version="1.0" encoding="utf-8" standalone="no"?>
<!DOCTYPE svg PUBLIC "-//W3C//DTD SVG 1.1//EN"
  "http://www.w3.org/Graphics/SVG/1.1/DTD/svg11.dtd">
<svg xmlns:xlink="http://www.w3.org/1999/xlink" width="576pt" height="432pt" viewBox="0 0 576 432" xmlns="http://www.w3.org/2000/svg" version="1.1">
 <metadata>
  <rdf:RDF xmlns:dc="http://purl.org/dc/elements/1.1/" xmlns:cc="http://creativecommons.org/ns#" xmlns:rdf="http://www.w3.org/1999/02/22-rdf-syntax-ns#">
   <cc:Work>
    <dc:type rdf:resource="http://purl.org/dc/dcmitype/StillImage"/>
    <dc:date>2025-03-13T17:25:31.310966</dc:date>
    <dc:format>image/svg+xml</dc:format>
    <dc:creator>
     <cc:Agent>
      <dc:title>Matplotlib v3.10.0, https://matplotlib.org/</dc:title>
     </cc:Agent>
    </dc:creator>
   </cc:Work>
  </rdf:RDF>
 </metadata>
 <defs>
  <style type="text/css">*{stroke-linejoin: round; stroke-linecap: butt}</style>
 </defs>
 <g id="figure_1">
  <g id="patch_1">
   <path d="M 0 432 
L 576 432 
L 576 0 
L 0 0 
z
" style="fill: #ffffff"/>
  </g>
  <g id="axes_1">
   <g id="patch_2">
    <path d="M 72 384.48 
L 518.4 384.48 
L 518.4 51.84 
L 72 51.84 
z
" style="fill: #ffffff"/>
   </g>
   <g id="PathCollection_1">
    <defs>
     <path id="C0_0_4b761bf45a" d="M 0 5 
C 1.326016 5 2.597899 4.473168 3.535534 3.535534 
C 4.473168 2.597899 5 1.326016 5 -0 
C 5 -1.326016 4.473168 -2.597899 3.535534 -3.535534 
C 2.597899 -4.473168 1.326016 -5 0 -5 
C -1.326016 -5 -2.597899 -4.473168 -3.535534 -3.535534 
C -4.473168 -2.597899 -5 -1.326016 -5 0 
C -5 1.326016 -4.473168 2.597899 -3.535534 3.535534 
C -2.597899 4.473168 -1.326016 5 0 5 
z
"/>
    </defs>
    <g clip-path="url(#p190c87b384)">
     <use xlink:href="#C0_0_4b761bf45a" x="454.3108" y="213.594149" style="fill: #ff7f0e; stroke: #ffffff; stroke-width: 0.8"/>
    </g>
    <g clip-path="url(#p190c87b384)">
     <use xlink:href="#C0_0_4b761bf45a" x="474.589165" y="212.553883" style="fill: #ff7f0e; stroke: #ffffff; stroke-width: 0.8"/>
    </g>
    <g clip-path="url(#p190c87b384)">
     <use xlink:href="#C0_0_4b761bf45a" x="436.235118" y="204.14819" style="fill: #ff7f0e; stroke: #ffffff; stroke-width: 0.8"/>
    </g>
    <g clip-path="url(#p190c87b384)">
     <use xlink:href="#C0_0_4b761bf45a" x="477.429573" y="196.212116" style="fill: #ff7f0e; stroke: #ffffff; stroke-width: 0.8"/>
    </g>
    <g clip-path="url(#p190c87b384)">
     <use xlink:href="#C0_0_4b761bf45a" x="169.408737" y="343.811318" style="fill: #1f77b4; stroke: #ffffff; stroke-width: 0.8"/>
    </g>
    <g clip-path="url(#p190c87b384)">
     <use xlink:href="#C0_0_4b761bf45a" x="452.110043" y="196.073746" style="fill: #ff7f0e; stroke: #ffffff; stroke-width: 0.8"/>
    </g>
    <g clip-path="url(#p190c87b384)">
     <use xlink:href="#C0_0_4b761bf45a" x="317.718977" y="108.785009" style="fill: #1f77b4; stroke: #ffffff; stroke-width: 0.8"/>
    </g>
    <g clip-path="url(#p190c87b384)">
     <use xlink:href="#C0_0_4b761bf45a" x="482.499737" y="260.649378" style="fill: #ff7f0e; stroke: #ffffff; stroke-width: 0.8"/>
    </g>
    <g clip-path="url(#p190c87b384)">
     <use xlink:href="#C0_0_4b761bf45a" x="444.249431" y="200.969651" style="fill: #ff7f0e; stroke: #ffffff; stroke-width: 0.8"/>
    </g>
    <g clip-path="url(#p190c87b384)">
     <use xlink:href="#C0_0_4b761bf45a" x="466.080448" y="208.763974" style="fill: #ff7f0e; stroke: #ffffff; stroke-width: 0.8"/>
    </g>
    <g clip-path="url(#p190c87b384)">
     <use xlink:href="#C0_0_4b761bf45a" x="411.323377" y="230.702472" style="fill: #ff7f0e; stroke: #ffffff; stroke-width: 0.8"/>
    </g>
    <g clip-path="url(#p190c87b384)">
     <use xlink:href="#C0_0_4b761bf45a" x="439.199291" y="175.028215" style="fill: #ff7f0e; stroke: #ffffff; stroke-width: 0.8"/>
    </g>
    <g clip-path="url(#p190c87b384)">
     <use xlink:href="#C0_0_4b761bf45a" x="301.278606" y="66.96" style="fill: #1f77b4; stroke: #ffffff; stroke-width: 0.8"/>
    </g>
    <g clip-path="url(#p190c87b384)">
     <use xlink:href="#C0_0_4b761bf45a" x="337.080476" y="154.917241" style="fill: #1f77b4; stroke: #ffffff; stroke-width: 0.8"/>
    </g>
    <g clip-path="url(#p190c87b384)">
     <use xlink:href="#C0_0_4b761bf45a" x="485.54114" y="207.214198" style="fill: #ff7f0e; stroke: #ffffff; stroke-width: 0.8"/>
    </g>
    <g clip-path="url(#p190c87b384)">
     <use xlink:href="#C0_0_4b761bf45a" x="156.677472" y="175.888238" style="fill: #1f77b4; stroke: #ffffff; stroke-width: 0.8"/>
    </g>
    <g clip-path="url(#p190c87b384)">
     <use xlink:href="#C0_0_4b761bf45a" x="467.373354" y="221.015167" style="fill: #ff7f0e; stroke: #ffffff; stroke-width: 0.8"/>
    </g>
    <g clip-path="url(#p190c87b384)">
     <use xlink:href="#C0_0_4b761bf45a" x="412.375143" y="155.968399" style="fill: #ff7f0e; stroke: #ffffff; stroke-width: 0.8"/>
    </g>
    <g clip-path="url(#p190c87b384)">
     <use xlink:href="#C0_0_4b761bf45a" x="429.889138" y="179.42993" style="fill: #ff7f0e; stroke: #ffffff; stroke-width: 0.8"/>
    </g>
    <g clip-path="url(#p190c87b384)">
     <use xlink:href="#C0_0_4b761bf45a" x="434.359176" y="210.015596" style="fill: #ff7f0e; stroke: #ffffff; stroke-width: 0.8"/>
    </g>
    <g clip-path="url(#p190c87b384)">
     <use xlink:href="#C0_0_4b761bf45a" x="183.098491" y="304.547976" style="fill: #1f77b4; stroke: #ffffff; stroke-width: 0.8"/>
    </g>
    <g clip-path="url(#p190c87b384)">
     <use xlink:href="#C0_0_4b761bf45a" x="420.347108" y="151.477771" style="fill: #ff7f0e; stroke: #ffffff; stroke-width: 0.8"/>
    </g>
    <g clip-path="url(#p190c87b384)">
     <use xlink:href="#C0_0_4b761bf45a" x="393.185902" y="188.321458" style="fill: #ff7f0e; stroke: #ffffff; stroke-width: 0.8"/>
    </g>
    <g clip-path="url(#p190c87b384)">
     <use xlink:href="#C0_0_4b761bf45a" x="428.965939" y="195.094952" style="fill: #ff7f0e; stroke: #ffffff; stroke-width: 0.8"/>
    </g>
    <g clip-path="url(#p190c87b384)">
     <use xlink:href="#C0_0_4b761bf45a" x="450.48692" y="201.236968" style="fill: #ff7f0e; stroke: #ffffff; stroke-width: 0.8"/>
    </g>
    <g clip-path="url(#p190c87b384)">
     <use xlink:href="#C0_0_4b761bf45a" x="215.062827" y="136.97882" style="fill: #1f77b4; stroke: #ffffff; stroke-width: 0.8"/>
    </g>
    <g clip-path="url(#p190c87b384)">
     <use xlink:href="#C0_0_4b761bf45a" x="477.189762" y="146.802633" style="fill: #ff7f0e; stroke: #ffffff; stroke-width: 0.8"/>
    </g>
    <g clip-path="url(#p190c87b384)">
     <use xlink:href="#C0_0_4b761bf45a" x="485.264738" y="191.755537" style="fill: #ff7f0e; stroke: #ffffff; stroke-width: 0.8"/>
    </g>
    <g clip-path="url(#p190c87b384)">
     <use xlink:href="#C0_0_4b761bf45a" x="498.109091" y="258.02367" style="fill: #ff7f0e; stroke: #ffffff; stroke-width: 0.8"/>
    </g>
    <g clip-path="url(#p190c87b384)">
     <use xlink:href="#C0_0_4b761bf45a" x="206.70741" y="295.443129" style="fill: #1f77b4; stroke: #ffffff; stroke-width: 0.8"/>
    </g>
    <g clip-path="url(#p190c87b384)">
     <use xlink:href="#C0_0_4b761bf45a" x="282.507939" y="168.19765" style="fill: #1f77b4; stroke: #ffffff; stroke-width: 0.8"/>
    </g>
    <g clip-path="url(#p190c87b384)">
     <use xlink:href="#C0_0_4b761bf45a" x="457.51268" y="249.186858" style="fill: #ff7f0e; stroke: #ffffff; stroke-width: 0.8"/>
    </g>
    <g clip-path="url(#p190c87b384)">
     <use xlink:href="#C0_0_4b761bf45a" x="429.1851" y="182.163629" style="fill: #ff7f0e; stroke: #ffffff; stroke-width: 0.8"/>
    </g>
    <g clip-path="url(#p190c87b384)">
     <use xlink:href="#C0_0_4b761bf45a" x="392.099534" y="256.463367" style="fill: #ff7f0e; stroke: #ffffff; stroke-width: 0.8"/>
    </g>
    <g clip-path="url(#p190c87b384)">
     <use xlink:href="#C0_0_4b761bf45a" x="471.668712" y="184.747125" style="fill: #ff7f0e; stroke: #ffffff; stroke-width: 0.8"/>
    </g>
    <g clip-path="url(#p190c87b384)">
     <use xlink:href="#C0_0_4b761bf45a" x="294.319271" y="169.797372" style="fill: #1f77b4; stroke: #ffffff; stroke-width: 0.8"/>
    </g>
    <g clip-path="url(#p190c87b384)">
     <use xlink:href="#C0_0_4b761bf45a" x="424.092406" y="200.969601" style="fill: #ff7f0e; stroke: #ffffff; stroke-width: 0.8"/>
    </g>
    <g clip-path="url(#p190c87b384)">
     <use xlink:href="#C0_0_4b761bf45a" x="460.997072" y="203.697784" style="fill: #ff7f0e; stroke: #ffffff; stroke-width: 0.8"/>
    </g>
    <g clip-path="url(#p190c87b384)">
     <use xlink:href="#C0_0_4b761bf45a" x="466.560734" y="241.198814" style="fill: #ff7f0e; stroke: #ffffff; stroke-width: 0.8"/>
    </g>
    <g clip-path="url(#p190c87b384)">
     <use xlink:href="#C0_0_4b761bf45a" x="419.021091" y="196.031863" style="fill: #ff7f0e; stroke: #ffffff; stroke-width: 0.8"/>
    </g>
    <g clip-path="url(#p190c87b384)">
     <use xlink:href="#C0_0_4b761bf45a" x="441.434992" y="216.431613" style="fill: #ff7f0e; stroke: #ffffff; stroke-width: 0.8"/>
    </g>
    <g clip-path="url(#p190c87b384)">
     <use xlink:href="#C0_0_4b761bf45a" x="335.806732" y="292.925452" style="fill: #ff7f0e; stroke: #ffffff; stroke-width: 0.8"/>
    </g>
    <g clip-path="url(#p190c87b384)">
     <use xlink:href="#C0_0_4b761bf45a" x="370.57191" y="239.356035" style="fill: #ff7f0e; stroke: #ffffff; stroke-width: 0.8"/>
    </g>
    <g clip-path="url(#p190c87b384)">
     <use xlink:href="#C0_0_4b761bf45a" x="434.887341" y="260.025543" style="fill: #ff7f0e; stroke: #ffffff; stroke-width: 0.8"/>
    </g>
    <g clip-path="url(#p190c87b384)">
     <use xlink:href="#C0_0_4b761bf45a" x="207.780528" y="104.318652" style="fill: #1f77b4; stroke: #ffffff; stroke-width: 0.8"/>
    </g>
    <g clip-path="url(#p190c87b384)">
     <use xlink:href="#C0_0_4b761bf45a" x="400.218998" y="194.670005" style="fill: #ff7f0e; stroke: #ffffff; stroke-width: 0.8"/>
    </g>
    <g clip-path="url(#p190c87b384)">
     <use xlink:href="#C0_0_4b761bf45a" x="431.818808" y="178.099945" style="fill: #ff7f0e; stroke: #ffffff; stroke-width: 0.8"/>
    </g>
    <g clip-path="url(#p190c87b384)">
     <use xlink:href="#C0_0_4b761bf45a" x="396.236815" y="204.790486" style="fill: #ff7f0e; stroke: #ffffff; stroke-width: 0.8"/>
    </g>
    <g clip-path="url(#p190c87b384)">
     <use xlink:href="#C0_0_4b761bf45a" x="432.591136" y="236.021155" style="fill: #ff7f0e; stroke: #ffffff; stroke-width: 0.8"/>
    </g>
    <g clip-path="url(#p190c87b384)">
     <use xlink:href="#C0_0_4b761bf45a" x="444.153612" y="202.86274" style="fill: #ff7f0e; stroke: #ffffff; stroke-width: 0.8"/>
    </g>
    <g clip-path="url(#p190c87b384)">
     <use xlink:href="#C0_0_4b761bf45a" x="388.220223" y="210.419279" style="fill: #ff7f0e; stroke: #ffffff; stroke-width: 0.8"/>
    </g>
    <g clip-path="url(#p190c87b384)">
     <use xlink:href="#C0_0_4b761bf45a" x="463.05509" y="201.298219" style="fill: #ff7f0e; stroke: #ffffff; stroke-width: 0.8"/>
    </g>
    <g clip-path="url(#p190c87b384)">
     <use xlink:href="#C0_0_4b761bf45a" x="315.766767" y="205.037935" style="fill: #1f77b4; stroke: #ffffff; stroke-width: 0.8"/>
    </g>
    <g clip-path="url(#p190c87b384)">
     <use xlink:href="#C0_0_4b761bf45a" x="477.864761" y="188.81865" style="fill: #ff7f0e; stroke: #ffffff; stroke-width: 0.8"/>
    </g>
    <g clip-path="url(#p190c87b384)">
     <use xlink:href="#C0_0_4b761bf45a" x="421.150751" y="369.36" style="fill: #ff7f0e; stroke: #ffffff; stroke-width: 0.8"/>
    </g>
    <g clip-path="url(#p190c87b384)">
     <use xlink:href="#C0_0_4b761bf45a" x="438.866406" y="303.810766" style="fill: #ff7f0e; stroke: #ffffff; stroke-width: 0.8"/>
    </g>
    <g clip-path="url(#p190c87b384)">
     <use xlink:href="#C0_0_4b761bf45a" x="485.391933" y="223.178421" style="fill: #ff7f0e; stroke: #ffffff; stroke-width: 0.8"/>
    </g>
    <g clip-path="url(#p190c87b384)">
     <use xlink:href="#C0_0_4b761bf45a" x="401.785179" y="275.247762" style="fill: #ff7f0e; stroke: #ffffff; stroke-width: 0.8"/>
    </g>
    <g clip-path="url(#p190c87b384)">
     <use xlink:href="#C0_0_4b761bf45a" x="286.909372" y="102.868203" style="fill: #1f77b4; stroke: #ffffff; stroke-width: 0.8"/>
    </g>
    <g clip-path="url(#p190c87b384)">
     <use xlink:href="#C0_0_4b761bf45a" x="460.103281" y="141.601015" style="fill: #ff7f0e; stroke: #ffffff; stroke-width: 0.8"/>
    </g>
    <g clip-path="url(#p190c87b384)">
     <use xlink:href="#C0_0_4b761bf45a" x="454.516466" y="178.818906" style="fill: #ff7f0e; stroke: #ffffff; stroke-width: 0.8"/>
    </g>
    <g clip-path="url(#p190c87b384)">
     <use xlink:href="#C0_0_4b761bf45a" x="92.290909" y="167.708166" style="fill: #1f77b4; stroke: #ffffff; stroke-width: 0.8"/>
    </g>
    <g clip-path="url(#p190c87b384)">
     <use xlink:href="#C0_0_4b761bf45a" x="460.339985" y="121.036461" style="fill: #ff7f0e; stroke: #ffffff; stroke-width: 0.8"/>
    </g>
    <g clip-path="url(#p190c87b384)">
     <use xlink:href="#C0_0_4b761bf45a" x="411.04298" y="231.993636" style="fill: #ff7f0e; stroke: #ffffff; stroke-width: 0.8"/>
    </g>
    <g clip-path="url(#p190c87b384)">
     <use xlink:href="#C0_0_4b761bf45a" x="376.93144" y="217.4763" style="fill: #ff7f0e; stroke: #ffffff; stroke-width: 0.8"/>
    </g>
    <g clip-path="url(#p190c87b384)">
     <use xlink:href="#C0_0_4b761bf45a" x="460.582736" y="195.029796" style="fill: #ff7f0e; stroke: #ffffff; stroke-width: 0.8"/>
    </g>
    <g clip-path="url(#p190c87b384)">
     <use xlink:href="#C0_0_4b761bf45a" x="435.111547" y="189.231637" style="fill: #ff7f0e; stroke: #ffffff; stroke-width: 0.8"/>
    </g>
    <g clip-path="url(#p190c87b384)">
     <use xlink:href="#C0_0_4b761bf45a" x="207.343178" y="196.630924" style="fill: #1f77b4; stroke: #ffffff; stroke-width: 0.8"/>
    </g>
    <g clip-path="url(#p190c87b384)">
     <use xlink:href="#C0_0_4b761bf45a" x="467.981624" y="171.678501" style="fill: #ff7f0e; stroke: #ffffff; stroke-width: 0.8"/>
    </g>
    <g clip-path="url(#p190c87b384)">
     <use xlink:href="#C0_0_4b761bf45a" x="416.252519" y="187.959141" style="fill: #ff7f0e; stroke: #ffffff; stroke-width: 0.8"/>
    </g>
    <g clip-path="url(#p190c87b384)">
     <use xlink:href="#C0_0_4b761bf45a" x="472.784519" y="227.81218" style="fill: #ff7f0e; stroke: #ffffff; stroke-width: 0.8"/>
    </g>
    <g clip-path="url(#p190c87b384)">
     <use xlink:href="#C0_0_4b761bf45a" x="261.85327" y="219.84961" style="fill: #1f77b4; stroke: #ffffff; stroke-width: 0.8"/>
    </g>
    <g clip-path="url(#p190c87b384)">
     <use xlink:href="#C0_0_4b761bf45a" x="467.780242" y="122.965892" style="fill: #ff7f0e; stroke: #ffffff; stroke-width: 0.8"/>
    </g>
    <g clip-path="url(#p190c87b384)">
     <use xlink:href="#C0_0_4b761bf45a" x="467.64361" y="177.272246" style="fill: #ff7f0e; stroke: #ffffff; stroke-width: 0.8"/>
    </g>
    <g clip-path="url(#p190c87b384)">
     <use xlink:href="#C0_0_4b761bf45a" x="459.667683" y="139.470456" style="fill: #ff7f0e; stroke: #ffffff; stroke-width: 0.8"/>
    </g>
    <g clip-path="url(#p190c87b384)">
     <use xlink:href="#C0_0_4b761bf45a" x="471.111921" y="159.078889" style="fill: #ff7f0e; stroke: #ffffff; stroke-width: 0.8"/>
    </g>
    <g clip-path="url(#p190c87b384)">
     <use xlink:href="#C0_0_4b761bf45a" x="414.924315" y="213.851295" style="fill: #ff7f0e; stroke: #ffffff; stroke-width: 0.8"/>
    </g>
    <g clip-path="url(#p190c87b384)">
     <use xlink:href="#C0_0_4b761bf45a" x="406.28838" y="176.663295" style="fill: #ff7f0e; stroke: #ffffff; stroke-width: 0.8"/>
    </g>
    <g clip-path="url(#p190c87b384)">
     <use xlink:href="#C0_0_4b761bf45a" x="468.380351" y="159.974752" style="fill: #ff7f0e; stroke: #ffffff; stroke-width: 0.8"/>
    </g>
    <g clip-path="url(#p190c87b384)">
     <use xlink:href="#C0_0_4b761bf45a" x="477.86768" y="217.210591" style="fill: #ff7f0e; stroke: #ffffff; stroke-width: 0.8"/>
    </g>
    <g clip-path="url(#p190c87b384)">
     <use xlink:href="#C0_0_4b761bf45a" x="263.847634" y="213.085454" style="fill: #1f77b4; stroke: #ffffff; stroke-width: 0.8"/>
    </g>
   </g>
   <g id="matplotlib.axis_1">
    <g id="xtick_1">
     <g id="line2d_1">
      <defs>
       <path id="m84d7122e93" d="M 0 0 
L 0 3.5 
" style="stroke: #000000; stroke-width: 0.8"/>
      </defs>
      <g>
       <use xlink:href="#m84d7122e93" x="76.117398" y="384.48" style="stroke: #000000; stroke-width: 0.8"/>
      </g>
     </g>
     <g id="text_1">
      <!-- −0.20 -->
      <g transform="translate(60.794741 399.078438) scale(0.1 -0.1)">
       <defs>
        <path id="DejaVuSans-2212" d="M 678 2272 
L 4684 2272 
L 4684 1741 
L 678 1741 
L 678 2272 
z
" transform="scale(0.015625)"/>
        <path id="DejaVuSans-30" d="M 2034 4250 
Q 1547 4250 1301 3770 
Q 1056 3291 1056 2328 
Q 1056 1369 1301 889 
Q 1547 409 2034 409 
Q 2525 409 2770 889 
Q 3016 1369 3016 2328 
Q 3016 3291 2770 3770 
Q 2525 4250 2034 4250 
z
M 2034 4750 
Q 2819 4750 3233 4129 
Q 3647 3509 3647 2328 
Q 3647 1150 3233 529 
Q 2819 -91 2034 -91 
Q 1250 -91 836 529 
Q 422 1150 422 2328 
Q 422 3509 836 4129 
Q 1250 4750 2034 4750 
z
" transform="scale(0.015625)"/>
        <path id="DejaVuSans-2e" d="M 684 794 
L 1344 794 
L 1344 0 
L 684 0 
L 684 794 
z
" transform="scale(0.015625)"/>
        <path id="DejaVuSans-32" d="M 1228 531 
L 3431 531 
L 3431 0 
L 469 0 
L 469 531 
Q 828 903 1448 1529 
Q 2069 2156 2228 2338 
Q 2531 2678 2651 2914 
Q 2772 3150 2772 3378 
Q 2772 3750 2511 3984 
Q 2250 4219 1831 4219 
Q 1534 4219 1204 4116 
Q 875 4013 500 3803 
L 500 4441 
Q 881 4594 1212 4672 
Q 1544 4750 1819 4750 
Q 2544 4750 2975 4387 
Q 3406 4025 3406 3419 
Q 3406 3131 3298 2873 
Q 3191 2616 2906 2266 
Q 2828 2175 2409 1742 
Q 1991 1309 1228 531 
z
" transform="scale(0.015625)"/>
       </defs>
       <use xlink:href="#DejaVuSans-2212"/>
       <use xlink:href="#DejaVuSans-30" transform="translate(83.789062 0)"/>
       <use xlink:href="#DejaVuSans-2e" transform="translate(147.412109 0)"/>
       <use xlink:href="#DejaVuSans-32" transform="translate(179.199219 0)"/>
       <use xlink:href="#DejaVuSans-30" transform="translate(242.822266 0)"/>
      </g>
     </g>
    </g>
    <g id="xtick_2">
     <g id="line2d_2">
      <g>
       <use xlink:href="#m84d7122e93" x="156.949991" y="384.48" style="stroke: #000000; stroke-width: 0.8"/>
      </g>
     </g>
     <g id="text_2">
      <!-- −0.15 -->
      <g transform="translate(141.627335 399.078438) scale(0.1 -0.1)">
       <defs>
        <path id="DejaVuSans-31" d="M 794 531 
L 1825 531 
L 1825 4091 
L 703 3866 
L 703 4441 
L 1819 4666 
L 2450 4666 
L 2450 531 
L 3481 531 
L 3481 0 
L 794 0 
L 794 531 
z
" transform="scale(0.015625)"/>
        <path id="DejaVuSans-35" d="M 691 4666 
L 3169 4666 
L 3169 4134 
L 1269 4134 
L 1269 2991 
Q 1406 3038 1543 3061 
Q 1681 3084 1819 3084 
Q 2600 3084 3056 2656 
Q 3513 2228 3513 1497 
Q 3513 744 3044 326 
Q 2575 -91 1722 -91 
Q 1428 -91 1123 -41 
Q 819 9 494 109 
L 494 744 
Q 775 591 1075 516 
Q 1375 441 1709 441 
Q 2250 441 2565 725 
Q 2881 1009 2881 1497 
Q 2881 1984 2565 2268 
Q 2250 2553 1709 2553 
Q 1456 2553 1204 2497 
Q 953 2441 691 2322 
L 691 4666 
z
" transform="scale(0.015625)"/>
       </defs>
       <use xlink:href="#DejaVuSans-2212"/>
       <use xlink:href="#DejaVuSans-30" transform="translate(83.789062 0)"/>
       <use xlink:href="#DejaVuSans-2e" transform="translate(147.412109 0)"/>
       <use xlink:href="#DejaVuSans-31" transform="translate(179.199219 0)"/>
       <use xlink:href="#DejaVuSans-35" transform="translate(242.822266 0)"/>
      </g>
     </g>
    </g>
    <g id="xtick_3">
     <g id="line2d_3">
      <g>
       <use xlink:href="#m84d7122e93" x="237.782585" y="384.48" style="stroke: #000000; stroke-width: 0.8"/>
      </g>
     </g>
     <g id="text_3">
      <!-- −0.10 -->
      <g transform="translate(222.459929 399.078438) scale(0.1 -0.1)">
       <use xlink:href="#DejaVuSans-2212"/>
       <use xlink:href="#DejaVuSans-30" transform="translate(83.789062 0)"/>
       <use xlink:href="#DejaVuSans-2e" transform="translate(147.412109 0)"/>
       <use xlink:href="#DejaVuSans-31" transform="translate(179.199219 0)"/>
       <use xlink:href="#DejaVuSans-30" transform="translate(242.822266 0)"/>
      </g>
     </g>
    </g>
    <g id="xtick_4">
     <g id="line2d_4">
      <g>
       <use xlink:href="#m84d7122e93" x="318.615179" y="384.48" style="stroke: #000000; stroke-width: 0.8"/>
      </g>
     </g>
     <g id="text_4">
      <!-- −0.05 -->
      <g transform="translate(303.292522 399.078438) scale(0.1 -0.1)">
       <use xlink:href="#DejaVuSans-2212"/>
       <use xlink:href="#DejaVuSans-30" transform="translate(83.789062 0)"/>
       <use xlink:href="#DejaVuSans-2e" transform="translate(147.412109 0)"/>
       <use xlink:href="#DejaVuSans-30" transform="translate(179.199219 0)"/>
       <use xlink:href="#DejaVuSans-35" transform="translate(242.822266 0)"/>
      </g>
     </g>
    </g>
    <g id="xtick_5">
     <g id="line2d_5">
      <g>
       <use xlink:href="#m84d7122e93" x="399.447772" y="384.48" style="stroke: #000000; stroke-width: 0.8"/>
      </g>
     </g>
     <g id="text_5">
      <!-- 0.00 -->
      <g transform="translate(388.31496 399.078438) scale(0.1 -0.1)">
       <use xlink:href="#DejaVuSans-30"/>
       <use xlink:href="#DejaVuSans-2e" transform="translate(63.623047 0)"/>
       <use xlink:href="#DejaVuSans-30" transform="translate(95.410156 0)"/>
       <use xlink:href="#DejaVuSans-30" transform="translate(159.033203 0)"/>
      </g>
     </g>
    </g>
    <g id="xtick_6">
     <g id="line2d_6">
      <g>
       <use xlink:href="#m84d7122e93" x="480.280366" y="384.48" style="stroke: #000000; stroke-width: 0.8"/>
      </g>
     </g>
     <g id="text_6">
      <!-- 0.05 -->
      <g transform="translate(469.147553 399.078438) scale(0.1 -0.1)">
       <use xlink:href="#DejaVuSans-30"/>
       <use xlink:href="#DejaVuSans-2e" transform="translate(63.623047 0)"/>
       <use xlink:href="#DejaVuSans-30" transform="translate(95.410156 0)"/>
       <use xlink:href="#DejaVuSans-35" transform="translate(159.033203 0)"/>
      </g>
     </g>
    </g>
    <g id="text_7">
     <!-- PC1 -->
     <g transform="translate(285.5125 412.756563) scale(0.1 -0.1)">
      <defs>
       <path id="DejaVuSans-50" d="M 1259 4147 
L 1259 2394 
L 2053 2394 
Q 2494 2394 2734 2622 
Q 2975 2850 2975 3272 
Q 2975 3691 2734 3919 
Q 2494 4147 2053 4147 
L 1259 4147 
z
M 628 4666 
L 2053 4666 
Q 2838 4666 3239 4311 
Q 3641 3956 3641 3272 
Q 3641 2581 3239 2228 
Q 2838 1875 2053 1875 
L 1259 1875 
L 1259 0 
L 628 0 
L 628 4666 
z
" transform="scale(0.015625)"/>
       <path id="DejaVuSans-43" d="M 4122 4306 
L 4122 3641 
Q 3803 3938 3442 4084 
Q 3081 4231 2675 4231 
Q 1875 4231 1450 3742 
Q 1025 3253 1025 2328 
Q 1025 1406 1450 917 
Q 1875 428 2675 428 
Q 3081 428 3442 575 
Q 3803 722 4122 1019 
L 4122 359 
Q 3791 134 3420 21 
Q 3050 -91 2638 -91 
Q 1578 -91 968 557 
Q 359 1206 359 2328 
Q 359 3453 968 4101 
Q 1578 4750 2638 4750 
Q 3056 4750 3426 4639 
Q 3797 4528 4122 4306 
z
" transform="scale(0.015625)"/>
      </defs>
      <use xlink:href="#DejaVuSans-50"/>
      <use xlink:href="#DejaVuSans-43" transform="translate(60.302734 0)"/>
      <use xlink:href="#DejaVuSans-31" transform="translate(130.126953 0)"/>
     </g>
    </g>
   </g>
   <g id="matplotlib.axis_2">
    <g id="ytick_1">
     <g id="line2d_7">
      <defs>
       <path id="m1907751e88" d="M 0 0 
L -3.5 0 
" style="stroke: #000000; stroke-width: 0.8"/>
      </defs>
      <g>
       <use xlink:href="#m1907751e88" x="72" y="354.286626" style="stroke: #000000; stroke-width: 0.8"/>
      </g>
     </g>
     <g id="text_8">
      <!-- −0.100 -->
      <g transform="translate(27.992188 358.085844) scale(0.1 -0.1)">
       <use xlink:href="#DejaVuSans-2212"/>
       <use xlink:href="#DejaVuSans-30" transform="translate(83.789062 0)"/>
       <use xlink:href="#DejaVuSans-2e" transform="translate(147.412109 0)"/>
       <use xlink:href="#DejaVuSans-31" transform="translate(179.199219 0)"/>
       <use xlink:href="#DejaVuSans-30" transform="translate(242.822266 0)"/>
       <use xlink:href="#DejaVuSans-30" transform="translate(306.445312 0)"/>
      </g>
     </g>
    </g>
    <g id="ytick_2">
     <g id="line2d_8">
      <g>
       <use xlink:href="#m1907751e88" x="72" y="315.964284" style="stroke: #000000; stroke-width: 0.8"/>
      </g>
     </g>
     <g id="text_9">
      <!-- −0.075 -->
      <g transform="translate(27.992188 319.763502) scale(0.1 -0.1)">
       <defs>
        <path id="DejaVuSans-37" d="M 525 4666 
L 3525 4666 
L 3525 4397 
L 1831 0 
L 1172 0 
L 2766 4134 
L 525 4134 
L 525 4666 
z
" transform="scale(0.015625)"/>
       </defs>
       <use xlink:href="#DejaVuSans-2212"/>
       <use xlink:href="#DejaVuSans-30" transform="translate(83.789062 0)"/>
       <use xlink:href="#DejaVuSans-2e" transform="translate(147.412109 0)"/>
       <use xlink:href="#DejaVuSans-30" transform="translate(179.199219 0)"/>
       <use xlink:href="#DejaVuSans-37" transform="translate(242.822266 0)"/>
       <use xlink:href="#DejaVuSans-35" transform="translate(306.445312 0)"/>
      </g>
     </g>
    </g>
    <g id="ytick_3">
     <g id="line2d_9">
      <g>
       <use xlink:href="#m1907751e88" x="72" y="277.641942" style="stroke: #000000; stroke-width: 0.8"/>
      </g>
     </g>
     <g id="text_10">
      <!-- −0.050 -->
      <g transform="translate(27.992188 281.44116) scale(0.1 -0.1)">
       <use xlink:href="#DejaVuSans-2212"/>
       <use xlink:href="#DejaVuSans-30" transform="translate(83.789062 0)"/>
       <use xlink:href="#DejaVuSans-2e" transform="translate(147.412109 0)"/>
       <use xlink:href="#DejaVuSans-30" transform="translate(179.199219 0)"/>
       <use xlink:href="#DejaVuSans-35" transform="translate(242.822266 0)"/>
       <use xlink:href="#DejaVuSans-30" transform="translate(306.445312 0)"/>
      </g>
     </g>
    </g>
    <g id="ytick_4">
     <g id="line2d_10">
      <g>
       <use xlink:href="#m1907751e88" x="72" y="239.319599" style="stroke: #000000; stroke-width: 0.8"/>
      </g>
     </g>
     <g id="text_11">
      <!-- −0.025 -->
      <g transform="translate(27.992188 243.118818) scale(0.1 -0.1)">
       <use xlink:href="#DejaVuSans-2212"/>
       <use xlink:href="#DejaVuSans-30" transform="translate(83.789062 0)"/>
       <use xlink:href="#DejaVuSans-2e" transform="translate(147.412109 0)"/>
       <use xlink:href="#DejaVuSans-30" transform="translate(179.199219 0)"/>
       <use xlink:href="#DejaVuSans-32" transform="translate(242.822266 0)"/>
       <use xlink:href="#DejaVuSans-35" transform="translate(306.445312 0)"/>
      </g>
     </g>
    </g>
    <g id="ytick_5">
     <g id="line2d_11">
      <g>
       <use xlink:href="#m1907751e88" x="72" y="200.997257" style="stroke: #000000; stroke-width: 0.8"/>
      </g>
     </g>
     <g id="text_12">
      <!-- 0.000 -->
      <g transform="translate(36.371875 204.796476) scale(0.1 -0.1)">
       <use xlink:href="#DejaVuSans-30"/>
       <use xlink:href="#DejaVuSans-2e" transform="translate(63.623047 0)"/>
       <use xlink:href="#DejaVuSans-30" transform="translate(95.410156 0)"/>
       <use xlink:href="#DejaVuSans-30" transform="translate(159.033203 0)"/>
       <use xlink:href="#DejaVuSans-30" transform="translate(222.65625 0)"/>
      </g>
     </g>
    </g>
    <g id="ytick_6">
     <g id="line2d_12">
      <g>
       <use xlink:href="#m1907751e88" x="72" y="162.674915" style="stroke: #000000; stroke-width: 0.8"/>
      </g>
     </g>
     <g id="text_13">
      <!-- 0.025 -->
      <g transform="translate(36.371875 166.474134) scale(0.1 -0.1)">
       <use xlink:href="#DejaVuSans-30"/>
       <use xlink:href="#DejaVuSans-2e" transform="translate(63.623047 0)"/>
       <use xlink:href="#DejaVuSans-30" transform="translate(95.410156 0)"/>
       <use xlink:href="#DejaVuSans-32" transform="translate(159.033203 0)"/>
       <use xlink:href="#DejaVuSans-35" transform="translate(222.65625 0)"/>
      </g>
     </g>
    </g>
    <g id="ytick_7">
     <g id="line2d_13">
      <g>
       <use xlink:href="#m1907751e88" x="72" y="124.352573" style="stroke: #000000; stroke-width: 0.8"/>
      </g>
     </g>
     <g id="text_14">
      <!-- 0.050 -->
      <g transform="translate(36.371875 128.151792) scale(0.1 -0.1)">
       <use xlink:href="#DejaVuSans-30"/>
       <use xlink:href="#DejaVuSans-2e" transform="translate(63.623047 0)"/>
       <use xlink:href="#DejaVuSans-30" transform="translate(95.410156 0)"/>
       <use xlink:href="#DejaVuSans-35" transform="translate(159.033203 0)"/>
       <use xlink:href="#DejaVuSans-30" transform="translate(222.65625 0)"/>
      </g>
     </g>
    </g>
    <g id="ytick_8">
     <g id="line2d_14">
      <g>
       <use xlink:href="#m1907751e88" x="72" y="86.030231" style="stroke: #000000; stroke-width: 0.8"/>
      </g>
     </g>
     <g id="text_15">
      <!-- 0.075 -->
      <g transform="translate(36.371875 89.82945) scale(0.1 -0.1)">
       <use xlink:href="#DejaVuSans-30"/>
       <use xlink:href="#DejaVuSans-2e" transform="translate(63.623047 0)"/>
       <use xlink:href="#DejaVuSans-30" transform="translate(95.410156 0)"/>
       <use xlink:href="#DejaVuSans-37" transform="translate(159.033203 0)"/>
       <use xlink:href="#DejaVuSans-35" transform="translate(222.65625 0)"/>
      </g>
     </g>
    </g>
    <g id="text_16">
     <!-- PC2 -->
     <g transform="translate(21.9125 227.8475) rotate(-90) scale(0.1 -0.1)">
      <use xlink:href="#DejaVuSans-50"/>
      <use xlink:href="#DejaVuSans-43" transform="translate(60.302734 0)"/>
      <use xlink:href="#DejaVuSans-32" transform="translate(130.126953 0)"/>
     </g>
    </g>
   </g>
   <g id="line2d_15"/>
   <g id="line2d_16"/>
   <g id="patch_3">
    <path d="M 72 384.48 
L 72 51.84 
" style="fill: none; stroke: #000000; stroke-width: 0.8; stroke-linejoin: miter; stroke-linecap: square"/>
   </g>
   <g id="patch_4">
    <path d="M 518.4 384.48 
L 518.4 51.84 
" style="fill: none; stroke: #000000; stroke-width: 0.8; stroke-linejoin: miter; stroke-linecap: square"/>
   </g>
   <g id="patch_5">
    <path d="M 72 384.48 
L 518.4 384.48 
" style="fill: none; stroke: #000000; stroke-width: 0.8; stroke-linejoin: miter; stroke-linecap: square"/>
   </g>
   <g id="patch_6">
    <path d="M 72 51.84 
L 518.4 51.84 
" style="fill: none; stroke: #000000; stroke-width: 0.8; stroke-linejoin: miter; stroke-linecap: square"/>
   </g>
   <g id="text_17">
    <!-- PCA Projection with K-means Clustering -->
    <g transform="translate(177.081562 45.84) scale(0.12 -0.12)">
     <defs>
      <path id="DejaVuSans-41" d="M 2188 4044 
L 1331 1722 
L 3047 1722 
L 2188 4044 
z
M 1831 4666 
L 2547 4666 
L 4325 0 
L 3669 0 
L 3244 1197 
L 1141 1197 
L 716 0 
L 50 0 
L 1831 4666 
z
" transform="scale(0.015625)"/>
      <path id="DejaVuSans-20" transform="scale(0.015625)"/>
      <path id="DejaVuSans-72" d="M 2631 2963 
Q 2534 3019 2420 3045 
Q 2306 3072 2169 3072 
Q 1681 3072 1420 2755 
Q 1159 2438 1159 1844 
L 1159 0 
L 581 0 
L 581 3500 
L 1159 3500 
L 1159 2956 
Q 1341 3275 1631 3429 
Q 1922 3584 2338 3584 
Q 2397 3584 2469 3576 
Q 2541 3569 2628 3553 
L 2631 2963 
z
" transform="scale(0.015625)"/>
      <path id="DejaVuSans-6f" d="M 1959 3097 
Q 1497 3097 1228 2736 
Q 959 2375 959 1747 
Q 959 1119 1226 758 
Q 1494 397 1959 397 
Q 2419 397 2687 759 
Q 2956 1122 2956 1747 
Q 2956 2369 2687 2733 
Q 2419 3097 1959 3097 
z
M 1959 3584 
Q 2709 3584 3137 3096 
Q 3566 2609 3566 1747 
Q 3566 888 3137 398 
Q 2709 -91 1959 -91 
Q 1206 -91 779 398 
Q 353 888 353 1747 
Q 353 2609 779 3096 
Q 1206 3584 1959 3584 
z
" transform="scale(0.015625)"/>
      <path id="DejaVuSans-6a" d="M 603 3500 
L 1178 3500 
L 1178 -63 
Q 1178 -731 923 -1031 
Q 669 -1331 103 -1331 
L -116 -1331 
L -116 -844 
L 38 -844 
Q 366 -844 484 -692 
Q 603 -541 603 -63 
L 603 3500 
z
M 603 4863 
L 1178 4863 
L 1178 4134 
L 603 4134 
L 603 4863 
z
" transform="scale(0.015625)"/>
      <path id="DejaVuSans-65" d="M 3597 1894 
L 3597 1613 
L 953 1613 
Q 991 1019 1311 708 
Q 1631 397 2203 397 
Q 2534 397 2845 478 
Q 3156 559 3463 722 
L 3463 178 
Q 3153 47 2828 -22 
Q 2503 -91 2169 -91 
Q 1331 -91 842 396 
Q 353 884 353 1716 
Q 353 2575 817 3079 
Q 1281 3584 2069 3584 
Q 2775 3584 3186 3129 
Q 3597 2675 3597 1894 
z
M 3022 2063 
Q 3016 2534 2758 2815 
Q 2500 3097 2075 3097 
Q 1594 3097 1305 2825 
Q 1016 2553 972 2059 
L 3022 2063 
z
" transform="scale(0.015625)"/>
      <path id="DejaVuSans-63" d="M 3122 3366 
L 3122 2828 
Q 2878 2963 2633 3030 
Q 2388 3097 2138 3097 
Q 1578 3097 1268 2742 
Q 959 2388 959 1747 
Q 959 1106 1268 751 
Q 1578 397 2138 397 
Q 2388 397 2633 464 
Q 2878 531 3122 666 
L 3122 134 
Q 2881 22 2623 -34 
Q 2366 -91 2075 -91 
Q 1284 -91 818 406 
Q 353 903 353 1747 
Q 353 2603 823 3093 
Q 1294 3584 2113 3584 
Q 2378 3584 2631 3529 
Q 2884 3475 3122 3366 
z
" transform="scale(0.015625)"/>
      <path id="DejaVuSans-74" d="M 1172 4494 
L 1172 3500 
L 2356 3500 
L 2356 3053 
L 1172 3053 
L 1172 1153 
Q 1172 725 1289 603 
Q 1406 481 1766 481 
L 2356 481 
L 2356 0 
L 1766 0 
Q 1100 0 847 248 
Q 594 497 594 1153 
L 594 3053 
L 172 3053 
L 172 3500 
L 594 3500 
L 594 4494 
L 1172 4494 
z
" transform="scale(0.015625)"/>
      <path id="DejaVuSans-69" d="M 603 3500 
L 1178 3500 
L 1178 0 
L 603 0 
L 603 3500 
z
M 603 4863 
L 1178 4863 
L 1178 4134 
L 603 4134 
L 603 4863 
z
" transform="scale(0.015625)"/>
      <path id="DejaVuSans-6e" d="M 3513 2113 
L 3513 0 
L 2938 0 
L 2938 2094 
Q 2938 2591 2744 2837 
Q 2550 3084 2163 3084 
Q 1697 3084 1428 2787 
Q 1159 2491 1159 1978 
L 1159 0 
L 581 0 
L 581 3500 
L 1159 3500 
L 1159 2956 
Q 1366 3272 1645 3428 
Q 1925 3584 2291 3584 
Q 2894 3584 3203 3211 
Q 3513 2838 3513 2113 
z
" transform="scale(0.015625)"/>
      <path id="DejaVuSans-77" d="M 269 3500 
L 844 3500 
L 1563 769 
L 2278 3500 
L 2956 3500 
L 3675 769 
L 4391 3500 
L 4966 3500 
L 4050 0 
L 3372 0 
L 2619 2869 
L 1863 0 
L 1184 0 
L 269 3500 
z
" transform="scale(0.015625)"/>
      <path id="DejaVuSans-68" d="M 3513 2113 
L 3513 0 
L 2938 0 
L 2938 2094 
Q 2938 2591 2744 2837 
Q 2550 3084 2163 3084 
Q 1697 3084 1428 2787 
Q 1159 2491 1159 1978 
L 1159 0 
L 581 0 
L 581 4863 
L 1159 4863 
L 1159 2956 
Q 1366 3272 1645 3428 
Q 1925 3584 2291 3584 
Q 2894 3584 3203 3211 
Q 3513 2838 3513 2113 
z
" transform="scale(0.015625)"/>
      <path id="DejaVuSans-4b" d="M 628 4666 
L 1259 4666 
L 1259 2694 
L 3353 4666 
L 4166 4666 
L 1850 2491 
L 4331 0 
L 3500 0 
L 1259 2247 
L 1259 0 
L 628 0 
L 628 4666 
z
" transform="scale(0.015625)"/>
      <path id="DejaVuSans-2d" d="M 313 2009 
L 1997 2009 
L 1997 1497 
L 313 1497 
L 313 2009 
z
" transform="scale(0.015625)"/>
      <path id="DejaVuSans-6d" d="M 3328 2828 
Q 3544 3216 3844 3400 
Q 4144 3584 4550 3584 
Q 5097 3584 5394 3201 
Q 5691 2819 5691 2113 
L 5691 0 
L 5113 0 
L 5113 2094 
Q 5113 2597 4934 2840 
Q 4756 3084 4391 3084 
Q 3944 3084 3684 2787 
Q 3425 2491 3425 1978 
L 3425 0 
L 2847 0 
L 2847 2094 
Q 2847 2600 2669 2842 
Q 2491 3084 2119 3084 
Q 1678 3084 1418 2786 
Q 1159 2488 1159 1978 
L 1159 0 
L 581 0 
L 581 3500 
L 1159 3500 
L 1159 2956 
Q 1356 3278 1631 3431 
Q 1906 3584 2284 3584 
Q 2666 3584 2933 3390 
Q 3200 3197 3328 2828 
z
" transform="scale(0.015625)"/>
      <path id="DejaVuSans-61" d="M 2194 1759 
Q 1497 1759 1228 1600 
Q 959 1441 959 1056 
Q 959 750 1161 570 
Q 1363 391 1709 391 
Q 2188 391 2477 730 
Q 2766 1069 2766 1631 
L 2766 1759 
L 2194 1759 
z
M 3341 1997 
L 3341 0 
L 2766 0 
L 2766 531 
Q 2569 213 2275 61 
Q 1981 -91 1556 -91 
Q 1019 -91 701 211 
Q 384 513 384 1019 
Q 384 1609 779 1909 
Q 1175 2209 1959 2209 
L 2766 2209 
L 2766 2266 
Q 2766 2663 2505 2880 
Q 2244 3097 1772 3097 
Q 1472 3097 1187 3025 
Q 903 2953 641 2809 
L 641 3341 
Q 956 3463 1253 3523 
Q 1550 3584 1831 3584 
Q 2591 3584 2966 3190 
Q 3341 2797 3341 1997 
z
" transform="scale(0.015625)"/>
      <path id="DejaVuSans-73" d="M 2834 3397 
L 2834 2853 
Q 2591 2978 2328 3040 
Q 2066 3103 1784 3103 
Q 1356 3103 1142 2972 
Q 928 2841 928 2578 
Q 928 2378 1081 2264 
Q 1234 2150 1697 2047 
L 1894 2003 
Q 2506 1872 2764 1633 
Q 3022 1394 3022 966 
Q 3022 478 2636 193 
Q 2250 -91 1575 -91 
Q 1294 -91 989 -36 
Q 684 19 347 128 
L 347 722 
Q 666 556 975 473 
Q 1284 391 1588 391 
Q 1994 391 2212 530 
Q 2431 669 2431 922 
Q 2431 1156 2273 1281 
Q 2116 1406 1581 1522 
L 1381 1569 
Q 847 1681 609 1914 
Q 372 2147 372 2553 
Q 372 3047 722 3315 
Q 1072 3584 1716 3584 
Q 2034 3584 2315 3537 
Q 2597 3491 2834 3397 
z
" transform="scale(0.015625)"/>
      <path id="DejaVuSans-6c" d="M 603 4863 
L 1178 4863 
L 1178 0 
L 603 0 
L 603 4863 
z
" transform="scale(0.015625)"/>
      <path id="DejaVuSans-75" d="M 544 1381 
L 544 3500 
L 1119 3500 
L 1119 1403 
Q 1119 906 1312 657 
Q 1506 409 1894 409 
Q 2359 409 2629 706 
Q 2900 1003 2900 1516 
L 2900 3500 
L 3475 3500 
L 3475 0 
L 2900 0 
L 2900 538 
Q 2691 219 2414 64 
Q 2138 -91 1772 -91 
Q 1169 -91 856 284 
Q 544 659 544 1381 
z
M 1991 3584 
L 1991 3584 
z
" transform="scale(0.015625)"/>
      <path id="DejaVuSans-67" d="M 2906 1791 
Q 2906 2416 2648 2759 
Q 2391 3103 1925 3103 
Q 1463 3103 1205 2759 
Q 947 2416 947 1791 
Q 947 1169 1205 825 
Q 1463 481 1925 481 
Q 2391 481 2648 825 
Q 2906 1169 2906 1791 
z
M 3481 434 
Q 3481 -459 3084 -895 
Q 2688 -1331 1869 -1331 
Q 1566 -1331 1297 -1286 
Q 1028 -1241 775 -1147 
L 775 -588 
Q 1028 -725 1275 -790 
Q 1522 -856 1778 -856 
Q 2344 -856 2625 -561 
Q 2906 -266 2906 331 
L 2906 616 
Q 2728 306 2450 153 
Q 2172 0 1784 0 
Q 1141 0 747 490 
Q 353 981 353 1791 
Q 353 2603 747 3093 
Q 1141 3584 1784 3584 
Q 2172 3584 2450 3431 
Q 2728 3278 2906 2969 
L 2906 3500 
L 3481 3500 
L 3481 434 
z
" transform="scale(0.015625)"/>
     </defs>
     <use xlink:href="#DejaVuSans-50"/>
     <use xlink:href="#DejaVuSans-43" transform="translate(60.302734 0)"/>
     <use xlink:href="#DejaVuSans-41" transform="translate(130.126953 0)"/>
     <use xlink:href="#DejaVuSans-20" transform="translate(198.535156 0)"/>
     <use xlink:href="#DejaVuSans-50" transform="translate(230.322266 0)"/>
     <use xlink:href="#DejaVuSans-72" transform="translate(288.875 0)"/>
     <use xlink:href="#DejaVuSans-6f" transform="translate(327.738281 0)"/>
     <use xlink:href="#DejaVuSans-6a" transform="translate(388.919922 0)"/>
     <use xlink:href="#DejaVuSans-65" transform="translate(416.703125 0)"/>
     <use xlink:href="#DejaVuSans-63" transform="translate(478.226562 0)"/>
     <use xlink:href="#DejaVuSans-74" transform="translate(533.207031 0)"/>
     <use xlink:href="#DejaVuSans-69" transform="translate(572.416016 0)"/>
     <use xlink:href="#DejaVuSans-6f" transform="translate(600.199219 0)"/>
     <use xlink:href="#DejaVuSans-6e" transform="translate(661.380859 0)"/>
     <use xlink:href="#DejaVuSans-20" transform="translate(724.759766 0)"/>
     <use xlink:href="#DejaVuSans-77" transform="translate(756.546875 0)"/>
     <use xlink:href="#DejaVuSans-69" transform="translate(838.333984 0)"/>
     <use xlink:href="#DejaVuSans-74" transform="translate(866.117188 0)"/>
     <use xlink:href="#DejaVuSans-68" transform="translate(905.326172 0)"/>
     <use xlink:href="#DejaVuSans-20" transform="translate(968.705078 0)"/>
     <use xlink:href="#DejaVuSans-4b" transform="translate(1000.492188 0)"/>
     <use xlink:href="#DejaVuSans-2d" transform="translate(1055.568359 0)"/>
     <use xlink:href="#DejaVuSans-6d" transform="translate(1091.652344 0)"/>
     <use xlink:href="#DejaVuSans-65" transform="translate(1189.064453 0)"/>
     <use xlink:href="#DejaVuSans-61" transform="translate(1250.587891 0)"/>
     <use xlink:href="#DejaVuSans-6e" transform="translate(1311.867188 0)"/>
     <use xlink:href="#DejaVuSans-73" transform="translate(1375.246094 0)"/>
     <use xlink:href="#DejaVuSans-20" transform="translate(1427.345703 0)"/>
     <use xlink:href="#DejaVuSans-43" transform="translate(1459.132812 0)"/>
     <use xlink:href="#DejaVuSans-6c" transform="translate(1528.957031 0)"/>
     <use xlink:href="#DejaVuSans-75" transform="translate(1556.740234 0)"/>
     <use xlink:href="#DejaVuSans-73" transform="translate(1620.119141 0)"/>
     <use xlink:href="#DejaVuSans-74" transform="translate(1672.21875 0)"/>
     <use xlink:href="#DejaVuSans-65" transform="translate(1711.427734 0)"/>
     <use xlink:href="#DejaVuSans-72" transform="translate(1772.951172 0)"/>
     <use xlink:href="#DejaVuSans-69" transform="translate(1814.064453 0)"/>
     <use xlink:href="#DejaVuSans-6e" transform="translate(1841.847656 0)"/>
     <use xlink:href="#DejaVuSans-67" transform="translate(1905.226562 0)"/>
    </g>
   </g>
   <g id="legend_1">
    <g id="patch_7">
     <path d="M 471.907812 103.874375 
L 511.4 103.874375 
Q 513.4 103.874375 513.4 101.874375 
L 513.4 58.84 
Q 513.4 56.84 511.4 56.84 
L 471.907812 56.84 
Q 469.907812 56.84 469.907812 58.84 
L 469.907812 101.874375 
Q 469.907812 103.874375 471.907812 103.874375 
z
" style="fill: #ffffff; opacity: 0.8; stroke: #cccccc; stroke-linejoin: miter"/>
    </g>
    <g id="text_18">
     <!-- Cluster -->
     <g transform="translate(473.907812 68.438437) scale(0.1 -0.1)">
      <use xlink:href="#DejaVuSans-43"/>
      <use xlink:href="#DejaVuSans-6c" transform="translate(69.824219 0)"/>
      <use xlink:href="#DejaVuSans-75" transform="translate(97.607422 0)"/>
      <use xlink:href="#DejaVuSans-73" transform="translate(160.986328 0)"/>
      <use xlink:href="#DejaVuSans-74" transform="translate(213.085938 0)"/>
      <use xlink:href="#DejaVuSans-65" transform="translate(252.294922 0)"/>
      <use xlink:href="#DejaVuSans-72" transform="translate(313.818359 0)"/>
     </g>
    </g>
    <g id="line2d_17">
     <defs>
      <path id="m5b5acdc87f" d="M 0 5 
C 1.326016 5 2.597899 4.473168 3.535534 3.535534 
C 4.473168 2.597899 5 1.326016 5 0 
C 5 -1.326016 4.473168 -2.597899 3.535534 -3.535534 
C 2.597899 -4.473168 1.326016 -5 0 -5 
C -1.326016 -5 -2.597899 -4.473168 -3.535534 -3.535534 
C -4.473168 -2.597899 -5 -1.326016 -5 0 
C -5 1.326016 -4.473168 2.597899 -3.535534 3.535534 
C -2.597899 4.473168 -1.326016 5 0 5 
z
" style="stroke: #ffffff; stroke-width: 0.8"/>
     </defs>
     <g>
      <use xlink:href="#m5b5acdc87f" x="484.472656" y="79.616562" style="fill: #1f77b4; stroke: #ffffff; stroke-width: 0.8"/>
     </g>
    </g>
    <g id="text_19">
     <!-- 0 -->
     <g transform="translate(502.472656 83.116562) scale(0.1 -0.1)">
      <use xlink:href="#DejaVuSans-30"/>
     </g>
    </g>
    <g id="line2d_18">
     <defs>
      <path id="mddde9c9cf2" d="M 0 5 
C 1.326016 5 2.597899 4.473168 3.535534 3.535534 
C 4.473168 2.597899 5 1.326016 5 0 
C 5 -1.326016 4.473168 -2.597899 3.535534 -3.535534 
C 2.597899 -4.473168 1.326016 -5 0 -5 
C -1.326016 -5 -2.597899 -4.473168 -3.535534 -3.535534 
C -4.473168 -2.597899 -5 -1.326016 -5 0 
C -5 1.326016 -4.473168 2.597899 -3.535534 3.535534 
C -2.597899 4.473168 -1.326016 5 0 5 
z
" style="stroke: #ffffff; stroke-width: 0.8"/>
     </defs>
     <g>
      <use xlink:href="#mddde9c9cf2" x="484.472656" y="94.294688" style="fill: #ff7f0e; stroke: #ffffff; stroke-width: 0.8"/>
     </g>
    </g>
    <g id="text_20">
     <!-- 1 -->
     <g transform="translate(502.472656 97.794688) scale(0.1 -0.1)">
      <use xlink:href="#DejaVuSans-31"/>
     </g>
    </g>
   </g>
  </g>
 </g>
 <defs>
  <clipPath id="p190c87b384">
   <rect x="72" y="51.84" width="446.4" height="332.64"/>
  </clipPath>
 </defs>
</svg>
